<?xml version="1.0" standalone="no"?>
<!DOCTYPE svg PUBLIC "-//W3C//DTD SVG 1.1//EN" "http://www.w3.org/Graphics/SVG/1.1/DTD/svg11.dtd" >
<svg>
<metadata>
Created by FontForge 20090622 at Tue Aug 30 20:24:05 2016
 By deploy user
&#194;&#169; 2009 Microsoft Corporation. All Rights Reserved.
</metadata>
<defs>
<font id="Cambria-Italic" horiz-adv-x="0" >
  <font-face 
    font-family="Cambria"
    font-weight="400"
    font-style="italic"
    font-stretch="normal"
    units-per-em="2048"
    panose-1="2 4 5 3 5 4 6 10 2 4"
    ascent="1593"
    descent="-455"
    x-height="956"
    cap-height="1365"
    bbox="-2263 -571 2503 2145"
    underline-thickness="116"
    underline-position="-67"
    slope="-12.4"
    unicode-range="U+0009-U+FB04"
  />
<missing-glyph horiz-adv-x="1348" 
d="M567 487v22q0 22 3 40.5t14 39.5t32 47.5t57 65.5q23 25 42 48.5t32.5 49t21 54t7.5 63.5q0 75 -32.5 116t-94.5 41q-32 0 -56 -10t-42 -28t-30.5 -43t-21.5 -55h-96v130q60 30 128.5 53t135.5 23q70 0 119.5 -14.5t80.5 -40t45 -60.5t14 -76q0 -38 -7.5 -69t-25.5 -61.5
t-48 -65.5t-74 -80q-32 -33 -51 -55t-29.5 -41.5t-14 -39.5t-3.5 -48v-6h-106zM691 377v-161h-144v161h144zM1055 93v1178h-762v-1178h762zM1158 1364v-1364h-968v1364h968z" />
    <glyph glyph-name="uniFB00_b.liga" unicode="&#xfb00;b" horiz-adv-x="2225" 
d="M254 -17q-34 -160 -93.5 -254t-144.5 -135t-206 -41q-44 0 -79 10l23 88q24 -8 70 -8q53 0 86.5 14t62 45.5t54 92t48.5 159.5l203 901h-121l12 51q49 5 69 13.5t32.5 23t22.5 41t29 91.5q53 180 163.5 270.5t281.5 90.5q98 0 169 -16l-39 -170h-88q-14 57 -36.5 82
t-66.5 25q-57 0 -97 -31t-68.5 -93.5t-52.5 -167.5l-25 -109h376q10 16 20 48l22 71q53 180 159.5 270.5t272.5 90.5q69 0 121 -10l-1 -5l232 9h58l-176 -700l13 -4q97 130 182 188t170 58q109 0 169.5 -83t60.5 -234q0 -108 -29.5 -217t-82 -197t-117 -144.5t-136 -84.5
t-150.5 -28q-133 0 -236 65l-92 -65l-64 16l259 1143q6 25 14.5 72t8.5 76q0 38 -20.5 55.5t-75.5 21.5l-27 -118h-81q0 50 -21 76t-56 26q-63 0 -106 -59t-82 -223l-26 -114h229l-22 -101h-230l-186 -872q-34 -160 -93.5 -254t-144.5 -135t-206 -41q-44 0 -79 10l23 88
q24 -8 70 -8q53 0 86.5 14t62 45.5t54 92t48.5 159.5l203 901h-397zM1479 348q-10 -45 -12.5 -76.5t-2.5 -59.5q0 -79 34.5 -114t114.5 -35q53 0 97 21.5t82.5 60.5t69.5 94t54.5 125t35.5 144.5t12 138.5q0 104 -29.5 156t-94.5 52q-48 0 -94.5 -30.5t-103.5 -101
t-93 -144.5t-61 -189z" />
    <glyph glyph-name="uniFB00_h.liga" unicode="&#xfb00;h" horiz-adv-x="2244" 
d="M254 -17q-34 -160 -93.5 -254t-144.5 -135t-206 -41q-44 0 -79 10l23 88q24 -8 70 -8q53 0 86.5 14t62 45.5t54 92t48.5 159.5l203 901h-121l12 51q49 5 69 13.5t32.5 23t22.5 41t29 91.5q53 180 163.5 270.5t281.5 90.5q98 0 169 -16l-39 -170h-88q-14 57 -36.5 82
t-66.5 25q-57 0 -97 -31t-68.5 -93.5t-52.5 -167.5l-25 -109h376q10 16 20 48l22 71q53 180 159.5 270.5t272.5 90.5q69 0 121 -10l-1 -4l231 8h58l-172 -693l12 -4q94 125 179 182t173 57q97 0 147 -53.5t50 -158.5q0 -64 -20 -154l-84 -356q-10 -43 -14 -69t-4 -45
q0 -31 10.5 -48t32 -25.5t68.5 -13.5l-9 -49h-314l126 508q14 55 24.5 111.5t10.5 102.5q0 72 -24 102.5t-81 30.5q-41 0 -90.5 -34t-104.5 -103.5t-87.5 -133t-51.5 -151.5l-91 -433h-173l257 1143q11 50 15.5 72.5t6.5 41.5t2 34q0 39 -21 56t-74 21l-27 -118h-81
q0 50 -21 76t-56 26q-63 0 -106 -59t-82 -223l-26 -114h229l-22 -101h-230l-186 -872q-34 -160 -93.5 -254t-144.5 -135t-206 -41q-44 0 -79 10l23 88q24 -8 70 -8q53 0 86.5 14t62 45.5t54 92t48.5 159.5l203 901h-397z" />
    <glyph glyph-name="uniFB03" unicode="f&#xfb01;" horiz-adv-x="1713" 
d="M254 -17q-34 -160 -93.5 -254t-144.5 -135t-206 -41q-44 0 -79 10l23 88q24 -8 70 -8q53 0 86.5 14t62 45.5t54 92t48.5 159.5l203 901h-121l12 51q49 5 69 13.5t32.5 23t22.5 41t29 91.5q53 180 163.5 270.5t281.5 90.5q98 0 169 -16l-39 -170h-88q-14 57 -36.5 82
t-66.5 25q-57 0 -97 -31t-68.5 -93.5t-52.5 -167.5l-25 -109h376q10 16 20 48l22 71q53 180 159.5 270.5t272.5 90.5q69 0 121 -10l-40 -176h-81q0 50 -21 76t-56 26q-63 0 -106 -59t-82 -223l-26 -114h229l-22 -101h-230l-186 -872q-34 -160 -93.5 -254t-144.5 -135
t-206 -41q-44 0 -79 10l23 88q24 -8 70 -8q53 0 86.5 14t62 45.5t54 92t48.5 159.5l203 901h-397zM1718 1348l-46 -194h-177l46 194h177zM1471 250q-11 -51 -14 -74.5t-3 -39.5q0 -30 10 -47t31 -26t69 -14l-9 -49h-310l151 674q13 58 18 92.5t5 57.5q0 29 -8.5 45t-28.5 24
t-69 10l11 53l244 9h59z" />
    <glyph glyph-name="uniFB00_j.liga" unicode="&#xfb00;j" horiz-adv-x="1703" 
d="M254 -17q-34 -160 -93.5 -254t-144.5 -135t-206 -41q-44 0 -79 10l23 88q24 -8 70 -8q53 0 86.5 14t62 45.5t54 92t48.5 159.5l203 901h-121l12 51q49 5 69 13.5t32.5 23t22.5 41t29 91.5q53 180 163.5 270.5t281.5 90.5q98 0 169 -16l-39 -170h-88q-14 57 -36.5 82
t-66.5 25q-57 0 -97 -31t-68.5 -93.5t-52.5 -167.5l-25 -109h376q10 16 20 48l22 71q53 180 159.5 270.5t272.5 90.5q69 0 121 -10l-40 -176h-81q0 50 -21 76t-56 26q-63 0 -106 -59t-82 -223l-26 -114h229l-22 -101h-230l-186 -872q-34 -160 -93.5 -254t-144.5 -135
t-206 -41q-44 0 -79 10l23 88q24 -8 70 -8q53 0 86.5 14t62 45.5t54 92t48.5 159.5l203 901h-397zM1721 1348l-46 -194h-177l46 194h177zM1420 -17q-32 -152 -87 -244.5t-143 -139t-210 -46.5q-50 0 -85 10l23 88q16 -5 35.5 -6.5t40.5 -1.5q48 0 81.5 14.5t62.5 48
t53.5 93.5t45.5 155l162 720q13 56 18 91t5 59q0 29 -8.5 45t-28.5 24t-69 10l11 53l244 9h57z" />
    <glyph glyph-name="uniFB00_k.liga" unicode="&#xfb00;k" horiz-adv-x="2176" 
d="M254 -17q-34 -160 -93.5 -254t-144.5 -135t-206 -41q-44 0 -79 10l23 88q24 -8 70 -8q53 0 86.5 14t62 45.5t54 92t48.5 159.5l203 901h-121l12 51q49 5 69 13.5t32.5 23t22.5 41t29 91.5q53 180 163.5 270.5t281.5 90.5q98 0 169 -16l-39 -170h-88q-14 57 -36.5 82
t-66.5 25q-57 0 -97 -31t-68.5 -93.5t-52.5 -167.5l-25 -109h376q10 16 20 48l22 71q53 180 159.5 270.5t272.5 90.5q69 0 121 -10l-1 -4l231 8h58l-196 -873h32q31 0 67 12t77 37.5t110 80.5q52 42 77 71.5t34 51.5t9 42q0 49 -68 55l11 49h324l19 -49q-83 -75 -176 -147
l-253 -197l150 -379q20 -51 41 -78.5t48.5 -40.5t70.5 -16l-11 -49h-267l-146 411q-14 39 -24 53t-23 20t-42 6h-74l-104 -490h-173l257 1143q11 50 15.5 72.5t6.5 41.5t2 34q0 39 -21 56t-74 21l-27 -118h-81q0 50 -21 76t-56 26q-63 0 -106 -59t-82 -223l-26 -114h229
l-22 -101h-230l-186 -872q-34 -160 -93.5 -254t-144.5 -135t-206 -41q-44 0 -79 10l23 88q24 -8 70 -8q53 0 86.5 14t62 45.5t54 92t48.5 159.5l203 901h-397z" />
    <glyph glyph-name="uniFB04" unicode="f&#xfb02;" horiz-adv-x="1704" 
d="M254 -17q-34 -160 -93.5 -254t-144.5 -135t-206 -41q-44 0 -79 10l23 88q24 -8 70 -8q53 0 86.5 14t62 45.5t54 92t48.5 159.5l203 901h-121l12 51q49 5 69 13.5t32.5 23t22.5 41t29 91.5q53 180 163.5 270.5t281.5 90.5q98 0 169 -16l-39 -170h-88q-14 57 -36.5 82
t-66.5 25q-57 0 -97 -31t-68.5 -93.5t-52.5 -167.5l-25 -109h376q10 16 20 48l22 71q53 180 161 270.5t274 90.5q72 0 128 -11l-1 -3l220 8h59l-260 -1180q-11 -48 -14 -72.5t-3 -41.5q0 -30 10 -47t31 -26t69 -14l-8 -49h-312l258 1148q10 44 14 66t6 42t2 35q0 36 -17 53
t-67 22l-27 -116h-86q0 47 -21 74.5t-58 27.5q-65 0 -109.5 -61t-75.5 -195l-32 -140h229l-22 -101h-230l-186 -872q-34 -160 -93.5 -254t-144.5 -135t-206 -41q-44 0 -79 10l23 88q24 -8 70 -8q53 0 86.5 14t62 45.5t54 92t48.5 159.5l203 901h-397z" />
    <glyph glyph-name=".notdef" horiz-adv-x="1348" 
d="M567 487v22q0 22 3 40.5t14 39.5t32 47.5t57 65.5q23 25 42 48.5t32.5 49t21 54t7.5 63.5q0 75 -32.5 116t-94.5 41q-32 0 -56 -10t-42 -28t-30.5 -43t-21.5 -55h-96v130q60 30 128.5 53t135.5 23q70 0 119.5 -14.5t80.5 -40t45 -60.5t14 -76q0 -38 -7.5 -69t-25.5 -61.5
t-48 -65.5t-74 -80q-32 -33 -51 -55t-29.5 -41.5t-14 -39.5t-3.5 -48v-6h-106zM691 377v-161h-144v161h144zM1055 93v1178h-762v-1178h762zM1158 1364v-1364h-968v1364h968z" />
    <glyph glyph-name="glyph1" 
 />
    <glyph glyph-name="glyph1" 
 />
    <glyph glyph-name="glyph2" horiz-adv-x="451" 
 />
    <glyph glyph-name="uni0009" unicode="&#x9;" horiz-adv-x="451" 
 />
    <glyph glyph-name="uni0009" unicode="&#xa0;" horiz-adv-x="451" 
 />
    <glyph glyph-name="uni0009" unicode=" " horiz-adv-x="451" 
 />
    <glyph glyph-name="uni0009" unicode="&#xd;" horiz-adv-x="451" 
 />
    <glyph glyph-name="A" unicode="A" horiz-adv-x="1205" 
d="M678 0l11 49q45 4 70.5 26t36 61t10.5 103q0 39 -3 85l-7 129h-440l-55 -98q-39 -69 -57 -118.5t-18 -87.5q0 -84 101 -100l-11 -49h-409l11 49q31 4 58.5 24.5t58.5 62t87 137.5l641 1108h151l72 -1115q5 -79 18 -123.5t35.5 -66t65.5 -27.5l-11 -49h-416zM401 540h391
l-17 322q-3 66 -5 165t-2 143h-11z" />
    <glyph glyph-name="B" unicode="B" horiz-adv-x="1221" 
d="M895 699q93 -37 143 -105.5t50 -155.5q0 -103 -37.5 -184.5t-118.5 -142.5t-186 -86t-259 -25h-445l11 49q38 6 57 19.5t32 37.5t24 58.5t33 133.5l170 770q22 100 22 158q0 49 -23 68t-75 22l11 49h495q150 0 240.5 -31.5t133 -92.5t42.5 -153q0 -131 -80 -228.5
t-238 -149.5zM619 753q104 0 167.5 14t103.5 42t71.5 65.5t50 88.5t18.5 120q0 43 -15 80.5t-51.5 64t-84 38t-126.5 11.5q-87 0 -162 -3l-113 -521h141zM333 92q78 -4 146 -4q151 0 233.5 38t133.5 124t51 206q0 65 -25.5 110t-81 72t-152.5 27h-181z" />
    <glyph glyph-name="C" unicode="C" horiz-adv-x="1105" 
d="M1184 1330l-60 -271h-96q-8 123 -53.5 177.5t-146.5 54.5q-84 0 -158 -49.5t-140 -143t-115 -219t-75 -256t-26 -235.5q0 -163 53.5 -239.5t167.5 -76.5q75 0 131 22.5t105 76t97 149.5h96l-61 -284q-102 -28 -197 -40t-195 -12q-124 0 -211 51.5t-131 149t-44 234.5
q0 72 10 140q12 84 38 183q33 123 83 224q54 107 123 189q65 76 141 127q70 47 151 73t172 26t168.5 -11t172.5 -40z" />
    <glyph glyph-name="D" unicode="D" horiz-adv-x="1324" 
d="M683 1365q151 0 245 -23t175.5 -83t122.5 -159.5t41 -235.5q0 -135 -31 -258t-89 -226.5t-139 -180t-157 -117.5t-170 -61.5t-219 -20.5h-420l11 49q38 6 57 19.5t32 37.5t24 58.5t33 133.5l170 770q10 46 16 88.5t6 72.5q0 47 -24 65.5t-74 21.5l11 49h379zM332 92
q29 -3 111 -3q101 0 183.5 22t152 70.5t126.5 129.5t92.5 164.5t55.5 179.5t20 203q0 209 -97.5 314.5t-289.5 105.5q-44 0 -95 -3z" />
    <glyph glyph-name="E" unicode="E" horiz-adv-x="1164" 
d="M1224 1365l-69 -307h-96q-3 72 -11 112.5t-18 60t-23 29t-32.5 13.5t-55.5 4h-326l-114 -524h191q44 0 73.5 12t54.5 41.5t56 90.5h91l-90 -384h-85q0 55 -4 81t-10.5 38.5t-16.5 19.5t-26 10t-53 3h-200l-128 -577h296q44 0 74.5 6.5t55.5 22.5t48 41.5t47.5 65.5
t66.5 122h97l-88 -346h-887l11 49q38 6 57 19.5t32 37.5t24 58.5t33 133.5l170 770q22 100 22 161q0 47 -24 65.5t-74 21.5l11 49h920z" />
    <glyph glyph-name="F" unicode="F" horiz-adv-x="1079" 
d="M376 291q-7 -30 -11 -51t-7 -51.5t-3 -53.5q0 -31 10 -48.5t30 -25.5t69 -12l-11 -49h-411l11 49q38 6 57 19.5t32 37.5t24 58.5t33 133.5l170 770q22 100 22 158q0 49 -23 68t-75 22l11 49h902l-69 -307h-96q-4 71 -11 111.5t-17.5 60.5t-23.5 29.5t-32.5 13.5t-55.5 4
h-308l-119 -544h187q44 0 73 12t54 43.5t62 107.5h91l-97 -422h-88q0 62 -2.5 97t-12 49t-27 19.5t-63.5 5.5h-196z" />
    <glyph glyph-name="G" unicode="G" horiz-adv-x="1198" 
d="M816 320q22 94 22 161q0 47 -24 65.5t-74 21.5l11 49h400l-11 -49q-34 -8 -48.5 -15t-25.5 -19.5t-22 -34.5t-22.5 -63.5t-27.5 -116.5l-69 -314l-79 -22l-52 79q-72 -34 -112 -48t-83 -22t-91 -8q-123 0 -209.5 52t-130 148.5t-43.5 228.5q0 107 22 219q25 127 67 237
q40 106 92.5 189.5t117.5 148.5q57 56 125 95t143 59t158 20q95 0 174 -11.5t173 -41.5l-61 -269h-96q-7 87 -29.5 137.5t-65 73.5t-110.5 23q-84 0 -155 -44.5t-136.5 -130.5t-119 -217t-82 -267t-28.5 -246q0 -162 53.5 -239.5t164.5 -77.5q41 0 84 9.5t80.5 32.5t66.5 62
t42 98z" />
    <glyph glyph-name="H" unicode="H" horiz-adv-x="1370" 
d="M1091 291q-13 -59 -17 -93.5t-4 -62.5q0 -45 22.5 -63.5t75.5 -22.5l-11 -49h-400l11 49q38 6 57 19.5t32 37.5t24 58.5t33 133.5l82 371h-537l-83 -378q-8 -37 -12.5 -60.5t-6.5 -46t-2 -49.5q0 -43 20 -62t78 -24l-11 -49h-400l11 49q38 6 57 19.5t32 37.5t24 58.5
t33 133.5l170 770q9 41 15.5 87.5t6.5 73.5q0 47 -24 65.5t-74 21.5l11 49h400l-11 -49q-38 -8 -54.5 -18t-30 -30t-27 -62.5t-34.5 -138.5l-68 -306h537l68 307q9 41 15.5 87.5t6.5 73.5q0 47 -24 65.5t-74 21.5l11 49h400l-11 -49q-34 -8 -48 -15t-25.5 -19t-22 -34.5
t-22.5 -66t-28 -114.5z" />
    <glyph glyph-name="I" unicode="I" horiz-adv-x="656" 
d="M376 291q-13 -59 -17 -93.5t-4 -62.5q0 -45 22.5 -63.5t75.5 -22.5l-11 -49h-400l11 49q38 6 57 19.5t32 37.5t24 58.5t33 133.5l170 770q10 46 16 88.5t6 72.5q0 47 -24 65.5t-74 21.5l11 49h400l-11 -49q-38 -8 -54.5 -18t-30 -30t-27 -62.5t-34.5 -138.5z" />
    <glyph glyph-name="J" unicode="J" horiz-adv-x="613" 
d="M301 43q-34 -156 -87 -248.5t-137.5 -137t-207.5 -44.5q-27 0 -53 2.5t-42 7.5l26 96q16 -5 35.5 -6.5t40.5 -1.5q58 0 100.5 27t77 93.5t60.5 182.5l234 1054q10 44 16 87.5t6 73.5q0 47 -24 65.5t-74 21.5l11 49h400l-11 -49q-38 -8 -54.5 -18t-30 -30t-27 -62.5
t-34.5 -138.5z" />
    <glyph glyph-name="K" unicode="K" horiz-adv-x="1235" 
d="M476 748h33q42 0 76.5 14t80.5 51t146.5 136t143 150.5t62 89t19.5 68.5q0 25 -20 40.5t-57 18.5l11 49h429l-11 -49q-40 -6 -90.5 -41.5t-154.5 -138.5l-388 -378l213 -512q27 -65 43.5 -95.5t35.5 -51t43 -33t58 -17.5l-11 -49h-386l11 49q54 5 54 48q0 13 -2.5 27
t-11 41t-23.5 65l-130 318q-23 57 -40 80t-36 32t-59 9h-56l-83 -378q-13 -60 -17 -94.5t-4 -61.5q0 -45 22.5 -63.5t75.5 -22.5l-11 -49h-400l11 49q38 6 57 19.5t32 37.5t24 58.5t33 133.5l170 770q10 46 16 88.5t6 72.5q0 47 -24 65.5t-74 21.5l11 49h400l-11 -49
q-38 -8 -54.5 -18t-30 -30t-27 -62.5t-34.5 -138.5z" />
    <glyph glyph-name="L" unicode="L" horiz-adv-x="1071" 
d="M53 49q38 6 57 19.5t32 37.5t24 58.5t33 133.5l170 770q10 46 16 88.5t6 72.5q0 47 -24 65.5t-74 21.5l11 49h400l-11 -49q-38 -8 -54.5 -18t-30 -30t-27 -62.5t-34.5 -138.5l-214 -975h246q67 0 105.5 13t73 47.5t67.5 93.5t67 147h97l-101 -393h-846z" />
    <glyph glyph-name="M" unicode="M" horiz-adv-x="1622" 
d="M1356 1365h315l-11 -49q-38 -8 -54.5 -18t-30 -30t-27 -62.5t-34.5 -138.5l-171 -776q-13 -59 -17 -93.5t-4 -62.5q0 -45 22.5 -63.5t75.5 -22.5l-11 -49h-400l11 49q38 6 57 19.5t32 37.5t24 58.5t33 133.5l133 603q26 119 66 255h-14l-57.5 -103.5l-84.5 -142.5
l-455 -751h-109l-96 750l-27 269h-20q-38 -251 -76 -425l-96 -436q-17 -76 -22 -113t-5 -69q0 -45 22.5 -63.5t75.5 -22.5l-11 -49h-350l11 49q38 6 57 19.5t32 37.5t24 58.5t33 133.5l170 770q10 43 16 82t6 79q0 47 -24 65.5t-74 21.5l11 49h357l114 -970z" />
    <glyph glyph-name="N" unicode="N" horiz-adv-x="1374" 
d="M1428 1365l-11 -49q-38 -8 -54.5 -18t-30 -30t-27 -62.5t-34.5 -138.5l-235 -1067h-136l-292 858q-53 154 -93 307h-13q-6 -51 -33 -194.5t-57 -280.5l-88 -399q-9 -42 -15 -81t-6 -75q0 -45 22.5 -63.5t75.5 -22.5l-11 -49h-350l11 49q38 6 57 19.5t32 37.5t24 58.5
t33 133.5l170 770q10 43 16 82t6 79q0 47 -24 65.5t-74 21.5l11 49h319l264 -779q57 -168 88 -284h11q8 61 36.5 203t52.5 248l70 315q7 33 14.5 78t7.5 83q0 47 -24 65.5t-74 21.5l11 49h350z" />
    <glyph glyph-name="O" unicode="O" horiz-adv-x="1273" 
d="M837 1381q124 0 214.5 -48t139 -146t48.5 -242q0 -155 -53 -348.5t-153.5 -335t-229.5 -210t-270 -68.5q-140 0 -231.5 54t-134.5 150.5t-43 227.5q0 127 36.5 284.5t100 284.5t151 216t195.5 135t230 46zM1049 987q0 306 -223 306q-54 0 -102 -18q-56 -22 -107 -65
q-57 -49 -106 -125q-58 -90 -101 -205q-45 -120 -72 -259q-26 -133 -26 -241q0 -156 56.5 -232.5t168.5 -76.5q90 0 171 55q100 67 180 213q86 157 133 383q28 133 28 265z" />
    <glyph glyph-name="P" unicode="P" horiz-adv-x="1137" 
d="M745 1365q119 0 195.5 -18.5t126 -57t74 -97.5t24.5 -137q0 -150 -71 -260t-192.5 -162t-291.5 -52q-102 0 -170 4l-64 -294q-9 -41 -12.5 -63t-6 -47.5t-2.5 -45.5q0 -31 10 -48.5t30 -25.5t69 -12l-11 -49h-411l11 49q38 6 57 19.5t32 37.5t24 58.5t33 133.5l170 770
q22 100 22 158q0 49 -23 68t-75 22l11 49h441zM561 668q121 0 195.5 25t122 77.5t73.5 124.5t26 158q0 85 -30 134t-85 69.5t-140 20.5q-62 0 -130 -3l-136 -606h104z" />
    <glyph glyph-name="Q" unicode="Q" horiz-adv-x="1273" 
d="M675 1q23 -73 43 -120.5t38.5 -77t36.5 -44t36 -19.5t42 -5q38 0 77 22t87 76l52 -56q-80 -87 -149 -123t-142 -36q-83 0 -135.5 37t-91 118t-74.5 212q-181 10 -276 120t-95 310q0 127 36.5 284.5t100 284.5t151 216t195.5 135t230 46q124 0 214.5 -48t139 -146
t48.5 -242q0 -140 -44 -313t-121 -305.5t-178.5 -213.5t-220.5 -112zM1050 987q0 149 -55 227.5t-169 78.5q-54 0 -102 -18q-56 -22 -107 -65q-57 -49 -106 -125q-58 -90 -101 -205q-45 -120 -72 -259q-26 -133 -26 -241q0 -156 56.5 -232.5t168.5 -76.5q98 0 185.5 65
t160 193t120 312t47.5 346z" />
    <glyph glyph-name="R" unicode="R" horiz-adv-x="1209" 
d="M809 619q48 -36 77.5 -86t47.5 -139l23 -116q7 -36 15.5 -67t20 -59.5t25 -45.5t29 -28t35 -17.5t49.5 -11.5l-10 -49h-277q-32 89 -57 212l-44 212q-11 55 -26.5 92.5t-37 58t-50 27t-69.5 6.5h-114l-70 -317q-9 -39 -12.5 -62t-6 -48.5t-2.5 -45.5q0 -31 10 -48.5
t30 -25.5t69 -12l-11 -49h-411l11 49q38 6 57 19.5t32 37.5t24 58.5t33 133.5l170 770q22 100 22 158q0 49 -23 68t-75 22l11 49h445q106 0 173 -12.5t114.5 -37.5t79.5 -64.5t48 -89t16 -105.5q0 -89 -29.5 -158t-80.5 -121t-118.5 -88t-142.5 -59v-11zM583 694
q109 0 181 21.5t120 65.5t79 116t31 156q0 43 -8 76.5t-21 55.5t-33 39t-50 29.5t-69.5 18t-107.5 5.5q-53 0 -112 -4l-128 -579h118z" />
    <glyph glyph-name="S" unicode="S" horiz-adv-x="986" 
d="M159 311q0 -121 56 -180.5t175 -59.5q92 0 158 34t100 96.5t34 148.5q0 61 -21.5 107.5t-65 89t-125.5 97.5q-74 50 -123 98.5t-78 108.5t-29 134q0 118 57 208t161 139t240 49q92 0 170.5 -12.5t173.5 -42.5l-56 -257h-96q-4 85 -26 133.5t-63 69.5t-109 21
q-83 0 -146 -34t-96 -92.5t-33 -130.5q0 -52 18 -93t57.5 -80.5t115.5 -91.5q98 -68 149.5 -121.5t76 -113.5t24.5 -139q0 -121 -58.5 -215.5t-165 -146t-242.5 -51.5q-93 0 -197.5 14t-191.5 38l60 275h96z" />
    <glyph glyph-name="T" unicode="T" horiz-adv-x="1175" 
d="M712 0h-421l11 49q39 5 58 15.5t33.5 31.5t29.5 65.5t35 136.5l214 979h-127q-62 0 -99 -18t-74 -67t-90 -164h-96l75 337h1044l-78 -352h-96q0 97 -5 145.5t-19 74t-34.5 35t-72.5 9.5h-148l-217 -986q-9 -39 -12.5 -62t-6 -48.5t-2.5 -45.5q0 -31 10 -48.5t30 -25.5
t69 -12z" />
    <glyph glyph-name="U" unicode="U" horiz-adv-x="1295" 
d="M260 1316l11 49h402l-11 -49q-38 -8 -54.5 -18t-30 -30t-27 -62.5t-34.5 -138.5l-125 -560q-13 -57 -20.5 -108.5t-7.5 -106.5q0 -109 53.5 -165t161.5 -56q102 0 170 42t109 121t69 205l139 629q10 45 16 88t6 73q0 47 -24 65.5t-74 21.5l11 49h380l-11 -49
q-37 -8 -54.5 -18.5t-31 -30.5t-26.5 -63t-34 -137l-130 -599q-39 -179 -110 -285t-177.5 -153t-260.5 -47q-173 0 -265 83.5t-92 243.5q0 56 11.5 128.5t32.5 163.5l104 466q12 53 17.5 94.5t5.5 66.5q0 45 -23 64.5t-76 22.5z" />
    <glyph glyph-name="V" unicode="V" horiz-adv-x="1178" 
d="M615 1365l-11 -49q-44 -5 -68.5 -26t-34.5 -58.5t-10 -100.5q0 -20 1 -42l30 -780v-80h10l433 781q38 69 57 118.5t19 87.5q0 40 -23.5 65.5t-76.5 34.5l11 49h409l-11 -49q-27 -4 -51.5 -20.5t-55 -55t-94.5 -148.5l-640 -1108h-133l-67 1115q-4 65 -14.5 111.5
t-33 72.5t-71.5 33l11 49h414z" />
    <glyph glyph-name="W" unicode="W" horiz-adv-x="1836" 
d="M1051 -13v732q0 178 9 371h-10l-535 -1103h-157l-47 1112q-4 83 -17.5 127t-36.5 64t-65 26l11 49h417l-11 -49q-45 -3 -70.5 -26.5t-35.5 -64t-10 -114.5v-34q0 -18 1 -37l9 -391q1 -43 1 -132v-81l-1 -209h10l553 1138h151v-667q0 -119 -3 -231l-6 -240h10l405 783
q23 44 48.5 103.5t25.5 102.5q0 40 -23.5 65.5t-76.5 34.5l11 49h409l-11 -49q-46 -6 -88 -50.5t-112 -173.5l-601 -1105h-154z" />
    <glyph glyph-name="X" unicode="X" horiz-adv-x="1116" 
d="M640 1365l-11 -49q-43 -7 -68.5 -29.5t-25.5 -65.5q0 -64 33 -161l83 -242l214 271q15 19 29.5 39.5t26 40t17 33.5t8 25t2.5 21q0 27 -16 46t-55 22l11 49h373l-11 -49q-30 -9 -56.5 -29t-63 -60t-135.5 -158l-298 -356l146 -406q33 -92 53 -139q22 -50 38 -73
q13 -17 27 -27q14 -9 47 -19l-10 -49h-404l10 49q46 7 70.5 31.5t24.5 63.5q0 59 -24 131l-104 305l-228 -285q-51 -64 -74 -104.5t-23 -69.5q0 -24 6.5 -38t22 -22.5t42.5 -11.5l-11 -49h-372l10 49q20 7 35.5 15.5t34 24t50 50.5l71.5 82l390 464l-148 411q-22 61 -39 102
t-33.5 65t-34.5 36t-45 17l11 49h404z" />
    <glyph glyph-name="Y" unicode="Y" horiz-adv-x="1122" 
d="M587 1365l-11 -49q-42 -4 -64 -24.5t-22 -63.5q0 -61 28 -160l106 -377l246 329q55 73 79.5 114.5t34.5 73.5q8 24 8 46q0 28 -19 43t-55 19l11 49h375l-11 -49q-24 -5 -41.5 -14.5t-40 -30.5t-61 -67.5l-98.5 -124.5l-389 -505l-62 -283q-9 -40 -12.5 -62.5t-6 -48
t-2.5 -45.5q0 -31 10 -48.5t30 -25.5t69 -12l-11 -49h-421l11 49q40 6 59 16t33.5 31t29 66t34.5 136l59 276l-145 505q-33 116 -52 157t-40.5 58t-56.5 22l11 49h387z" />
    <glyph glyph-name="Z" unicode="Z" horiz-adv-x="1049" 
d="M237 92h320q44 0 72 6t50 18t41 30t38.5 43t43 67t51.5 106h96l-77 -362h-887l10 49l908 1224h-307q-42 0 -67 -4.5t-44 -14t-34 -22t-35.5 -37t-45 -63.5t-56.5 -105h-96l74 338h866l-11 -48z" />
    <glyph glyph-name="Agrave" unicode="&#xc0;" horiz-adv-x="1205" 
d="M678 0l11 49q45 4 70.5 26t36 61t10.5 103q0 39 -3 85l-7 129h-440l-55 -98q-39 -69 -57 -118.5t-18 -87.5q0 -84 101 -100l-11 -49h-409l11 49q31 4 58.5 24.5t58.5 62t87 137.5l641 1108h151l72 -1115q5 -79 18 -123.5t35.5 -66t65.5 -27.5l-11 -49h-416zM401 540h391
l-17 322q-3 66 -5 165t-2 143h-11zM827 1782l192 -257l-58 -59l-326 266l11 50h181z" />
    <glyph glyph-name="Aacute" unicode="&#xc1;" horiz-adv-x="1205" 
d="M678 0l11 49q45 4 70.5 26t36 61t10.5 103q0 39 -3 85l-7 129h-440l-55 -98q-39 -69 -57 -118.5t-18 -87.5q0 -84 101 -100l-11 -49h-409l11 49q31 4 58.5 24.5t58.5 62t87 137.5l641 1108h151l72 -1115q5 -79 18 -123.5t35.5 -66t65.5 -27.5l-11 -49h-416zM401 540h391
l-17 322q-3 66 -5 165t-2 143h-11zM1200 1782l-11 -50l-425 -268l-50 71l268 247h218z" />
    <glyph glyph-name="Acircumflex" unicode="&#xc2;" horiz-adv-x="1205" 
d="M678 0l11 49q45 4 70.5 26t36 61t10.5 103q0 39 -3 85l-7 129h-440l-55 -98q-39 -69 -57 -118.5t-18 -87.5q0 -84 101 -100l-11 -49h-409l11 49q31 4 58.5 24.5t58.5 62t87 137.5l641 1108h151l72 -1115q5 -79 18 -123.5t35.5 -66t65.5 -27.5l-11 -49h-416zM401 540h391
l-17 322q-3 66 -5 165t-2 143h-11zM985 1780l161 -261l-66 -50l-180 182h-10l-263 -183l-52 62l274 250h136z" />
    <glyph glyph-name="Atilde" unicode="&#xc3;" horiz-adv-x="1205" 
d="M678 0l11 49q45 4 70.5 26t36 61t10.5 103q0 39 -3 85l-7 129h-440l-55 -98q-39 -69 -57 -118.5t-18 -87.5q0 -84 101 -100l-11 -49h-409l11 49q31 4 58.5 24.5t58.5 62t87 137.5l641 1108h151l72 -1115q5 -79 18 -123.5t35.5 -66t65.5 -27.5l-11 -49h-416zM401 540h391
l-17 322q-3 66 -5 165t-2 143h-11zM1145 1720l69 -48q-50 -75 -88.5 -116t-70.5 -57t-71 -16q-23 0 -42 6t-35.5 16t-49.5 38q-30 24 -43 33t-25 13.5t-25 4.5q-25 0 -45 -9.5t-44 -34.5t-54 -67l-70 47q61 87 93 122t64.5 51.5t77.5 16.5q16 0 29.5 -3.5t26.5 -9.5t23 -13
t39 -30q41 -34 60.5 -44.5t39.5 -10.5q23 0 43 10t44 34t54 67z" />
    <glyph glyph-name="Adieresis" unicode="&#xc4;" horiz-adv-x="1205" 
d="M678 0l11 49q45 4 70.5 26t36 61t10.5 103q0 39 -3 85l-7 129h-440l-55 -98q-39 -69 -57 -118.5t-18 -87.5q0 -84 101 -100l-11 -49h-409l11 49q31 4 58.5 24.5t58.5 62t87 137.5l641 1108h151l72 -1115q5 -79 18 -123.5t35.5 -66t65.5 -27.5l-11 -49h-416zM401 540h391
l-17 322q-3 66 -5 165t-2 143h-11zM1160 1691l-38 -176h-165l38 176h165zM810 1691l-38 -176h-165l38 176h165z" />
    <glyph glyph-name="Amacron" unicode="&#x100;" horiz-adv-x="1205" 
d="M678 0l11 49q45 4 70.5 26t36 61t10.5 103q0 39 -3 85l-7 129h-440l-55 -98q-39 -69 -57 -118.5t-18 -87.5q0 -84 101 -100l-11 -49h-409l11 49q31 4 58.5 24.5t58.5 62t87 137.5l641 1108h151l72 -1115q5 -79 18 -123.5t35.5 -66t65.5 -27.5l-11 -49h-416zM401 540h391
l-17 322q-3 66 -5 165t-2 143h-11zM1135 1538h-530l26 125h530z" />
    <glyph glyph-name="Abreve" unicode="&#x102;" horiz-adv-x="1205" 
d="M678 0l11 49q45 4 70.5 26t36 61t10.5 103q0 39 -3 85l-7 129h-440l-55 -98q-39 -69 -57 -118.5t-18 -87.5q0 -84 101 -100l-11 -49h-409l11 49q31 4 58.5 24.5t58.5 62t87 137.5l641 1108h151l72 -1115q5 -79 18 -123.5t35.5 -66t65.5 -27.5l-11 -49h-416zM401 540h391
l-17 322q-3 66 -5 165t-2 143h-11zM1217 1748q-61 -93 -118 -149t-118 -81.5t-146 -25.5q-72 0 -120.5 37.5t-72 103.5t-23.5 150l81 15q8 -92 47.5 -135.5t111.5 -43.5q58 0 101.5 14.5t89 52t96.5 104.5z" />
    <glyph glyph-name="Aring" unicode="&#xc5;" horiz-adv-x="1205" 
d="M678 0l11 49q45 4 70.5 26t36 61t10.5 103q0 39 -3 85l-7 129h-440l-55 -98q-39 -69 -57 -118.5t-18 -87.5q0 -84 101 -100l-11 -49h-409l11 49q31 4 58.5 24.5t58.5 62t87 137.5l641 1108h151l72 -1115q5 -79 18 -123.5t35.5 -66t65.5 -27.5l-11 -49h-416zM401 540h391
l-17 322q-3 66 -5 165t-2 143h-11zM844 1424q-86 0 -132.5 38.5t-46.5 109.5q0 46 16.5 94t53.5 84.5t87.5 55.5t107.5 19q90 0 135.5 -38.5t45.5 -110.5q0 -66 -31 -126t-92 -93t-144 -33zM766 1578q0 -42 21.5 -67t67.5 -25q48 0 84 28.5t53.5 72.5t17.5 85q0 44 -23 67.5
t-65 23.5q-43 0 -79 -25t-56.5 -68t-20.5 -92z" />
    <glyph glyph-name="Aringacute" unicode="&#x1fa;" horiz-adv-x="1205" 
d="M1225 1945l-11 -50l-413 -212l-40 79l246 183h218zM920 1273l66 -1007q5 -82 18.5 -126t36 -64.5t64.5 -26.5l-11 -49h-416l11 49q45 4 70.5 26t36 61t10.5 103q0 39 -3 85l-7 129h-440l-55 -98q-39 -69 -57 -118.5t-18 -87.5q0 -84 101 -100l-11 -49h-409l11 49
q31 4 58.5 24.5t58.5 62t87 137.5l582 1005q-71 36 -71 126q0 46 16.5 94t53.5 84.5t87.5 55.5t107.5 19q90 0 135.5 -38.5t45.5 -110.5q0 -49 -18.5 -98t-54.5 -84t-86 -53zM734 1410q0 -42 21.5 -67t67.5 -25q48 0 84 28.5t53.5 72.5t17.5 85q0 44 -23 67.5t-65 23.5
q-43 0 -79 -25t-56.5 -68t-20.5 -92zM401 540h391l-17 322q-3 66 -5 165t-2 143h-11zM823 1381z" />
    <glyph glyph-name="Aogonek" unicode="&#x104;" horiz-adv-x="1205" 
d="M987 0q-111 -85 -155.5 -144t-44.5 -111q0 -48 20 -66.5t62 -18.5q33 0 61.5 10.5t50.5 23.5l16 -68q-36 -25 -83 -40.5t-86 -15.5q-87 0 -130 38.5t-43 118.5q0 66 60.5 136t175.5 137h-213l11 49q45 4 70.5 26t36 61t10.5 103q0 39 -3 85l-7 129h-440l-55 -98
q-39 -69 -57 -118.5t-18 -87.5q0 -84 101 -100l-11 -49h-409l11 49q31 4 58.5 24.5t58.5 62t87 137.5l641 1108h151l72 -1115q5 -79 18 -123.5t35.5 -66t65.5 -27.5l-11 -49h-107zM401 540h391l-17 322q-3 66 -5 165t-2 143h-11z" />
    <glyph glyph-name="AE" unicode="&#xc6;" horiz-adv-x="1709" 
d="M1700 1058h-96q-3 72 -11 112.5t-18 60t-23 29t-32.5 13.5t-55.5 4h-350l-81 -524h182q44 0 73.5 12t54.5 41.5t56 90.5h91l-90 -384h-85q0 55 -4 81t-10.5 38.5t-16.5 19.5t-26 10t-53 3h-185l-89 -577h242q44 0 74.5 6.5t55.5 22.5t48 41.5t47.5 65.5t66.5 122h97
l-88 -346h-833l11 49q42 7 65.5 25t38 56.5t26.5 119.5l30 203h-404l-70 -98q-66 -92 -89 -136t-23 -80q0 -34 25 -58t71 -32l-10 -49h-414l11 49q40 5 92.5 54t139.5 170l774 1092h854zM826 540l72 461l29 162q5 27 10 48h-9l-465 -671h363z" />
    <glyph glyph-name="AEacute" unicode="&#x1fc;" horiz-adv-x="1709" 
d="M1700 1058h-96q-3 72 -11 112.5t-18 60t-23 29t-32.5 13.5t-55.5 4h-350l-81 -524h182q44 0 73.5 12t54.5 41.5t56 90.5h91l-90 -384h-85q0 55 -4 81t-10.5 38.5t-16.5 19.5t-26 10t-53 3h-185l-89 -577h242q44 0 74.5 6.5t55.5 22.5t48 41.5t47.5 65.5t66.5 122h97
l-88 -346h-833l11 49q42 7 65.5 25t38 56.5t26.5 119.5l30 203h-404l-70 -98q-66 -92 -89 -136t-23 -80q0 -34 25 -58t71 -32l-10 -49h-414l11 49q40 5 92.5 54t139.5 170l774 1092h854zM826 540l72 461l29 162q5 27 10 48h-9l-465 -671h363zM1640 1782l-11 -50l-425 -268
l-50 71l268 247h218z" />
    <glyph glyph-name="Cacute" unicode="&#x106;" horiz-adv-x="1105" 
d="M1184 1330l-60 -271h-96q-8 123 -53.5 177.5t-146.5 54.5q-84 0 -158 -49.5t-140 -143t-115 -219t-75 -256t-26 -235.5q0 -163 53.5 -239.5t167.5 -76.5q75 0 131 22.5t105 76t97 149.5h96l-61 -284q-102 -28 -197 -40t-195 -12q-124 0 -211 51.5t-131 149t-44 234.5
q0 72 10 140q12 84 38 183q33 123 83 224q54 107 123 189q65 76 141 127q70 47 151 73t172 26t168.5 -11t172.5 -40zM1182 1782l-11 -50l-425 -268l-50 71l268 247h218z" />
    <glyph glyph-name="Ccircumflex" unicode="&#x108;" horiz-adv-x="1105" 
d="M1184 1330l-60 -271h-96q-8 123 -53.5 177.5t-146.5 54.5q-84 0 -158 -49.5t-140 -143t-115 -219t-75 -256t-26 -235.5q0 -163 53.5 -239.5t167.5 -76.5q75 0 131 22.5t105 76t97 149.5h96l-61 -284q-102 -28 -197 -40t-195 -12q-124 0 -211 51.5t-131 149t-44 234.5
q0 72 10 140q12 84 38 183q33 123 83 224q54 107 123 189q65 76 141 127q70 47 151 73t172 26t168.5 -11t172.5 -40zM972 1780l161 -261l-66 -50l-180 182h-10l-263 -183l-52 62l274 250h136z" />
    <glyph glyph-name="Ccaron" unicode="&#x10c;" horiz-adv-x="1105" 
d="M1184 1330l-60 -271h-96q-8 123 -53.5 177.5t-146.5 54.5q-84 0 -158 -49.5t-140 -143t-115 -219t-75 -256t-26 -235.5q0 -163 53.5 -239.5t167.5 -76.5q75 0 131 22.5t105 76t97 149.5h96l-61 -284q-102 -28 -197 -40t-195 -12q-124 0 -211 51.5t-131 149t-44 234.5
q0 72 10 140q12 84 38 183q33 123 83 224q54 107 123 189q65 76 141 127q70 47 151 73t172 26t168.5 -11t172.5 -40zM767 1468l-161 261l66 50l180 -182h10l263 183l52 -62l-274 -250h-136z" />
    <glyph glyph-name="Cdotaccent" unicode="&#x10a;" horiz-adv-x="1105" 
d="M1184 1330l-60 -271h-96q-8 123 -53.5 177.5t-146.5 54.5q-84 0 -158 -49.5t-140 -143t-115 -219t-75 -256t-26 -235.5q0 -163 53.5 -239.5t167.5 -76.5q75 0 131 22.5t105 76t97 149.5h96l-61 -284q-102 -28 -197 -40t-195 -12q-124 0 -211 51.5t-131 149t-44 234.5
q0 72 10 140q12 84 38 183q33 123 83 224q54 107 123 189q65 76 141 127q70 47 151 73t172 26t168.5 -11t172.5 -40zM977 1699l-46 -194h-177l46 194h177z" />
    <glyph glyph-name="Ccedilla" unicode="&#xc7;" horiz-adv-x="1105" 
d="M1184 1330l-60 -271h-96q-8 123 -53.5 177.5t-146.5 54.5q-84 0 -158 -49.5t-140 -143t-115 -219t-75 -256t-26 -235.5q0 -163 53.5 -239.5t167.5 -76.5q75 0 131 22.5t105 76t97 149.5h96l-61 -284q-134 -36 -257 -46l-114 -77q4 -14 4 -49q0 -125 -94.5 -202.5
t-267.5 -91.5v76q96 8 148.5 58t54.5 145l7 34l161 101h-34q-124 0 -211 51.5t-131 149t-44 234.5q0 72 10 140q12 84 38 183q33 123 83 224q54 107 123 189q65 76 141 127q70 47 151 73t172 26t168.5 -11t172.5 -40z" />
    <glyph glyph-name="Dcaron" unicode="&#x10e;" horiz-adv-x="1324" 
d="M683 1365q151 0 245 -23t175.5 -83t122.5 -159.5t41 -235.5q0 -135 -31 -258t-89 -226.5t-139 -180t-157 -117.5t-170 -61.5t-219 -20.5h-420l11 49q38 6 57 19.5t32 37.5t24 58.5t33 133.5l170 770q10 46 16 88.5t6 72.5q0 47 -24 65.5t-74 21.5l11 49h379zM332 92
q29 -3 111 -3q101 0 183.5 22t152 70.5t126.5 129.5t92.5 164.5t55.5 179.5t20 203q0 209 -97.5 314.5t-289.5 105.5q-44 0 -95 -3zM797 1468l-161 261l66 50l180 -182h10l263 183l52 -62l-274 -250h-136z" />
    <glyph glyph-name="Dcroat" unicode="&#x110;" horiz-adv-x="1330" 
d="M122 761h185l68 307q10 45 16 88t6 73q0 47 -24 65.5t-74 21.5l11 49h379q151 0 245 -23t175.5 -83t122.5 -159.5t41 -235.5q0 -135 -31 -258t-89 -226.5t-139 -180t-157 -117.5t-170 -61.5t-219 -20.5h-420l11 49q38 6 57 19.5t32 37.5t24 58.5t33 133.5l82 371h-185z
M484 761h304l-20 -92h-304l-126 -577q29 -3 111 -3q101 0 183.5 22t152 70.5t126.5 129.5t92.5 164.5t55.5 179.5t20 203q0 209 -97.5 314.5t-289.5 105.5q-44 0 -95 -3z" />
    <glyph glyph-name="Egrave" unicode="&#xc8;" horiz-adv-x="1164" 
d="M1224 1365l-69 -307h-96q-3 72 -11 112.5t-18 60t-23 29t-32.5 13.5t-55.5 4h-326l-114 -524h191q44 0 73.5 12t54.5 41.5t56 90.5h91l-90 -384h-85q0 55 -4 81t-10.5 38.5t-16.5 19.5t-26 10t-53 3h-200l-128 -577h296q44 0 74.5 6.5t55.5 22.5t48 41.5t47.5 65.5
t66.5 122h97l-88 -346h-887l11 49q38 6 57 19.5t32 37.5t24 58.5t33 133.5l170 770q22 100 22 161q0 47 -24 65.5t-74 21.5l11 49h920zM769 1782l192 -257l-58 -59l-326 266l11 50h181z" />
    <glyph glyph-name="Eacute" unicode="&#xc9;" horiz-adv-x="1164" 
d="M1224 1365l-69 -307h-96q-3 72 -11 112.5t-18 60t-23 29t-32.5 13.5t-55.5 4h-326l-114 -524h191q44 0 73.5 12t54.5 41.5t56 90.5h91l-90 -384h-85q0 55 -4 81t-10.5 38.5t-16.5 19.5t-26 10t-53 3h-200l-128 -577h296q44 0 74.5 6.5t55.5 22.5t48 41.5t47.5 65.5
t66.5 122h97l-88 -346h-887l11 49q38 6 57 19.5t32 37.5t24 58.5t33 133.5l170 770q22 100 22 161q0 47 -24 65.5t-74 21.5l11 49h920zM1156 1782l-11 -50l-425 -268l-50 71l268 247h218z" />
    <glyph glyph-name="Ecircumflex" unicode="&#xca;" horiz-adv-x="1164" 
d="M1224 1365l-69 -307h-96q-3 72 -11 112.5t-18 60t-23 29t-32.5 13.5t-55.5 4h-326l-114 -524h191q44 0 73.5 12t54.5 41.5t56 90.5h91l-90 -384h-85q0 55 -4 81t-10.5 38.5t-16.5 19.5t-26 10t-53 3h-200l-128 -577h296q44 0 74.5 6.5t55.5 22.5t48 41.5t47.5 65.5
t66.5 122h97l-88 -346h-887l11 49q38 6 57 19.5t32 37.5t24 58.5t33 133.5l170 770q22 100 22 161q0 47 -24 65.5t-74 21.5l11 49h920zM947 1780l161 -261l-66 -50l-180 182h-10l-263 -183l-52 62l274 250h136z" />
    <glyph glyph-name="Ecaron" unicode="&#x11a;" horiz-adv-x="1164" 
d="M1224 1365l-69 -307h-96q-3 72 -11 112.5t-18 60t-23 29t-32.5 13.5t-55.5 4h-326l-114 -524h191q44 0 73.5 12t54.5 41.5t56 90.5h91l-90 -384h-85q0 55 -4 81t-10.5 38.5t-16.5 19.5t-26 10t-53 3h-200l-128 -577h296q44 0 74.5 6.5t55.5 22.5t48 41.5t47.5 65.5
t66.5 122h97l-88 -346h-887l11 49q38 6 57 19.5t32 37.5t24 58.5t33 133.5l170 770q22 100 22 161q0 47 -24 65.5t-74 21.5l11 49h920zM742 1468l-161 261l66 50l180 -182h10l263 183l52 -62l-274 -250h-136z" />
    <glyph glyph-name="Edieresis" unicode="&#xcb;" horiz-adv-x="1164" 
d="M1224 1365l-69 -307h-96q-3 72 -11 112.5t-18 60t-23 29t-32.5 13.5t-55.5 4h-326l-114 -524h191q44 0 73.5 12t54.5 41.5t56 90.5h91l-90 -384h-85q0 55 -4 81t-10.5 38.5t-16.5 19.5t-26 10t-53 3h-200l-128 -577h296q44 0 74.5 6.5t55.5 22.5t48 41.5t47.5 65.5
t66.5 122h97l-88 -346h-887l11 49q38 6 57 19.5t32 37.5t24 58.5t33 133.5l170 770q22 100 22 161q0 47 -24 65.5t-74 21.5l11 49h920zM1116 1691l-38 -176h-165l38 176h165zM766 1691l-38 -176h-165l38 176h165z" />
    <glyph glyph-name="Emacron" unicode="&#x112;" horiz-adv-x="1164" 
d="M1224 1365l-69 -307h-96q-3 72 -11 112.5t-18 60t-23 29t-32.5 13.5t-55.5 4h-326l-114 -524h191q44 0 73.5 12t54.5 41.5t56 90.5h91l-90 -384h-85q0 55 -4 81t-10.5 38.5t-16.5 19.5t-26 10t-53 3h-200l-128 -577h296q44 0 74.5 6.5t55.5 22.5t48 41.5t47.5 65.5
t66.5 122h97l-88 -346h-887l11 49q38 6 57 19.5t32 37.5t24 58.5t33 133.5l170 770q22 100 22 161q0 47 -24 65.5t-74 21.5l11 49h920zM1101 1538h-530l26 125h530z" />
    <glyph glyph-name="Ebreve" unicode="&#x114;" horiz-adv-x="1164" 
d="M1224 1365l-69 -307h-96q-3 72 -11 112.5t-18 60t-23 29t-32.5 13.5t-55.5 4h-326l-114 -524h191q44 0 73.5 12t54.5 41.5t56 90.5h91l-90 -384h-85q0 55 -4 81t-10.5 38.5t-16.5 19.5t-26 10t-53 3h-200l-128 -577h296q44 0 74.5 6.5t55.5 22.5t48 41.5t47.5 65.5
t66.5 122h97l-88 -346h-887l11 49q38 6 57 19.5t32 37.5t24 58.5t33 133.5l170 770q22 100 22 161q0 47 -24 65.5t-74 21.5l11 49h920zM1183 1748q-61 -93 -118 -149t-118 -81.5t-146 -25.5q-72 0 -120.5 37.5t-72 103.5t-23.5 150l81 15q8 -92 47.5 -135.5t111.5 -43.5
q58 0 101.5 14.5t89 52t96.5 104.5z" />
    <glyph glyph-name="Edotaccent" unicode="&#x116;" horiz-adv-x="1164" 
d="M1224 1365l-69 -307h-96q-3 72 -11 112.5t-18 60t-23 29t-32.5 13.5t-55.5 4h-326l-114 -524h191q44 0 73.5 12t54.5 41.5t56 90.5h91l-90 -384h-85q0 55 -4 81t-10.5 38.5t-16.5 19.5t-26 10t-53 3h-200l-128 -577h296q44 0 74.5 6.5t55.5 22.5t48 41.5t47.5 65.5
t66.5 122h97l-88 -346h-887l11 49q38 6 57 19.5t32 37.5t24 58.5t33 133.5l170 770q22 100 22 161q0 47 -24 65.5t-74 21.5l11 49h920zM951 1699l-46 -194h-177l46 194h177z" />
    <glyph glyph-name="Eogonek" unicode="&#x118;" horiz-adv-x="1164" 
d="M1224 1365l-69 -307h-96q-3 72 -11 112.5t-18 60t-23 29t-32.5 13.5t-55.5 4h-326l-114 -524h191q44 0 73.5 12t54.5 41.5t56 90.5h91l-90 -384h-85q0 55 -4 81t-10.5 38.5t-16.5 19.5t-26 10t-53 3h-200l-128 -577h296q44 0 74.5 6.5t55.5 22.5t48 41.5t47.5 65.5
t66.5 122h97l-88 -346h-80q-111 -85 -155.5 -144t-44.5 -111q0 -48 20 -66.5t62 -18.5q33 0 61.5 10.5t50.5 23.5l16 -68q-36 -25 -83 -40.5t-86 -15.5q-87 0 -130 38.5t-43 118.5q0 66 60.5 136t175.5 137h-711l11 49q38 6 57 19.5t32 37.5t24 58.5t33 133.5l170 770
q22 100 22 161q0 47 -24 65.5t-74 21.5l11 49h920z" />
    <glyph glyph-name="Gcircumflex" unicode="&#x11c;" horiz-adv-x="1198" 
d="M816 320q22 94 22 161q0 47 -24 65.5t-74 21.5l11 49h400l-11 -49q-34 -8 -48.5 -15t-25.5 -19.5t-22 -34.5t-22.5 -63.5t-27.5 -116.5l-69 -314l-79 -22l-52 79q-72 -34 -112 -48t-83 -22t-91 -8q-123 0 -209.5 52t-130 148.5t-43.5 228.5q0 107 22 219q25 127 67 237
q40 106 92.5 189.5t117.5 148.5q57 56 125 95t143 59t158 20q95 0 174 -11.5t173 -41.5l-61 -269h-96q-7 87 -29.5 137.5t-65 73.5t-110.5 23q-84 0 -155 -44.5t-136.5 -130.5t-119 -217t-82 -267t-28.5 -246q0 -162 53.5 -239.5t164.5 -77.5q41 0 84 9.5t80.5 32.5t66.5 62
t42 98zM959 1780l161 -261l-66 -50l-180 182h-10l-263 -183l-52 62l274 250h136z" />
    <glyph glyph-name="Gbreve" unicode="&#x11e;" horiz-adv-x="1198" 
d="M816 320q22 94 22 161q0 47 -24 65.5t-74 21.5l11 49h400l-11 -49q-34 -8 -48.5 -15t-25.5 -19.5t-22 -34.5t-22.5 -63.5t-27.5 -116.5l-69 -314l-79 -22l-52 79q-72 -34 -112 -48t-83 -22t-91 -8q-123 0 -209.5 52t-130 148.5t-43.5 228.5q0 107 22 219q25 127 67 237
q40 106 92.5 189.5t117.5 148.5q57 56 125 95t143 59t158 20q95 0 174 -11.5t173 -41.5l-61 -269h-96q-7 87 -29.5 137.5t-65 73.5t-110.5 23q-84 0 -155 -44.5t-136.5 -130.5t-119 -217t-82 -267t-28.5 -246q0 -162 53.5 -239.5t164.5 -77.5q41 0 84 9.5t80.5 32.5t66.5 62
t42 98zM1186 1748q-61 -93 -118 -149t-118 -81.5t-146 -25.5q-72 0 -120.5 37.5t-72 103.5t-23.5 150l81 15q8 -92 47.5 -135.5t111.5 -43.5q58 0 101.5 14.5t89 52t96.5 104.5z" />
    <glyph glyph-name="Gdotaccent" unicode="&#x120;" horiz-adv-x="1198" 
d="M816 320q22 94 22 161q0 47 -24 65.5t-74 21.5l11 49h400l-11 -49q-34 -8 -48.5 -15t-25.5 -19.5t-22 -34.5t-22.5 -63.5t-27.5 -116.5l-69 -314l-79 -22l-52 79q-72 -34 -112 -48t-83 -22t-91 -8q-123 0 -209.5 52t-130 148.5t-43.5 228.5q0 107 22 219q25 127 67 237
q40 106 92.5 189.5t117.5 148.5q57 56 125 95t143 59t158 20q95 0 174 -11.5t173 -41.5l-61 -269h-96q-7 87 -29.5 137.5t-65 73.5t-110.5 23q-84 0 -155 -44.5t-136.5 -130.5t-119 -217t-82 -267t-28.5 -246q0 -162 53.5 -239.5t164.5 -77.5q41 0 84 9.5t80.5 32.5t66.5 62
t42 98zM963 1699l-46 -194h-177l46 194h177z" />
    <glyph glyph-name="Gcommaaccent" unicode="&#x122;" horiz-adv-x="1198" 
d="M816 320q22 94 22 161q0 47 -24 65.5t-74 21.5l11 49h400l-11 -49q-34 -8 -48.5 -15t-25.5 -19.5t-22 -34.5t-22.5 -63.5t-27.5 -116.5l-69 -314l-79 -22l-52 79q-72 -34 -112 -48t-83 -22t-91 -8q-123 0 -209.5 52t-130 148.5t-43.5 228.5q0 107 22 219q25 127 67 237
q40 106 92.5 189.5t117.5 148.5q57 56 125 95t143 59t158 20q95 0 174 -11.5t173 -41.5l-61 -269h-96q-7 87 -29.5 137.5t-65 73.5t-110.5 23q-84 0 -155 -44.5t-136.5 -130.5t-119 -217t-82 -267t-28.5 -246q0 -162 53.5 -239.5t164.5 -77.5q41 0 84 9.5t80.5 32.5t66.5 62
t42 98zM584 -99q1 -8 1 -16v-15q0 -131 -93 -209t-266 -91v76q77 6 124 38.5t67.5 83.5t22.5 133h144z" />
    <glyph glyph-name="Hcircumflex" unicode="&#x124;" horiz-adv-x="1370" 
d="M1091 291q-13 -59 -17 -93.5t-4 -62.5q0 -45 22.5 -63.5t75.5 -22.5l-11 -49h-400l11 49q38 6 57 19.5t32 37.5t24 58.5t33 133.5l82 371h-537l-83 -378q-8 -37 -12.5 -60.5t-6.5 -46t-2 -49.5q0 -43 20 -62t78 -24l-11 -49h-400l11 49q38 6 57 19.5t32 37.5t24 58.5
t33 133.5l170 770q9 41 15.5 87.5t6.5 73.5q0 47 -24 65.5t-74 21.5l11 49h400l-11 -49q-38 -8 -54.5 -18t-30 -30t-27 -62.5t-34.5 -138.5l-68 -306h537l68 307q9 41 15.5 87.5t6.5 73.5q0 47 -24 65.5t-74 21.5l11 49h400l-11 -49q-34 -8 -48 -15t-25.5 -19t-22 -34.5
t-22.5 -66t-28 -114.5zM1040 1780l161 -261l-66 -50l-180 182h-10l-263 -183l-52 62l274 250h136z" />
    <glyph glyph-name="Hbar" unicode="&#x126;" horiz-adv-x="1379" 
d="M1100 291q-13 -59 -17 -93.5t-4 -62.5q0 -45 22.5 -63.5t75.5 -22.5l-11 -49h-400l11 49q38 6 57 19.5t32 37.5t24 58.5t33 133.5l46 206h-546l-47 -213q-11 -49 -16 -82t-5 -74q0 -43 20 -62t78 -24l-11 -49h-400l11 49q38 6 57 19.5t32 37.5t24 58.5t33 133.5l170 770
q9 41 15.5 87.5t6.5 73.5q0 47 -24 65.5t-74 21.5l11 49h400l-11 -49q-38 -8 -54.5 -18t-30 -30t-27 -62.5t-34.5 -138.5l-31 -141h545l32 142q8 37 15 85t7 76q0 47 -24 65.5t-74 21.5l11 49h400l-11 -49q-38 -8 -54.5 -18t-30 -30t-27 -62.5t-34.5 -138.5zM989 596l52 238
h-546l-52 -238h546z" />
    <glyph glyph-name="Igrave" unicode="&#xcc;" horiz-adv-x="656" 
d="M376 291q-13 -59 -17 -93.5t-4 -62.5q0 -45 22.5 -63.5t75.5 -22.5l-11 -49h-400l11 49q38 6 57 19.5t32 37.5t24 58.5t33 133.5l170 770q10 46 16 88.5t6 72.5q0 47 -24 65.5t-74 21.5l11 49h400l-11 -49q-38 -8 -54.5 -18t-30 -30t-27 -62.5t-34.5 -138.5zM505 1782
l192 -257l-58 -59l-326 266l11 50h181z" />
    <glyph glyph-name="Iacute" unicode="&#xcd;" horiz-adv-x="656" 
d="M376 291q-13 -59 -17 -93.5t-4 -62.5q0 -45 22.5 -63.5t75.5 -22.5l-11 -49h-400l11 49q38 6 57 19.5t32 37.5t24 58.5t33 133.5l170 770q10 46 16 88.5t6 72.5q0 47 -24 65.5t-74 21.5l11 49h400l-11 -49q-38 -8 -54.5 -18t-30 -30t-27 -62.5t-34.5 -138.5zM893 1782
l-11 -50l-425 -268l-50 71l268 247h218z" />
    <glyph glyph-name="Icircumflex" unicode="&#xce;" horiz-adv-x="656" 
d="M376 291q-13 -59 -17 -93.5t-4 -62.5q0 -45 22.5 -63.5t75.5 -22.5l-11 -49h-400l11 49q38 6 57 19.5t32 37.5t24 58.5t33 133.5l170 770q10 46 16 88.5t6 72.5q0 47 -24 65.5t-74 21.5l11 49h400l-11 -49q-38 -8 -54.5 -18t-30 -30t-27 -62.5t-34.5 -138.5zM683 1780
l161 -261l-66 -50l-180 182h-10l-263 -183l-52 62l274 250h136z" />
    <glyph glyph-name="Itilde" unicode="&#x128;" horiz-adv-x="656" 
d="M376 291q-13 -59 -17 -93.5t-4 -62.5q0 -45 22.5 -63.5t75.5 -22.5l-11 -49h-400l11 49q38 6 57 19.5t32 37.5t24 58.5t33 133.5l170 770q10 46 16 88.5t6 72.5q0 47 -24 65.5t-74 21.5l11 49h400l-11 -49q-38 -8 -54.5 -18t-30 -30t-27 -62.5t-34.5 -138.5zM838 1720
l69 -48q-50 -75 -88.5 -116t-70.5 -57t-71 -16q-23 0 -42 6t-35.5 16t-49.5 38q-30 24 -43 33t-25 13.5t-25 4.5q-25 0 -45 -9.5t-44 -34.5t-54 -67l-70 47q61 87 93 122t64.5 51.5t77.5 16.5q16 0 29.5 -3.5t26.5 -9.5t23 -13t39 -30q41 -34 60.5 -44.5t39.5 -10.5
q23 0 43 10t44 34t54 67z" />
    <glyph glyph-name="Idieresis" unicode="&#xcf;" horiz-adv-x="656" 
d="M376 291q-13 -59 -17 -93.5t-4 -62.5q0 -45 22.5 -63.5t75.5 -22.5l-11 -49h-400l11 49q38 6 57 19.5t32 37.5t24 58.5t33 133.5l170 770q10 46 16 88.5t6 72.5q0 47 -24 65.5t-74 21.5l11 49h400l-11 -49q-38 -8 -54.5 -18t-30 -30t-27 -62.5t-34.5 -138.5zM852 1691
l-38 -176h-165l38 176h165zM502 1691l-38 -176h-165l38 176h165z" />
    <glyph glyph-name="Imacron" unicode="&#x12a;" horiz-adv-x="656" 
d="M376 291q-13 -59 -17 -93.5t-4 -62.5q0 -45 22.5 -63.5t75.5 -22.5l-11 -49h-400l11 49q38 6 57 19.5t32 37.5t24 58.5t33 133.5l170 770q10 46 16 88.5t6 72.5q0 47 -24 65.5t-74 21.5l11 49h400l-11 -49q-38 -8 -54.5 -18t-30 -30t-27 -62.5t-34.5 -138.5zM827 1538
h-530l26 125h530z" />
    <glyph glyph-name="Ibreve" unicode="&#x12c;" horiz-adv-x="656" 
d="M376 291q-13 -59 -17 -93.5t-4 -62.5q0 -45 22.5 -63.5t75.5 -22.5l-11 -49h-400l11 49q38 6 57 19.5t32 37.5t24 58.5t33 133.5l170 770q10 46 16 88.5t6 72.5q0 47 -24 65.5t-74 21.5l11 49h400l-11 -49q-38 -8 -54.5 -18t-30 -30t-27 -62.5t-34.5 -138.5zM910 1748
q-61 -93 -118 -149t-118 -81.5t-146 -25.5q-72 0 -120.5 37.5t-72 103.5t-23.5 150l81 15q8 -92 47.5 -135.5t111.5 -43.5q58 0 101.5 14.5t89 52t96.5 104.5z" />
    <glyph glyph-name="Idotaccent" unicode="&#x130;" horiz-adv-x="656" 
d="M376 291q-13 -59 -17 -93.5t-4 -62.5q0 -45 22.5 -63.5t75.5 -22.5l-11 -49h-400l11 49q38 6 57 19.5t32 37.5t24 58.5t33 133.5l170 770q10 46 16 88.5t6 72.5q0 47 -24 65.5t-74 21.5l11 49h400l-11 -49q-38 -8 -54.5 -18t-30 -30t-27 -62.5t-34.5 -138.5zM687 1699
l-46 -194h-177l46 194h177z" />
    <glyph glyph-name="Iogonek" unicode="&#x12e;" horiz-adv-x="656" 
d="M376 291q-13 -59 -17 -93.5t-4 -62.5q0 -45 22.5 -63.5t75.5 -22.5l-11 -49h-53q-111 -85 -155.5 -144t-44.5 -111q0 -48 20 -66.5t62 -18.5q33 0 61.5 10.5t50.5 23.5l16 -68q-36 -25 -83 -40.5t-86 -15.5q-87 0 -130 38.5t-43 118.5q0 66 60.5 136t175.5 137h-251
l11 49q38 6 57 19.5t32 37.5t24 58.5t33 133.5l170 770q10 46 16 88.5t6 72.5q0 47 -24 65.5t-74 21.5l11 49h400l-11 -49q-38 -8 -54.5 -18t-30 -30t-27 -62.5t-34.5 -138.5z" />
    <glyph glyph-name="IJ" unicode="&#x132;" horiz-adv-x="1269" 
d="M376 291q-13 -59 -17 -93.5t-4 -62.5q0 -45 22.5 -63.5t75.5 -22.5l-11 -49h-400l11 49q38 6 57 19.5t32 37.5t24 58.5t33 133.5l170 770q10 46 16 88.5t6 72.5q0 47 -24 65.5t-74 21.5l11 49h400l-11 -49q-38 -8 -54.5 -18t-30 -30t-27 -62.5t-34.5 -138.5zM957 43
q-34 -156 -87 -248.5t-137.5 -137t-207.5 -44.5q-27 0 -53 2.5t-42 7.5l26 96q16 -5 35.5 -6.5t40.5 -1.5q58 0 100.5 27t77 93.5t60.5 182.5l234 1054q10 44 16 87.5t6 73.5q0 47 -24 65.5t-74 21.5l11 49h400l-11 -49q-38 -8 -54.5 -18t-30 -30t-27 -62.5t-34.5 -138.5z
" />
    <glyph glyph-name="Jcircumflex" unicode="&#x134;" horiz-adv-x="613" 
d="M301 43q-34 -156 -87 -248.5t-137.5 -137t-207.5 -44.5q-27 0 -53 2.5t-42 7.5l26 96q16 -5 35.5 -6.5t40.5 -1.5q58 0 100.5 27t77 93.5t60.5 182.5l234 1054q10 44 16 87.5t6 73.5q0 47 -24 65.5t-74 21.5l11 49h400l-11 -49q-38 -8 -54.5 -18t-30 -30t-27 -62.5
t-34.5 -138.5zM656 1780l161 -261l-66 -50l-180 182h-10l-263 -183l-52 62l274 250h136z" />
    <glyph glyph-name="Kcommaaccent" unicode="&#x136;" horiz-adv-x="1235" 
d="M476 748h33q42 0 76.5 14t80.5 51t146.5 136t143 150.5t62 89t19.5 68.5q0 25 -20 40.5t-57 18.5l11 49h429l-11 -49q-40 -6 -90.5 -41.5t-154.5 -138.5l-388 -378l213 -512q27 -65 43.5 -95.5t35.5 -51t43 -33t58 -17.5l-11 -49h-386l11 49q54 5 54 48q0 13 -2.5 27
t-11 41t-23.5 65l-130 318q-23 57 -40 80t-36 32t-59 9h-56l-83 -378q-13 -60 -17 -94.5t-4 -61.5q0 -45 22.5 -63.5t75.5 -22.5l-11 -49h-400l11 49q38 6 57 19.5t32 37.5t24 58.5t33 133.5l170 770q10 46 16 88.5t6 72.5q0 47 -24 65.5t-74 21.5l11 49h400l-11 -49
q-38 -8 -54.5 -18t-30 -30t-27 -62.5t-34.5 -138.5zM622 -99q1 -8 1 -16v-15q0 -131 -93 -209t-266 -91v76q77 6 124 38.5t67.5 83.5t22.5 133h144z" />
    <glyph glyph-name="Lacute" unicode="&#x139;" horiz-adv-x="1071" 
d="M53 49q38 6 57 19.5t32 37.5t24 58.5t33 133.5l170 770q10 46 16 88.5t6 72.5q0 47 -24 65.5t-74 21.5l11 49h400l-11 -49q-38 -8 -54.5 -18t-30 -30t-27 -62.5t-34.5 -138.5l-214 -975h246q67 0 105.5 13t73 47.5t67.5 93.5t67 147h97l-101 -393h-846zM1070 1782
l-11 -50l-425 -268l-50 71l268 247h218z" />
    <glyph glyph-name="Lcaron" unicode="&#x13d;" horiz-adv-x="1071" 
d="M53 49q38 6 57 19.5t32 37.5t24 58.5t33 133.5l170 770q10 46 16 88.5t6 72.5q0 47 -24 65.5t-74 21.5l11 49h400l-11 -49q-38 -8 -54.5 -18t-30 -30t-27 -62.5t-34.5 -138.5l-214 -975h246q67 0 105.5 13t73 47.5t67.5 93.5t67 147h97l-101 -393h-846zM1064 1431
q2 -10 2 -49q0 -70 -14.5 -121t-43 -92t-73 -81t-132.5 -105l-47 62q77 63 115.5 155t38.5 231h154z" />
    <glyph glyph-name="Lcommaaccent" unicode="&#x13b;" horiz-adv-x="1071" 
d="M53 49q38 6 57 19.5t32 37.5t24 58.5t33 133.5l170 770q10 46 16 88.5t6 72.5q0 47 -24 65.5t-74 21.5l11 49h400l-11 -49q-38 -8 -54.5 -18t-30 -30t-27 -62.5t-34.5 -138.5l-214 -975h246q67 0 105.5 13t73 47.5t67.5 93.5t67 147h97l-101 -393h-846zM535 -99
q1 -8 1 -16v-15q0 -131 -93 -209t-266 -91v76q77 6 124 38.5t67.5 83.5t22.5 133h144z" />
    <glyph glyph-name="Lslash" unicode="&#x141;" horiz-adv-x="1077" 
d="M474 710l-135 -618h246q67 0 105.5 13t73 47.5t67.5 93.5t67 147h97l-101 -393h-846l11 49q38 6 57 19.5t32 37.5t24 58.5t33 133.5l68 311l-177 -111l-46 85l250 145l75 340q10 46 16 88.5t6 72.5q0 47 -24 65.5t-74 21.5l11 49h400l-11 -49q-38 -8 -54.5 -18t-30 -30
t-27 -62.5t-34.5 -138.5l-52 -236l310 187l47 -84z" />
    <glyph glyph-name="Ldot" unicode="&#x13f;" horiz-adv-x="1241" 
d="M53 49q38 6 57 19.5t32 37.5t24 58.5t33 133.5l170 770q10 46 16 88.5t6 72.5q0 47 -24 65.5t-74 21.5l11 49h400l-11 -49q-38 -8 -54.5 -18t-30 -30t-27 -62.5t-34.5 -138.5l-214 -975h246q67 0 105.5 13t73 47.5t67.5 93.5t67 147h97l-101 -393h-846zM1286 795
l-46 -194h-177l46 194h177z" />
    <glyph glyph-name="Nacute" unicode="&#x143;" horiz-adv-x="1374" 
d="M1428 1365l-11 -49q-38 -8 -54.5 -18t-30 -30t-27 -62.5t-34.5 -138.5l-235 -1067h-136l-292 858q-53 154 -93 307h-13q-6 -51 -33 -194.5t-57 -280.5l-88 -399q-9 -42 -15 -81t-6 -75q0 -45 22.5 -63.5t75.5 -22.5l-11 -49h-350l11 49q38 6 57 19.5t32 37.5t24 58.5
t33 133.5l170 770q10 43 16 82t6 79q0 47 -24 65.5t-74 21.5l11 49h319l264 -779q57 -168 88 -284h11q8 61 36.5 203t52.5 248l70 315q7 33 14.5 78t7.5 83q0 47 -24 65.5t-74 21.5l11 49h350zM1261 1782l-11 -50l-425 -268l-50 71l268 247h218z" />
    <glyph glyph-name="Ncaron" unicode="&#x147;" horiz-adv-x="1374" 
d="M1428 1365l-11 -49q-38 -8 -54.5 -18t-30 -30t-27 -62.5t-34.5 -138.5l-235 -1067h-136l-292 858q-53 154 -93 307h-13q-6 -51 -33 -194.5t-57 -280.5l-88 -399q-9 -42 -15 -81t-6 -75q0 -45 22.5 -63.5t75.5 -22.5l-11 -49h-350l11 49q38 6 57 19.5t32 37.5t24 58.5
t33 133.5l170 770q10 43 16 82t6 79q0 47 -24 65.5t-74 21.5l11 49h319l264 -779q57 -168 88 -284h11q8 61 36.5 203t52.5 248l70 315q7 33 14.5 78t7.5 83q0 47 -24 65.5t-74 21.5l11 49h350zM846 1468l-161 261l66 50l180 -182h10l263 183l52 -62l-274 -250h-136z" />
    <glyph glyph-name="Ntilde" unicode="&#xd1;" horiz-adv-x="1374" 
d="M1428 1365l-11 -49q-38 -8 -54.5 -18t-30 -30t-27 -62.5t-34.5 -138.5l-235 -1067h-136l-292 858q-53 154 -93 307h-13q-6 -51 -33 -194.5t-57 -280.5l-88 -399q-9 -42 -15 -81t-6 -75q0 -45 22.5 -63.5t75.5 -22.5l-11 -49h-350l11 49q38 6 57 19.5t32 37.5t24 58.5
t33 133.5l170 770q10 43 16 82t6 79q0 47 -24 65.5t-74 21.5l11 49h319l264 -779q57 -168 88 -284h11q8 61 36.5 203t52.5 248l70 315q7 33 14.5 78t7.5 83q0 47 -24 65.5t-74 21.5l11 49h350zM1206 1720l69 -48q-50 -75 -88.5 -116t-70.5 -57t-71 -16q-23 0 -42 6t-35.5 16
t-49.5 38q-30 24 -43 33t-25 13.5t-25 4.5q-25 0 -45 -9.5t-44 -34.5t-54 -67l-70 47q61 87 93 122t64.5 51.5t77.5 16.5q16 0 29.5 -3.5t26.5 -9.5t23 -13t39 -30q41 -34 60.5 -44.5t39.5 -10.5q23 0 43 10t44 34t54 67z" />
    <glyph glyph-name="Ncommaaccent" unicode="&#x145;" horiz-adv-x="1374" 
d="M1428 1365l-11 -49q-38 -8 -54.5 -18t-30 -30t-27 -62.5t-34.5 -138.5l-235 -1067h-136l-292 858q-53 154 -93 307h-13q-6 -51 -33 -194.5t-57 -280.5l-88 -399q-9 -42 -15 -81t-6 -75q0 -45 22.5 -63.5t75.5 -22.5l-11 -49h-350l11 49q38 6 57 19.5t32 37.5t24 58.5
t33 133.5l170 770q10 43 16 82t6 79q0 47 -24 65.5t-74 21.5l11 49h319l264 -779q57 -168 88 -284h11q8 61 36.5 203t52.5 248l70 315q7 33 14.5 78t7.5 83q0 47 -24 65.5t-74 21.5l11 49h350zM672 -99q1 -8 1 -16v-15q0 -131 -93 -209t-266 -91v76q77 6 124 38.5t67.5 83.5
t22.5 133h144z" />
    <glyph glyph-name="Ograve" unicode="&#xd2;" horiz-adv-x="1273" 
d="M837 1381q124 0 214.5 -48t139 -146t48.5 -242q0 -155 -53 -348.5t-153.5 -335t-229.5 -210t-270 -68.5q-140 0 -231.5 54t-134.5 150.5t-43 227.5q0 127 36.5 284.5t100 284.5t151 216t195.5 135t230 46zM1049 987q0 306 -223 306q-54 0 -102 -18q-56 -22 -107 -65
q-57 -49 -106 -125q-58 -90 -101 -205q-45 -120 -72 -259q-26 -133 -26 -241q0 -156 56.5 -232.5t168.5 -76.5q90 0 171 55q100 67 180 213q86 157 133 383q28 133 28 265zM828 1782l192 -257l-58 -59l-326 266l11 50h181z" />
    <glyph glyph-name="Oacute" unicode="&#xd3;" horiz-adv-x="1273" 
d="M837 1381q124 0 214.5 -48t139 -146t48.5 -242q0 -155 -53 -348.5t-153.5 -335t-229.5 -210t-270 -68.5q-140 0 -231.5 54t-134.5 150.5t-43 227.5q0 127 36.5 284.5t100 284.5t151 216t195.5 135t230 46zM1049 987q0 306 -223 306q-54 0 -102 -18q-56 -22 -107 -65
q-57 -49 -106 -125q-58 -90 -101 -205q-45 -120 -72 -259q-26 -133 -26 -241q0 -156 56.5 -232.5t168.5 -76.5q90 0 171 55q100 67 180 213q86 157 133 383q28 133 28 265zM1201 1782l-11 -50l-425 -268l-50 71l268 247h218z" />
    <glyph glyph-name="Ocircumflex" unicode="&#xd4;" horiz-adv-x="1273" 
d="M837 1381q124 0 214.5 -48t139 -146t48.5 -242q0 -155 -53 -348.5t-153.5 -335t-229.5 -210t-270 -68.5q-140 0 -231.5 54t-134.5 150.5t-43 227.5q0 127 36.5 284.5t100 284.5t151 216t195.5 135t230 46zM1049 987q0 306 -223 306q-54 0 -102 -18q-56 -22 -107 -65
q-57 -49 -106 -125q-58 -90 -101 -205q-45 -120 -72 -259q-26 -133 -26 -241q0 -156 56.5 -232.5t168.5 -76.5q90 0 171 55q100 67 180 213q86 157 133 383q28 133 28 265zM991 1780l161 -261l-66 -50l-180 182h-10l-263 -183l-52 62l274 250h136z" />
    <glyph glyph-name="Otilde" unicode="&#xd5;" horiz-adv-x="1273" 
d="M837 1381q124 0 214.5 -48t139 -146t48.5 -242q0 -155 -53 -348.5t-153.5 -335t-229.5 -210t-270 -68.5q-140 0 -231.5 54t-134.5 150.5t-43 227.5q0 127 36.5 284.5t100 284.5t151 216t195.5 135t230 46zM1049 987q0 306 -223 306q-54 0 -102 -18q-56 -22 -107 -65
q-57 -49 -106 -125q-58 -90 -101 -205q-45 -120 -72 -259q-26 -133 -26 -241q0 -156 56.5 -232.5t168.5 -76.5q90 0 171 55q100 67 180 213q86 157 133 383q28 133 28 265zM1146 1720l69 -48q-50 -75 -88.5 -116t-70.5 -57t-71 -16q-23 0 -42 6t-35.5 16t-49.5 38
q-30 24 -43 33t-25 13.5t-25 4.5q-25 0 -45 -9.5t-44 -34.5t-54 -67l-70 47q61 87 93 122t64.5 51.5t77.5 16.5q16 0 29.5 -3.5t26.5 -9.5t23 -13t39 -30q41 -34 60.5 -44.5t39.5 -10.5q23 0 43 10t44 34t54 67z" />
    <glyph glyph-name="Odieresis" unicode="&#xd6;" horiz-adv-x="1273" 
d="M837 1381q124 0 214.5 -48t139 -146t48.5 -242q0 -155 -53 -348.5t-153.5 -335t-229.5 -210t-270 -68.5q-140 0 -231.5 54t-134.5 150.5t-43 227.5q0 127 36.5 284.5t100 284.5t151 216t195.5 135t230 46zM1049 987q0 306 -223 306q-54 0 -102 -18q-56 -22 -107 -65
q-57 -49 -106 -125q-58 -90 -101 -205q-45 -120 -72 -259q-26 -133 -26 -241q0 -156 56.5 -232.5t168.5 -76.5q90 0 171 55q100 67 180 213q86 157 133 383q28 133 28 265zM1161 1691l-38 -176h-165l38 176h165zM811 1691l-38 -176h-165l38 176h165z" />
    <glyph glyph-name="Omacron" unicode="&#x14c;" horiz-adv-x="1273" 
d="M837 1381q124 0 214.5 -48t139 -146t48.5 -242q0 -155 -53 -348.5t-153.5 -335t-229.5 -210t-270 -68.5q-140 0 -231.5 54t-134.5 150.5t-43 227.5q0 127 36.5 284.5t100 284.5t151 216t195.5 135t230 46zM1049 987q0 306 -223 306q-54 0 -102 -18q-56 -22 -107 -65
q-57 -49 -106 -125q-58 -90 -101 -205q-45 -120 -72 -259q-26 -133 -26 -241q0 -156 56.5 -232.5t168.5 -76.5q90 0 171 55q100 67 180 213q86 157 133 383q28 133 28 265zM1136 1538h-530l26 125h530z" />
    <glyph glyph-name="Obreve" unicode="&#x14e;" horiz-adv-x="1273" 
d="M837 1381q124 0 214.5 -48t139 -146t48.5 -242q0 -155 -53 -348.5t-153.5 -335t-229.5 -210t-270 -68.5q-140 0 -231.5 54t-134.5 150.5t-43 227.5q0 127 36.5 284.5t100 284.5t151 216t195.5 135t230 46zM1049 987q0 306 -223 306q-54 0 -102 -18q-56 -22 -107 -65
q-57 -49 -106 -125q-58 -90 -101 -205q-45 -120 -72 -259q-26 -133 -26 -241q0 -156 56.5 -232.5t168.5 -76.5q90 0 171 55q100 67 180 213q86 157 133 383q28 133 28 265zM1218 1748q-61 -93 -118 -149t-118 -81.5t-146 -25.5q-72 0 -120.5 37.5t-72 103.5t-23.5 150l81 15
q8 -92 47.5 -135.5t111.5 -43.5q58 0 101.5 14.5t89 52t96.5 104.5z" />
    <glyph glyph-name="Ohungarumlaut" unicode="&#x150;" horiz-adv-x="1273" 
d="M837 1381q124 0 214.5 -48t139 -146t48.5 -242q0 -155 -53 -348.5t-153.5 -335t-229.5 -210t-270 -68.5q-140 0 -231.5 54t-134.5 150.5t-43 227.5q0 127 36.5 284.5t100 284.5t151 216t195.5 135t230 46zM1049 987q0 306 -223 306q-54 0 -102 -18q-56 -22 -107 -65
q-57 -49 -106 -125q-58 -90 -101 -205q-45 -120 -72 -259q-26 -133 -26 -241q0 -156 56.5 -232.5t168.5 -76.5q90 0 171 55q100 67 180 213q86 157 133 383q28 133 28 265zM1012 1782l-11 -50l-376 -264l-52 58l282 256h157zM1342 1782l-11 -50l-375 -264l-52 58l282 256
h156z" />
    <glyph glyph-name="Oslash" unicode="&#xd8;" horiz-adv-x="1273" 
d="M-33 -135l222 281q-65 101 -65 269q0 127 36.5 284.5t100 284.5t151 216t195.5 135t230 46q160 0 263 -80l156 198h139l-222 -281q66 -106 66 -273q0 -155 -53 -348.5t-153.5 -335t-229.5 -210t-270 -68.5q-169 0 -271 80l-156 -198h-139zM315 298l695 890
q-54 105 -184 105q-54 0 -102 -18q-56 -22 -107 -65q-57 -49 -106 -125q-58 -90 -101 -205q-45 -120 -72 -259q-26 -133 -26 -241q0 -47 3 -82zM1045 1063l-694 -888q54 -104 186 -104q90 0 171 55q100 67 180 213q86 157 133 383q28 133 28 265q0 32 -4 76z" />
    <glyph glyph-name="Oslashacute" unicode="&#x1fe;" horiz-adv-x="1273" 
d="M-33 -135l222 281q-65 101 -65 269q0 127 36.5 284.5t100 284.5t151 216t195.5 135t230 46q160 0 263 -80l156 198h139l-222 -281q66 -106 66 -273q0 -155 -53 -348.5t-153.5 -335t-229.5 -210t-270 -68.5q-169 0 -271 80l-156 -198h-139zM315 298l695 890
q-54 105 -184 105q-54 0 -102 -18q-56 -22 -107 -65q-57 -49 -106 -125q-58 -90 -101 -205q-45 -120 -72 -259q-26 -133 -26 -241q0 -47 3 -82zM1045 1063l-694 -888q54 -104 186 -104q90 0 171 55q100 67 180 213q86 157 133 383q28 133 28 265q0 32 -4 76zM1201 1782
l-11 -50l-425 -268l-50 71l268 247h218z" />
    <glyph glyph-name="OE" unicode="&#x152;" horiz-adv-x="1836" 
d="M1896 1365l-69 -307h-96q-3 72 -11 112.5t-18 60t-23 29t-32.5 13.5t-55.5 4h-311l-113 -524h175q44 0 73.5 12t54.5 41.5t56 90.5h91l-90 -384h-85q0 55 -4 81t-10.5 38.5t-16.5 19.5t-26 10t-53 3h-184l-124 -577h276q44 0 74.5 6.5t55.5 22.5t48 41.5t47.5 65.5
t66.5 122h97l-88 -346h-760l29 135l-9 -1q-64 -70 -158 -110t-187 -40q-194 0 -293 109.5t-99 321.5q0 149 50.5 341t144.5 335t221.5 216.5t277.5 73.5q92 0 162.5 -33.5t124.5 -108.5h10l27 126h754zM1019 987q0 161 -50.5 233.5t-156.5 72.5q-103 0 -193 -76t-159 -215.5
t-108.5 -315t-39.5 -306.5q0 -114 23 -181.5t67.5 -97.5t116.5 -30q134 0 245.5 125.5t183 355.5t71.5 435z" />
    <glyph glyph-name="Racute" unicode="&#x154;" horiz-adv-x="1209" 
d="M809 619q48 -36 77.5 -86t47.5 -139l23 -116q7 -36 15.5 -67t20 -59.5t25 -45.5t29 -28t35 -17.5t49.5 -11.5l-10 -49h-277q-32 89 -57 212l-44 212q-11 55 -26.5 92.5t-37 58t-50 27t-69.5 6.5h-114l-70 -317q-9 -39 -12.5 -62t-6 -48.5t-2.5 -45.5q0 -31 10 -48.5
t30 -25.5t69 -12l-11 -49h-411l11 49q38 6 57 19.5t32 37.5t24 58.5t33 133.5l170 770q22 100 22 158q0 49 -23 68t-75 22l11 49h445q106 0 173 -12.5t114.5 -37.5t79.5 -64.5t48 -89t16 -105.5q0 -89 -29.5 -158t-80.5 -121t-118.5 -88t-142.5 -59v-11zM583 694
q109 0 181 21.5t120 65.5t79 116t31 156q0 43 -8 76.5t-21 55.5t-33 39t-50 29.5t-69.5 18t-107.5 5.5q-53 0 -112 -4l-128 -579h118zM1175 1782l-11 -50l-425 -268l-50 71l268 247h218z" />
    <glyph glyph-name="Rcaron" unicode="&#x158;" horiz-adv-x="1209" 
d="M809 619q48 -36 77.5 -86t47.5 -139l23 -116q7 -36 15.5 -67t20 -59.5t25 -45.5t29 -28t35 -17.5t49.5 -11.5l-10 -49h-277q-32 89 -57 212l-44 212q-11 55 -26.5 92.5t-37 58t-50 27t-69.5 6.5h-114l-70 -317q-9 -39 -12.5 -62t-6 -48.5t-2.5 -45.5q0 -31 10 -48.5
t30 -25.5t69 -12l-11 -49h-411l11 49q38 6 57 19.5t32 37.5t24 58.5t33 133.5l170 770q22 100 22 158q0 49 -23 68t-75 22l11 49h445q106 0 173 -12.5t114.5 -37.5t79.5 -64.5t48 -89t16 -105.5q0 -89 -29.5 -158t-80.5 -121t-118.5 -88t-142.5 -59v-11zM583 694
q109 0 181 21.5t120 65.5t79 116t31 156q0 43 -8 76.5t-21 55.5t-33 39t-50 29.5t-69.5 18t-107.5 5.5q-53 0 -112 -4l-128 -579h118zM759 1468l-161 261l66 50l180 -182h10l263 183l52 -62l-274 -250h-136z" />
    <glyph glyph-name="Rcommaaccent" unicode="&#x156;" horiz-adv-x="1209" 
d="M809 619q48 -36 77.5 -86t47.5 -139l23 -116q7 -36 15.5 -67t20 -59.5t25 -45.5t29 -28t35 -17.5t49.5 -11.5l-10 -49h-277q-32 89 -57 212l-44 212q-11 55 -26.5 92.5t-37 58t-50 27t-69.5 6.5h-114l-70 -317q-9 -39 -12.5 -62t-6 -48.5t-2.5 -45.5q0 -31 10 -48.5
t30 -25.5t69 -12l-11 -49h-411l11 49q38 6 57 19.5t32 37.5t24 58.5t33 133.5l170 770q22 100 22 158q0 49 -23 68t-75 22l11 49h445q106 0 173 -12.5t114.5 -37.5t79.5 -64.5t48 -89t16 -105.5q0 -89 -29.5 -158t-80.5 -121t-118.5 -88t-142.5 -59v-11zM583 694
q109 0 181 21.5t120 65.5t79 116t31 156q0 43 -8 76.5t-21 55.5t-33 39t-50 29.5t-69.5 18t-107.5 5.5q-53 0 -112 -4l-128 -579h118zM624 -99q1 -8 1 -16v-15q0 -131 -93 -209t-266 -91v76q77 6 124 38.5t67.5 83.5t22.5 133h144z" />
    <glyph glyph-name="Sacute" unicode="&#x15a;" horiz-adv-x="986" 
d="M159 311q0 -121 56 -180.5t175 -59.5q92 0 158 34t100 96.5t34 148.5q0 61 -21.5 107.5t-65 89t-125.5 97.5q-74 50 -123 98.5t-78 108.5t-29 134q0 118 57 208t161 139t240 49q92 0 170.5 -12.5t173.5 -42.5l-56 -257h-96q-4 85 -26 133.5t-63 69.5t-109 21
q-83 0 -146 -34t-96 -92.5t-33 -130.5q0 -52 18 -93t57.5 -80.5t115.5 -91.5q98 -68 149.5 -121.5t76 -113.5t24.5 -139q0 -121 -58.5 -215.5t-165 -146t-242.5 -51.5q-93 0 -197.5 14t-191.5 38l60 275h96zM1058 1782l-11 -50l-425 -268l-50 71l268 247h218z" />
    <glyph glyph-name="Scircumflex" unicode="&#x15c;" horiz-adv-x="986" 
d="M159 311q0 -121 56 -180.5t175 -59.5q92 0 158 34t100 96.5t34 148.5q0 61 -21.5 107.5t-65 89t-125.5 97.5q-74 50 -123 98.5t-78 108.5t-29 134q0 118 57 208t161 139t240 49q92 0 170.5 -12.5t173.5 -42.5l-56 -257h-96q-4 85 -26 133.5t-63 69.5t-109 21
q-83 0 -146 -34t-96 -92.5t-33 -130.5q0 -52 18 -93t57.5 -80.5t115.5 -91.5q98 -68 149.5 -121.5t76 -113.5t24.5 -139q0 -121 -58.5 -215.5t-165 -146t-242.5 -51.5q-93 0 -197.5 14t-191.5 38l60 275h96zM848 1780l161 -261l-66 -50l-180 182h-10l-263 -183l-52 62
l274 250h136z" />
    <glyph glyph-name="Scaron" unicode="&#x160;" horiz-adv-x="986" 
d="M159 311q0 -121 56 -180.5t175 -59.5q92 0 158 34t100 96.5t34 148.5q0 61 -21.5 107.5t-65 89t-125.5 97.5q-74 50 -123 98.5t-78 108.5t-29 134q0 118 57 208t161 139t240 49q92 0 170.5 -12.5t173.5 -42.5l-56 -257h-96q-4 85 -26 133.5t-63 69.5t-109 21
q-83 0 -146 -34t-96 -92.5t-33 -130.5q0 -52 18 -93t57.5 -80.5t115.5 -91.5q98 -68 149.5 -121.5t76 -113.5t24.5 -139q0 -121 -58.5 -215.5t-165 -146t-242.5 -51.5q-93 0 -197.5 14t-191.5 38l60 275h96zM643 1468l-161 261l66 50l180 -182h10l263 183l52 -62l-274 -250
h-136z" />
    <glyph glyph-name="Scedilla" unicode="&#x15e;" horiz-adv-x="986" 
d="M159 311q0 -122 56.5 -181.5t174.5 -59.5q92 0 158 34t100 97t34 149q0 61 -21.5 107.5t-65 89t-125.5 97.5q-74 50 -123 98.5t-78 108.5t-29 134q0 118 57 208t161 139t240 49q92 0 170.5 -12.5t173.5 -42.5l-56 -257h-96q-4 85 -26 133.5t-63 69.5t-109 21
q-83 0 -146 -34t-96 -92.5t-33 -130.5q0 -52 18 -93t57.5 -80.5t115.5 -91.5q98 -68 149.5 -121.5t76 -113.5t24.5 -139q0 -142 -79 -246t-224 -147l-141 -94q4 -13 4 -46q0 -126 -93 -203t-265 -91v76q96 8 148.5 58t54.5 145l7 34l163 102q-18 -2 -41 -2q-92 0 -198.5 15
t-190.5 38l60 275h96z" />
    <glyph glyph-name="Scommaaccent" unicode="&#x218;" horiz-adv-x="986" 
d="M159 311q0 -121 56 -180.5t175 -59.5q92 0 158 34t100 96.5t34 148.5q0 61 -21.5 107.5t-65 89t-125.5 97.5q-74 50 -123 98.5t-78 108.5t-29 134q0 118 57 208t161 139t240 49q92 0 170.5 -12.5t173.5 -42.5l-56 -257h-96q-4 85 -26 133.5t-63 69.5t-109 21
q-83 0 -146 -34t-96 -92.5t-33 -130.5q0 -52 18 -93t57.5 -80.5t115.5 -91.5q98 -68 149.5 -121.5t76 -113.5t24.5 -139q0 -121 -58.5 -215.5t-165 -146t-242.5 -51.5q-93 0 -197.5 14t-191.5 38l60 275h96zM471 -99q1 -8 1 -16v-15q0 -131 -93 -209t-266 -91v76
q77 6 124 38.5t67.5 83.5t22.5 133h144z" />
    <glyph glyph-name="Tcaron" unicode="&#x164;" horiz-adv-x="1175" 
d="M712 0h-421l11 49q39 5 58 15.5t33.5 31.5t29.5 65.5t35 136.5l214 979h-127q-62 0 -99 -18t-74 -67t-90 -164h-96l75 337h1044l-78 -352h-96q0 97 -5 145.5t-19 74t-34.5 35t-72.5 9.5h-148l-217 -986q-9 -39 -12.5 -62t-6 -48.5t-2.5 -45.5q0 -31 10 -48.5t30 -25.5
t69 -12zM737 1468l-161 261l66 50l180 -182h10l263 183l52 -62l-274 -250h-136z" />
    <glyph glyph-name="uni021A" unicode="&#x21a;" horiz-adv-x="1175" 
d="M712 0h-421l11 49q39 5 58 15.5t33.5 31.5t29.5 65.5t35 136.5l214 979h-127q-62 0 -99 -18t-74 -67t-90 -164h-96l75 337h1044l-78 -352h-96q0 97 -5 145.5t-19 74t-34.5 35t-72.5 9.5h-148l-217 -986q-9 -39 -12.5 -62t-6 -48.5t-2.5 -45.5q0 -31 10 -48.5t30 -25.5
t69 -12zM567 -99q1 -8 1 -16v-15q0 -131 -93 -209t-266 -91v76q77 6 124 38.5t67.5 83.5t22.5 133h144z" />
    <glyph glyph-name="Tbar" unicode="&#x166;" horiz-adv-x="1175" 
d="M709 627l-74 -336q-9 -39 -12.5 -62t-6 -48.5t-2.5 -45.5q0 -31 10 -48.5t30 -25.5t69 -12l-11 -49h-421l11 49q39 5 58 15.5t33.5 31.5t29.5 65.5t35 136.5l72 329h-258l20 92h258l122 558h-127q-62 0 -99 -18t-74 -67t-90 -164h-96l75 337h1044l-78 -352h-96
q0 97 -5 145.5t-19 74t-34.5 35t-72.5 9.5h-148l-123 -558h256l-20 -92h-256z" />
    <glyph glyph-name="Ugrave" unicode="&#xd9;" horiz-adv-x="1295" 
d="M260 1316l11 49h402l-11 -49q-38 -8 -54.5 -18t-30 -30t-27 -62.5t-34.5 -138.5l-125 -560q-13 -57 -20.5 -108.5t-7.5 -106.5q0 -109 53.5 -165t161.5 -56q102 0 170 42t109 121t69 205l139 629q10 45 16 88t6 73q0 47 -24 65.5t-74 21.5l11 49h380l-11 -49
q-37 -8 -54.5 -18.5t-31 -30.5t-26.5 -63t-34 -137l-130 -599q-39 -179 -110 -285t-177.5 -153t-260.5 -47q-173 0 -265 83.5t-92 243.5q0 56 11.5 128.5t32.5 163.5l104 466q12 53 17.5 94.5t5.5 66.5q0 45 -23 64.5t-76 22.5zM759 1782l192 -257l-58 -59l-326 266l11 50
h181z" />
    <glyph glyph-name="Uacute" unicode="&#xda;" horiz-adv-x="1295" 
d="M260 1316l11 49h402l-11 -49q-38 -8 -54.5 -18t-30 -30t-27 -62.5t-34.5 -138.5l-125 -560q-13 -57 -20.5 -108.5t-7.5 -106.5q0 -109 53.5 -165t161.5 -56q102 0 170 42t109 121t69 205l139 629q10 45 16 88t6 73q0 47 -24 65.5t-74 21.5l11 49h380l-11 -49
q-37 -8 -54.5 -18.5t-31 -30.5t-26.5 -63t-34 -137l-130 -599q-39 -179 -110 -285t-177.5 -153t-260.5 -47q-173 0 -265 83.5t-92 243.5q0 56 11.5 128.5t32.5 163.5l104 466q12 53 17.5 94.5t5.5 66.5q0 45 -23 64.5t-76 22.5zM1222 1782l-11 -50l-425 -268l-50 71l268 247
h218z" />
    <glyph glyph-name="Ucircumflex" unicode="&#xdb;" horiz-adv-x="1295" 
d="M260 1316l11 49h402l-11 -49q-38 -8 -54.5 -18t-30 -30t-27 -62.5t-34.5 -138.5l-125 -560q-13 -57 -20.5 -108.5t-7.5 -106.5q0 -109 53.5 -165t161.5 -56q102 0 170 42t109 121t69 205l139 629q10 45 16 88t6 73q0 47 -24 65.5t-74 21.5l11 49h380l-11 -49
q-37 -8 -54.5 -18.5t-31 -30.5t-26.5 -63t-34 -137l-130 -599q-39 -179 -110 -285t-177.5 -153t-260.5 -47q-173 0 -265 83.5t-92 243.5q0 56 11.5 128.5t32.5 163.5l104 466q12 53 17.5 94.5t5.5 66.5q0 45 -23 64.5t-76 22.5zM1007 1780l161 -261l-66 -50l-180 182h-10
l-263 -183l-52 62l274 250h136z" />
    <glyph glyph-name="Utilde" unicode="&#x168;" horiz-adv-x="1295" 
d="M260 1316l11 49h402l-11 -49q-38 -8 -54.5 -18t-30 -30t-27 -62.5t-34.5 -138.5l-125 -560q-13 -57 -20.5 -108.5t-7.5 -106.5q0 -109 53.5 -165t161.5 -56q102 0 170 42t109 121t69 205l139 629q10 45 16 88t6 73q0 47 -24 65.5t-74 21.5l11 49h380l-11 -49
q-37 -8 -54.5 -18.5t-31 -30.5t-26.5 -63t-34 -137l-130 -599q-39 -179 -110 -285t-177.5 -153t-260.5 -47q-173 0 -265 83.5t-92 243.5q0 56 11.5 128.5t32.5 163.5l104 466q12 53 17.5 94.5t5.5 66.5q0 45 -23 64.5t-76 22.5zM1161 1720l69 -48q-50 -75 -88.5 -116
t-70.5 -57t-71 -16q-23 0 -42 6t-35.5 16t-49.5 38q-30 24 -43 33t-25 13.5t-25 4.5q-25 0 -45 -9.5t-44 -34.5t-54 -67l-70 47q61 87 93 122t64.5 51.5t77.5 16.5q16 0 29.5 -3.5t26.5 -9.5t23 -13t39 -30q41 -34 60.5 -44.5t39.5 -10.5q23 0 43 10t44 34t54 67z" />
    <glyph glyph-name="Udieresis" unicode="&#xdc;" horiz-adv-x="1295" 
d="M260 1316l11 49h402l-11 -49q-38 -8 -54.5 -18t-30 -30t-27 -62.5t-34.5 -138.5l-125 -560q-13 -57 -20.5 -108.5t-7.5 -106.5q0 -109 53.5 -165t161.5 -56q102 0 170 42t109 121t69 205l139 629q10 45 16 88t6 73q0 47 -24 65.5t-74 21.5l11 49h380l-11 -49
q-37 -8 -54.5 -18.5t-31 -30.5t-26.5 -63t-34 -137l-130 -599q-39 -179 -110 -285t-177.5 -153t-260.5 -47q-173 0 -265 83.5t-92 243.5q0 56 11.5 128.5t32.5 163.5l104 466q12 53 17.5 94.5t5.5 66.5q0 45 -23 64.5t-76 22.5zM1177 1691l-38 -176h-165l38 176h165z
M827 1691l-38 -176h-165l38 176h165z" />
    <glyph glyph-name="Umacron" unicode="&#x16a;" horiz-adv-x="1295" 
d="M260 1316l11 49h402l-11 -49q-38 -8 -54.5 -18t-30 -30t-27 -62.5t-34.5 -138.5l-125 -560q-13 -57 -20.5 -108.5t-7.5 -106.5q0 -109 53.5 -165t161.5 -56q102 0 170 42t109 121t69 205l139 629q10 45 16 88t6 73q0 47 -24 65.5t-74 21.5l11 49h380l-11 -49
q-37 -8 -54.5 -18.5t-31 -30.5t-26.5 -63t-34 -137l-130 -599q-39 -179 -110 -285t-177.5 -153t-260.5 -47q-173 0 -265 83.5t-92 243.5q0 56 11.5 128.5t32.5 163.5l104 466q12 53 17.5 94.5t5.5 66.5q0 45 -23 64.5t-76 22.5zM1152 1538h-530l26 125h530z" />
    <glyph glyph-name="Ubreve" unicode="&#x16c;" horiz-adv-x="1295" 
d="M260 1316l11 49h402l-11 -49q-38 -8 -54.5 -18t-30 -30t-27 -62.5t-34.5 -138.5l-125 -560q-13 -57 -20.5 -108.5t-7.5 -106.5q0 -109 53.5 -165t161.5 -56q102 0 170 42t109 121t69 205l139 629q10 45 16 88t6 73q0 47 -24 65.5t-74 21.5l11 49h380l-11 -49
q-37 -8 -54.5 -18.5t-31 -30.5t-26.5 -63t-34 -137l-130 -599q-39 -179 -110 -285t-177.5 -153t-260.5 -47q-173 0 -265 83.5t-92 243.5q0 56 11.5 128.5t32.5 163.5l104 466q12 53 17.5 94.5t5.5 66.5q0 45 -23 64.5t-76 22.5zM1234 1748q-61 -93 -118 -149t-118 -81.5
t-146 -25.5q-72 0 -120.5 37.5t-72 103.5t-23.5 150l81 15q8 -92 47.5 -135.5t111.5 -43.5q58 0 101.5 14.5t89 52t96.5 104.5z" />
    <glyph glyph-name="Uring" unicode="&#x16e;" horiz-adv-x="1295" 
d="M260 1316l11 49h402l-11 -49q-38 -8 -54.5 -18t-30 -30t-27 -62.5t-34.5 -138.5l-125 -560q-13 -57 -20.5 -108.5t-7.5 -106.5q0 -109 53.5 -165t161.5 -56q102 0 170 42t109 121t69 205l139 629q10 45 16 88t6 73q0 47 -24 65.5t-74 21.5l11 49h380l-11 -49
q-37 -8 -54.5 -18.5t-31 -30.5t-26.5 -63t-34 -137l-130 -599q-39 -179 -110 -285t-177.5 -153t-260.5 -47q-173 0 -265 83.5t-92 243.5q0 56 11.5 128.5t32.5 163.5l104 466q12 53 17.5 94.5t5.5 66.5q0 45 -23 64.5t-76 22.5zM861 1424q-86 0 -132.5 38.5t-46.5 109.5
q0 46 16.5 94t53.5 84.5t87.5 55.5t107.5 19q90 0 135.5 -38.5t45.5 -110.5q0 -66 -31 -126t-92 -93t-144 -33zM783 1578q0 -42 21.5 -67t67.5 -25q48 0 84 28.5t53.5 72.5t17.5 85q0 44 -23 67.5t-65 23.5q-43 0 -79 -25t-56.5 -68t-20.5 -92z" />
    <glyph glyph-name="Uhungarumlaut" unicode="&#x170;" horiz-adv-x="1295" 
d="M260 1316l11 49h402l-11 -49q-38 -8 -54.5 -18t-30 -30t-27 -62.5t-34.5 -138.5l-125 -560q-13 -57 -20.5 -108.5t-7.5 -106.5q0 -109 53.5 -165t161.5 -56q102 0 170 42t109 121t69 205l139 629q10 45 16 88t6 73q0 47 -24 65.5t-74 21.5l11 49h380l-11 -49
q-37 -8 -54.5 -18.5t-31 -30.5t-26.5 -63t-34 -137l-130 -599q-39 -179 -110 -285t-177.5 -153t-260.5 -47q-173 0 -265 83.5t-92 243.5q0 56 11.5 128.5t32.5 163.5l104 466q12 53 17.5 94.5t5.5 66.5q0 45 -23 64.5t-76 22.5zM1028 1782l-11 -50l-376 -264l-52 58l282 256
h157zM1358 1782l-11 -50l-375 -264l-52 58l282 256h156z" />
    <glyph glyph-name="Uogonek" unicode="&#x172;" horiz-adv-x="1295" 
d="M260 1316l11 49h402l-11 -49q-38 -8 -54.5 -18t-30 -30t-27 -62.5t-34.5 -138.5l-125 -560q-13 -57 -20.5 -108.5t-7.5 -106.5q0 -109 53.5 -165t161.5 -56q102 0 170 42t109 121t69 205l139 629q10 45 16 88t6 73q0 47 -24 65.5t-74 21.5l11 49h380l-11 -49
q-37 -8 -54.5 -18.5t-31 -30.5t-26.5 -63t-34 -137l-130 -599q-30 -136 -80 -233t-128 -158q-103 -79 -161.5 -133.5t-91 -104t-32.5 -92.5q0 -49 20 -68t62 -19q33 0 61.5 10.5t50.5 23.5l16 -68q-36 -25 -83 -40.5t-86 -15.5q-87 0 -130 38.5t-43 118.5q0 126 223 269
q-62 -13 -146 -13q-173 0 -265 83.5t-92 243.5q0 56 11.5 128.5t32.5 163.5l104 466q12 53 17.5 94.5t5.5 66.5q0 45 -23 64.5t-76 22.5z" />
    <glyph glyph-name="Wgrave" unicode="&#x1e80;" horiz-adv-x="1836" 
d="M1051 -13v732q0 178 9 371h-10l-535 -1103h-157l-47 1112q-4 83 -17.5 127t-36.5 64t-65 26l11 49h417l-11 -49q-45 -3 -70.5 -26.5t-35.5 -64t-10 -114.5v-34q0 -18 1 -37l9 -391q1 -43 1 -132v-81l-1 -209h10l553 1138h151v-667q0 -119 -3 -231l-6 -240h10l405 783
q23 44 48.5 103.5t25.5 102.5q0 40 -23.5 65.5t-76.5 34.5l11 49h409l-11 -49q-46 -6 -88 -50.5t-112 -173.5l-601 -1105h-154zM1119 1782l192 -257l-58 -59l-326 266l11 50h181z" />
    <glyph glyph-name="Wacute" unicode="&#x1e82;" horiz-adv-x="1836" 
d="M1051 -13v732q0 178 9 371h-10l-535 -1103h-157l-47 1112q-4 83 -17.5 127t-36.5 64t-65 26l11 49h417l-11 -49q-45 -3 -70.5 -26.5t-35.5 -64t-10 -114.5v-34q0 -18 1 -37l9 -391q1 -43 1 -132v-81l-1 -209h10l553 1138h151v-667q0 -119 -3 -231l-6 -240h10l405 783
q23 44 48.5 103.5t25.5 102.5q0 40 -23.5 65.5t-76.5 34.5l11 49h409l-11 -49q-46 -6 -88 -50.5t-112 -173.5l-601 -1105h-154zM1492 1782l-11 -50l-425 -268l-50 71l268 247h218z" />
    <glyph glyph-name="Wcircumflex" unicode="&#x174;" horiz-adv-x="1836" 
d="M1051 -13v732q0 178 9 371h-10l-535 -1103h-157l-47 1112q-4 83 -17.5 127t-36.5 64t-65 26l11 49h417l-11 -49q-45 -3 -70.5 -26.5t-35.5 -64t-10 -114.5v-34q0 -18 1 -37l9 -391q1 -43 1 -132v-81l-1 -209h10l553 1138h151v-667q0 -119 -3 -231l-6 -240h10l405 783
q23 44 48.5 103.5t25.5 102.5q0 40 -23.5 65.5t-76.5 34.5l11 49h409l-11 -49q-46 -6 -88 -50.5t-112 -173.5l-601 -1105h-154zM1283 1780l161 -261l-66 -50l-180 182h-10l-263 -183l-52 62l274 250h136z" />
    <glyph glyph-name="Wdieresis" unicode="&#x1e84;" horiz-adv-x="1836" 
d="M1051 -13v732q0 178 9 371h-10l-535 -1103h-157l-47 1112q-4 83 -17.5 127t-36.5 64t-65 26l11 49h417l-11 -49q-45 -3 -70.5 -26.5t-35.5 -64t-10 -114.5v-34q0 -18 1 -37l9 -391q1 -43 1 -132v-81l-1 -209h10l553 1138h151v-667q0 -119 -3 -231l-6 -240h10l405 783
q23 44 48.5 103.5t25.5 102.5q0 40 -23.5 65.5t-76.5 34.5l11 49h409l-11 -49q-46 -6 -88 -50.5t-112 -173.5l-601 -1105h-154zM1452 1691l-38 -176h-165l38 176h165zM1102 1691l-38 -176h-165l38 176h165z" />
    <glyph glyph-name="Ygrave" unicode="&#x1ef2;" horiz-adv-x="1122" 
d="M587 1365l-11 -49q-42 -4 -64 -24.5t-22 -63.5q0 -61 28 -160l106 -377l246 329q55 73 79.5 114.5t34.5 73.5q8 24 8 46q0 28 -19 43t-55 19l11 49h375l-11 -49q-24 -5 -41.5 -14.5t-40 -30.5t-61 -67.5l-98.5 -124.5l-389 -505l-62 -283q-9 -40 -12.5 -62.5t-6 -48
t-2.5 -45.5q0 -31 10 -48.5t30 -25.5t69 -12l-11 -49h-421l11 49q40 6 59 16t33.5 31t29 66t34.5 136l59 276l-145 505q-33 116 -52 157t-40.5 58t-56.5 22l11 49h387zM684 1782l192 -257l-58 -59l-326 266l11 50h181z" />
    <glyph glyph-name="Yacute" unicode="&#xdd;" horiz-adv-x="1122" 
d="M587 1365l-11 -49q-42 -4 -64 -24.5t-22 -63.5q0 -61 28 -160l106 -377l246 329q55 73 79.5 114.5t34.5 73.5q8 24 8 46q0 28 -19 43t-55 19l11 49h375l-11 -49q-24 -5 -41.5 -14.5t-40 -30.5t-61 -67.5l-98.5 -124.5l-389 -505l-62 -283q-9 -40 -12.5 -62.5t-6 -48
t-2.5 -45.5q0 -31 10 -48.5t30 -25.5t69 -12l-11 -49h-421l11 49q40 6 59 16t33.5 31t29 66t34.5 136l59 276l-145 505q-33 116 -52 157t-40.5 58t-56.5 22l11 49h387zM1141 1782l-11 -50l-425 -268l-50 71l268 247h218z" />
    <glyph glyph-name="Ycircumflex" unicode="&#x176;" horiz-adv-x="1122" 
d="M587 1365l-11 -49q-42 -4 -64 -24.5t-22 -63.5q0 -61 28 -160l106 -377l246 329q55 73 79.5 114.5t34.5 73.5q8 24 8 46q0 28 -19 43t-55 19l11 49h375l-11 -49q-24 -5 -41.5 -14.5t-40 -30.5t-61 -67.5l-98.5 -124.5l-389 -505l-62 -283q-9 -40 -12.5 -62.5t-6 -48
t-2.5 -45.5q0 -31 10 -48.5t30 -25.5t69 -12l-11 -49h-421l11 49q40 6 59 16t33.5 31t29 66t34.5 136l59 276l-145 505q-33 116 -52 157t-40.5 58t-56.5 22l11 49h387zM926 1780l161 -261l-66 -50l-180 182h-10l-263 -183l-52 62l274 250h136z" />
    <glyph glyph-name="Ydieresis" unicode="&#x178;" horiz-adv-x="1122" 
d="M587 1365l-11 -49q-42 -4 -64 -24.5t-22 -63.5q0 -61 28 -160l106 -377l246 329q55 73 79.5 114.5t34.5 73.5q8 24 8 46q0 28 -19 43t-55 19l11 49h375l-11 -49q-24 -5 -41.5 -14.5t-40 -30.5t-61 -67.5l-98.5 -124.5l-389 -505l-62 -283q-9 -40 -12.5 -62.5t-6 -48
t-2.5 -45.5q0 -31 10 -48.5t30 -25.5t69 -12l-11 -49h-421l11 49q40 6 59 16t33.5 31t29 66t34.5 136l59 276l-145 505q-33 116 -52 157t-40.5 58t-56.5 22l11 49h387zM1095 1691l-38 -176h-165l38 176h165zM745 1691l-38 -176h-165l38 176h165z" />
    <glyph glyph-name="Zacute" unicode="&#x179;" horiz-adv-x="1049" 
d="M237 92h320q44 0 72 6t50 18t41 30t38.5 43t43 67t51.5 106h96l-77 -362h-887l10 49l908 1224h-307q-42 0 -67 -4.5t-44 -14t-34 -22t-35.5 -37t-45 -63.5t-56.5 -105h-96l74 338h866l-11 -48zM1089 1782l-11 -50l-425 -268l-50 71l268 247h218z" />
    <glyph glyph-name="Zcaron" unicode="&#x17d;" horiz-adv-x="1049" 
d="M237 92h320q44 0 72 6t50 18t41 30t38.5 43t43 67t51.5 106h96l-77 -362h-887l10 49l908 1224h-307q-42 0 -67 -4.5t-44 -14t-34 -22t-35.5 -37t-45 -63.5t-56.5 -105h-96l74 338h866l-11 -48zM674 1468l-161 261l66 50l180 -182h10l263 183l52 -62l-274 -250h-136z" />
    <glyph glyph-name="Zdotaccent" unicode="&#x17b;" horiz-adv-x="1049" 
d="M237 92h320q44 0 72 6t50 18t41 30t38.5 43t43 67t51.5 106h96l-77 -362h-887l10 49l908 1224h-307q-42 0 -67 -4.5t-44 -14t-34 -22t-35.5 -37t-45 -63.5t-56.5 -105h-96l74 338h866l-11 -48zM884 1699l-46 -194h-177l46 194h177z" />
    <glyph glyph-name="Eng" unicode="&#x14a;" horiz-adv-x="1374" 
d="M900 0l-292 858q-53 154 -93 307h-13q-6 -51 -33 -194.5t-57 -280.5l-88 -399q-9 -42 -15 -81t-6 -75q0 -45 22.5 -63.5t75.5 -22.5l-11 -49h-350l11 49q38 6 57 19.5t32 37.5t24 58.5t33 133.5l170 770q10 43 16 82t6 79q0 47 -24 65.5t-74 21.5l11 49h319l264 -779
q57 -168 88 -284h11q8 61 36.5 203t52.5 248l70 315q7 33 14.5 78t7.5 83q0 47 -24 65.5t-74 21.5l11 49h350l-11 -49q-38 -8 -54.5 -18t-30 -30t-27 -62.5t-34.5 -138.5l-223 -1013q-34 -156 -83 -250.5t-124.5 -146.5t-192.5 -52q-81 0 -134 20l39 187h101q3 -72 61 -72
q39 0 72 21.5t64 79.5t54 159h-5z" />
    <glyph glyph-name="Eth" unicode="&#xd0;" horiz-adv-x="1330" 
d="M122 761h185l68 307q10 45 16 88t6 73q0 47 -24 65.5t-74 21.5l11 49h379q151 0 245 -23t175.5 -83t122.5 -159.5t41 -235.5q0 -135 -31 -258t-89 -226.5t-139 -180t-157 -117.5t-170 -61.5t-219 -20.5h-420l11 49q38 6 57 19.5t32 37.5t24 58.5t33 133.5l82 371h-185z
M484 761h304l-20 -92h-304l-126 -577q29 -3 111 -3q101 0 183.5 22t152 70.5t126.5 129.5t92.5 164.5t55.5 179.5t20 203q0 209 -97.5 314.5t-289.5 105.5q-44 0 -95 -3z" />
    <glyph glyph-name="Thorn" unicode="&#xde;" horiz-adv-x="1147" 
d="M383 326l-7 -35q-10 -52 -15.5 -88.5t-5.5 -67.5q0 -45 22.5 -63.5t75.5 -22.5l-11 -49h-400l11 49q38 6 57 19.5t32 37.5t24 58.5t33 133.5l170 770q10 46 16 88.5t6 72.5q0 47 -24 65.5t-74 21.5l11 49h400l-11 -49q-36 -7 -52.5 -16.5t-29.5 -28t-25.5 -54
t-29.5 -111.5h131q119 0 195.5 -18.5t126 -57t74 -97.5t24.5 -137q0 -150 -71 -260t-192.5 -162t-291.5 -52q-101 0 -169 4zM535 1015l-133 -606h101q121 0 195.5 25t122 77.5t73.5 124.5t26 158q0 85 -30 134t-85 69.5t-140 20.5q-62 0 -130 -3z" />
    <glyph glyph-name="a" unicode="a" horiz-adv-x="1077" 
d="M834 907l92 66l64 -16l-153 -679q-14 -60 -19 -92.5t-5 -53.5q0 -41 23 -59.5t88 -23.5l-9 -49h-286l63 251l-13 4q-96 -140 -182 -205t-182 -65q-110 0 -170.5 83t-60.5 233q0 96 22 192.5t66.5 183t106.5 152.5t143.5 105t177.5 39q62 0 118 -14.5t116 -51.5zM746 609
q9 41 12 71t3 65q0 78 -33 113.5t-110 35.5q-42 0 -80 -13.5t-77 -45t-74.5 -82.5t-64.5 -124t-45 -156.5t-16 -162.5q0 -104 28.5 -155.5t95.5 -51.5q31 0 64.5 14t74.5 51.5t93 110.5q47 67 74.5 132.5t45.5 154.5z" />
    <glyph glyph-name="b" unicode="b" horiz-adv-x="1067" 
d="M233 49l-92 -65l-64 16l259 1143q6 25 14.5 72t8.5 76q0 42 -25.5 59t-91.5 19l12 52l253 9h58l-176 -700l13 -4q97 130 182 188t170 58q109 0 169.5 -83t60.5 -234q0 -108 -29.5 -217t-82 -197t-117 -144.5t-136 -84.5t-150.5 -28q-133 0 -236 65zM321 348
q-10 -45 -12.5 -76.5t-2.5 -59.5q0 -79 34.5 -114t114.5 -35q52 0 95 20t81.5 58.5t70 93.5t55.5 125.5t36.5 146t12.5 140.5q0 104 -29.5 156t-94.5 52q-48 0 -94.5 -30.5t-103.5 -101t-93 -144.5t-61 -189z" />
    <glyph glyph-name="c" unicode="c" horiz-adv-x="887" 
d="M735 716q-2 76 -12.5 110t-34 51t-66.5 17q-101 0 -181.5 -80.5t-131.5 -228t-51 -283.5q0 -42 7.5 -79t26 -64t49 -42.5t77.5 -15.5q91 0 157.5 34.5t140.5 108.5l61 -61q-94 -104 -189.5 -152t-205.5 -48q-145 0 -220 86t-75 250q0 107 40 235t117 225t180 145t220 48
q80 0 139.5 -9t105.5 -21l-49 -226h-105z" />
    <glyph glyph-name="d" unicode="d" horiz-adv-x="1073" 
d="M870 1148q8 33 14 73t6 70t-11 45.5t-31.5 22.5t-73.5 10l12 52l251 9h59l-259 -1152q-14 -63 -19 -94t-5 -52q0 -41 23 -59.5t88 -23.5l-9 -49h-286l63 251l-13 4q-96 -140 -182 -205t-182 -65q-110 0 -170.5 83t-60.5 233q0 96 22 192.5t66.5 183t106.5 152.5
t143.5 105t177.5 39q61 0 112.5 -12.5t105.5 -43.5zM746 609q15 72 15 136q0 78 -33 113.5t-110 35.5q-42 0 -80 -13.5t-77 -45t-74.5 -82.5t-64.5 -124t-45 -156.5t-16 -162.5q0 -104 28.5 -155.5t95.5 -51.5q31 0 64.5 14t74.5 51.5t93 110.5q47 67 74.5 132.5t45.5 154.5
z" />
    <glyph glyph-name="e" unicode="e" horiz-adv-x="936" 
d="M814 199q-74 -81 -142 -128t-136 -67t-150 -20q-79 0 -136 25.5t-94.5 70t-55.5 106t-18 133.5q0 107 38.5 229.5t116.5 220t187 151t232 53.5q121 0 181.5 -49t60.5 -153q0 -170 -159.5 -255t-473.5 -85q-12 -60 -12 -130q0 -105 41 -152.5t134 -47.5q92 0 167 40
t157 123zM282 516q92 1 161.5 10.5t119.5 26t83 39.5t52.5 50.5t27 58t7.5 63.5q0 61 -28.5 95.5t-84.5 34.5q-70 0 -137.5 -50.5t-119 -136t-81.5 -191.5z" />
    <glyph glyph-name="f" unicode="f" horiz-adv-x="599" 
d="M254 -17q-34 -160 -93.5 -254t-144.5 -135t-206 -41q-44 0 -79 10l23 88q24 -8 70 -8q53 0 86.5 14t62 45.5t54 92t48.5 159.5l203 901h-121l12 51q49 5 69 13.5t32.5 23t22.5 41t29 91.5q53 180 163.5 270.5t281.5 90.5q98 0 169 -16l-39 -170h-88q-14 57 -36.5 82
t-66.5 25q-57 0 -97 -31t-68.5 -93.5t-52.5 -167.5l-25 -109h229l-22 -101h-230z" />
    <glyph glyph-name="g" unicode="g" horiz-adv-x="1070" 
d="M102 -86q-19 -23 -32 -45.5t-18.5 -43.5t-5.5 -50q0 -75 54 -109.5t163 -34.5q99 0 165 35t112 107.5t80.5 179t70.5 284.5l-14 3q-97 -133 -180 -194t-179 -61q-109 0 -169.5 82t-60.5 234q0 111 29 219t81 195t117.5 144.5t138.5 85.5t152 28q63 0 119 -15t113 -51
l92 66l64 -16l-104 -469q-11 -50 -23 -113l-26 -131q-47 -236 -75 -325q-34 -103 -80 -172q-43 -63 -102 -105.5t-136.5 -65.5t-182.5 -23q-378 0 -378 220q0 56 34 102t109 97zM389 103q51 0 101.5 35t108 111t89.5 145t54.5 172t22.5 179q0 78 -33 113.5t-110 35.5
q-42 0 -80 -13.5t-77 -45t-74.5 -82.5t-64.5 -124t-45 -156.5t-16 -162.5q0 -104 30 -155.5t94 -51.5z" />
    <glyph glyph-name="h" unicode="h" horiz-adv-x="1086" 
d="M933 0h-314l126 508q14 55 24.5 111.5t10.5 102.5q0 72 -24 102.5t-81 30.5q-41 0 -90.5 -34t-104.5 -103.5t-87.5 -133t-51.5 -151.5l-91 -433h-173l257 1143q11 50 15.5 72.5t6.5 41.5t2 34q0 42 -25.5 59t-91.5 19l12 52l253 9h58l-172 -693l12 -4q94 125 179 182
t173 57q97 0 147 -53.5t50 -158.5q0 -64 -20 -154l-84 -356q-10 -43 -14 -69t-4 -45q0 -31 10.5 -48t32 -25.5t68.5 -13.5z" />
    <glyph glyph-name="i" unicode="i" horiz-adv-x="555" 
d="M560 1348l-46 -194h-177l46 194h177zM313 250q-11 -51 -14 -74.5t-3 -39.5q0 -30 10 -47t31 -26t69 -14l-9 -49h-310l151 674q13 58 18 92.5t5 57.5q0 29 -8.5 45t-28.5 24t-69 10l11 53l244 9h59z" />
    <glyph glyph-name="j" unicode="j" horiz-adv-x="545" 
d="M563 1348l-46 -194h-177l46 194h177zM262 -17q-32 -152 -87 -244.5t-143 -139t-210 -46.5q-50 0 -85 10l23 88q16 -5 35.5 -6.5t40.5 -1.5q48 0 81.5 14.5t62.5 48t53.5 93.5t45.5 155l162 720q13 56 18 91t5 59q0 29 -8.5 45t-28.5 24t-69 10l11 53l244 9h57z" />
    <glyph glyph-name="k" unicode="k" horiz-adv-x="1018" 
d="M368 557h32q31 0 67 12t77 37.5t110 80.5q52 42 77 71.5t34 51.5t9 42q0 49 -68 55l11 49h324l19 -49q-83 -75 -176 -147l-253 -197l150 -379q20 -51 41 -78.5t48.5 -40.5t70.5 -16l-11 -49h-267l-146 411q-14 39 -24 53t-23 20t-42 6h-74l-104 -490h-173l257 1143
q11 50 15.5 72.5t6.5 41.5t2 34q0 42 -25.5 59t-91.5 19l12 52l253 9h58z" />
    <glyph glyph-name="l" unicode="l" horiz-adv-x="546" 
d="M505 1430h59l-260 -1180q-11 -48 -14 -72.5t-3 -41.5q0 -30 10 -47t31 -26t69 -14l-8 -49h-312l258 1148q10 44 14 66t6 42t2 35q0 30 -11 45.5t-31.5 22.5t-73.5 10l12 52z" />
    <glyph glyph-name="m" unicode="m" horiz-adv-x="1636" 
d="M959 760v-14q0 -7 -1 -15q87 123 173 182t178 59q95 0 144.5 -53.5t49.5 -158.5q0 -64 -20 -154l-84 -356q-17 -72 -17 -114q0 -30 10 -47t31 -26t69 -14l-9 -49h-314l126 508q14 55 24.5 111.5t10.5 102.5q0 72 -25 102.5t-79 30.5q-39 0 -87.5 -32t-101.5 -98
t-86.5 -130.5t-53.5 -157.5l-91 -437h-173l115 508q21 93 28.5 137.5t7.5 76.5q0 72 -25.5 102.5t-79.5 30.5q-40 0 -88.5 -32.5t-102.5 -100.5t-86.5 -133.5t-50.5 -155.5l-91 -433h-173l152 683q5 23 13.5 68t8.5 75q0 28 -8.5 43.5t-29 23t-69.5 10.5l12 53l228 9h56
l-66 -259l12 -4q92 137 183 203.5t184 66.5q96 0 146 -54.5t50 -157.5z" />
    <glyph glyph-name="n" unicode="n" horiz-adv-x="1096" 
d="M943 0h-315l127 508q12 49 23.5 108t11.5 106q0 71 -24.5 102t-76.5 31q-42 0 -90.5 -32.5t-101.5 -97t-89.5 -131t-56.5 -161.5l-91 -433h-173l152 683q5 23 13.5 68t8.5 75q0 28 -8.5 43.5t-29 23t-69.5 10.5l12 53l227 9h57l-67 -260l12 -4q98 138 189 204.5t182 66.5
q97 0 147 -53.5t50 -158.5q0 -36 -6.5 -78.5t-14.5 -75.5l-84 -356q-17 -72 -17 -114q0 -30 10 -47t31 -26t69 -14z" />
    <glyph glyph-name="o" unicode="o" horiz-adv-x="1038" 
d="M409 -17q-155 0 -240.5 87t-85.5 250q0 60 15 141q19 105 54 186q45 101 115.5 174.5t162 112t196.5 38.5q115 0 188.5 -44t106.5 -119.5t33 -174.5q0 -89 -25 -190q-36 -148 -105 -251t-173 -156.5t-242 -53.5zM258 277q0 -110 45.5 -162.5t137.5 -52.5q98 0 174 88
t120 246.5t44 278.5q0 108 -42 162.5t-131 54.5q-104 0 -181.5 -87t-122 -249t-44.5 -279z" />
    <glyph glyph-name="p" unicode="p" horiz-adv-x="1079" 
d="M214 -177q-10 -48 -12.5 -74t-2.5 -43q0 -30 10 -47t31 -26t69 -14l-8 -49h-309l253 1112q19 84 19 144q0 28 -8.5 43.5t-29 23t-69.5 10.5l12 53l227 9h57l-67 -260l12 -4q185 271 368 271q109 0 169.5 -83t60.5 -234q0 -108 -29.5 -217t-82 -197t-117 -144.5
t-136 -84.5t-150.5 -28q-133 0 -221 58zM334 348q-10 -53 -12.5 -81t-2.5 -55q0 -78 33.5 -113.5t115.5 -35.5q51 0 94 20t81.5 58t69.5 92t55.5 125.5t37 147t12.5 141.5q0 105 -29.5 156.5t-93.5 51.5q-51 0 -100.5 -34.5t-108.5 -110.5t-92 -150t-52 -170z" />
    <glyph glyph-name="q" unicode="q" horiz-adv-x="1068" 
d="M666 232q-90 -127 -175.5 -187t-174.5 -60q-110 0 -170.5 83t-60.5 233q0 96 22 192.5t66.5 183t106.5 152.5t143.5 105t177.5 39q62 0 118 -14.5t116 -51.5l92 66l64 -16l-256 -1137q-17 -76 -17 -114q0 -31 10 -47.5t31.5 -25.5t69.5 -14l-9 -49h-312l172 656zM747 609
q9 44 12 75.5t3 60.5q0 78 -33 113.5t-110 35.5q-42 0 -80 -13.5t-77 -45t-74.5 -82.5t-64.5 -124t-45 -156.5t-16 -162.5q0 -104 28.5 -155.5t95.5 -51.5q31 0 64.5 14t74.5 51.5t93 110.5q47 67 74.5 132.5t45.5 154.5z" />
    <glyph glyph-name="r" unicode="r" horiz-adv-x="834" 
d="M398 965h60l-70 -246l12 -4q95 131 185.5 194t186.5 63q73 0 122 -11l-48 -224h-103q-8 52 -25 79t-53 27q-39 0 -90 -40t-104 -110t-79.5 -129t-40.5 -131l-91 -433h-173l152 683q21 94 21 143q0 28 -9 43.5t-29 23t-68 10.5l11 53z" />
    <glyph glyph-name="s" unicode="s" horiz-adv-x="782" 
d="M660 723q-11 90 -51.5 130.5t-125.5 40.5q-47 0 -85 -17.5t-60 -51t-22 -78.5q0 -37 15 -67.5t50.5 -63.5t99.5 -76q97 -65 136 -126t39 -141q0 -94 -45 -159.5t-123 -97.5t-176 -32q-88 0 -164.5 13t-148.5 33l47 216h78q7 -92 52.5 -137.5t132.5 -45.5q89 0 139 44.5
t50 117.5q0 43 -15 77t-47 65t-91 71q-63 43 -102 81t-60.5 83.5t-21.5 100.5q0 83 41 144t116.5 93t176.5 32q165 0 291 -43l-46 -206h-80z" />
    <glyph glyph-name="t" unicode="t" horiz-adv-x="707" 
d="M675 184q-82 -99 -162 -149.5t-170 -50.5q-106 0 -158 54t-52 157q0 63 18 141l124 519h-149l11 51q59 7 93.5 25.5t58 49t43.5 79.5t50 143h138l-55 -247h317l-22 -101h-318l-96 -388q-40 -162 -40 -242q0 -61 26.5 -92.5t77.5 -31.5q46 0 96.5 35.5t110.5 107.5z" />
    <glyph glyph-name="u" unicode="u" horiz-adv-x="1096" 
d="M153 956h315l-127 -509q-14 -56 -24.5 -111.5t-10.5 -101.5q0 -71 24.5 -102t76.5 -31q43 0 93 33.5t106 104t88.5 133.5t50.5 150l91 434h173l-152 -683q-6 -27 -14 -71t-8 -72q0 -42 23.5 -59.5t87.5 -21.5l-11 -49h-286l64 251l-13 4q-97 -138 -187.5 -204.5
t-182.5 -66.5q-97 0 -147 53.5t-50 158.5q0 30 5.5 70.5t15.5 84.5l84 355q10 44 13.5 70t3.5 44q0 45 -24 63t-86 23z" />
    <glyph glyph-name="v" unicode="v" horiz-adv-x="942" 
d="M934 956l27 -50q-37 -89 -56.5 -132t-53 -107.5t-75 -135.5t-94.5 -152l-120.5 -178l-158.5 -217h-125l-93 755q-9 73 -19.5 104.5t-30.5 46t-63 17.5l11 49h257l76 -795q172 237 255 399t83 263q0 47 -20 64t-68 20l10 49h258z" />
    <glyph glyph-name="w" unicode="w" horiz-adv-x="1490" 
d="M979 166q156 222 237.5 387.5t81.5 269.5q0 47 -20 64t-68 20l10 49h258l27 -50q-35 -89 -56 -137t-55 -115.5t-72 -134.5t-89.5 -147.5l-115.5 -175l-151 -212.5h-119l-41 418q-5 49 -10.5 128t-7.5 122l-11 1q-54 -133 -147 -296t-230 -373h-134l-76 753q-6 58 -15 94
t-30 54t-69 22l11 49h262l60 -789q141 230 203.5 350t92.5 207.5t46 182.5l11 49h144z" />
    <glyph glyph-name="x" unicode="x" horiz-adv-x="920" 
d="M946 907q-194 -207 -406 -409l93 -219q37 -88 59 -129.5t40 -60t36 -27t57 -13.5l-11 -49h-249l-139 402q-24 -21 -63.5 -58.5t-76.5 -80t-52 -68.5t-19.5 -45t-4.5 -39q0 -26 14.5 -41t49.5 -21l-11 -49h-285l-19 49q219 235 431 433l-95 223q-29 68 -47 103.5t-34.5 55
t-38 30t-61.5 13.5l11 49h249l133 -377q49 45 93 93t62 76t25 50t7 46q0 55 -64 63l11 49h285z" />
    <glyph glyph-name="y" unicode="y" horiz-adv-x="942" 
d="M185 738q-10 76 -19 105.5t-29 45t-65 18.5l11 49h257l76 -795q338 462 338 662q0 47 -20 64t-68 20l10 49h258l27 -50q-53 -139 -135.5 -288t-202 -326t-265.5 -368q-112 -147 -188 -222q-59 -57 -108.5 -86.5t-96 -42t-98.5 -12.5q-27 0 -61 5.5t-58 14.5l43 187h78
q1 -34 16 -54t44 -20q32 0 55 6.5t48.5 21.5t62 48t82.5 87.5t103 131.5z" />
    <glyph glyph-name="z" unicode="z" horiz-adv-x="921" 
d="M797 281l-61 -281h-724l-19 49l547 630q116 133 170 189l-6 7h-234q-52 0 -76 -7t-48 -24.5t-51.5 -52t-61.5 -98.5h-89l59 263h711l19 -50l-718 -818l6 -7h226q60 0 92 6.5t56 24.5t49.5 54.5t63.5 114.5h89z" />
    <glyph glyph-name="agrave" unicode="&#xe0;" horiz-adv-x="1077" 
d="M834 907l92 66l64 -16l-153 -679q-14 -60 -19 -92.5t-5 -53.5q0 -41 23 -59.5t88 -23.5l-9 -49h-286l63 251l-13 4q-96 -140 -182 -205t-182 -65q-110 0 -170.5 83t-60.5 233q0 96 22 192.5t66.5 183t106.5 152.5t143.5 105t177.5 39q62 0 118 -14.5t116 -51.5zM746 609
q9 41 12 71t3 65q0 78 -33 113.5t-110 35.5q-42 0 -80 -13.5t-77 -45t-74.5 -82.5t-64.5 -124t-45 -156.5t-16 -162.5q0 -104 28.5 -155.5t95.5 -51.5q31 0 64.5 14t74.5 51.5t93 110.5q47 67 74.5 132.5t45.5 154.5zM667 1442l133 -328l-71 -44l-235 322l11 50h162z" />
    <glyph glyph-name="aacute" unicode="&#xe1;" horiz-adv-x="1077" 
d="M834 907l92 66l64 -16l-153 -679q-14 -60 -19 -92.5t-5 -53.5q0 -41 23 -59.5t88 -23.5l-9 -49h-286l63 251l-13 4q-96 -140 -182 -205t-182 -65q-110 0 -170.5 83t-60.5 233q0 96 22 192.5t66.5 183t106.5 152.5t143.5 105t177.5 39q62 0 118 -14.5t116 -51.5zM746 609
q9 41 12 71t3 65q0 78 -33 113.5t-110 35.5q-42 0 -80 -13.5t-77 -45t-74.5 -82.5t-64.5 -124t-45 -156.5t-16 -162.5q0 -104 28.5 -155.5t95.5 -51.5q31 0 64.5 14t74.5 51.5t93 110.5q47 67 74.5 132.5t45.5 154.5zM1001 1442l-11 -50l-374 -322l-62 60l263 312h184z" />
    <glyph glyph-name="acircumflex" unicode="&#xe2;" horiz-adv-x="1077" 
d="M834 907l92 66l64 -16l-153 -679q-14 -60 -19 -92.5t-5 -53.5q0 -41 23 -59.5t88 -23.5l-9 -49h-286l63 251l-13 4q-96 -140 -182 -205t-182 -65q-110 0 -170.5 83t-60.5 233q0 96 22 192.5t66.5 183t106.5 152.5t143.5 105t177.5 39q62 0 118 -14.5t116 -51.5zM746 609
q9 41 12 71t3 65q0 78 -33 113.5t-110 35.5q-42 0 -80 -13.5t-77 -45t-74.5 -82.5t-64.5 -124t-45 -156.5t-16 -162.5q0 -104 28.5 -155.5t95.5 -51.5q31 0 64.5 14t74.5 51.5t93 110.5q47 67 74.5 132.5t45.5 154.5zM819 1432l132 -337l-79 -35l-138 243h-10l-256 -243
l-62 57l277 315h136z" />
    <glyph glyph-name="atilde" unicode="&#xe3;" horiz-adv-x="1077" 
d="M834 907l92 66l64 -16l-153 -679q-14 -60 -19 -92.5t-5 -53.5q0 -41 23 -59.5t88 -23.5l-9 -49h-286l63 251l-13 4q-96 -140 -182 -205t-182 -65q-110 0 -170.5 83t-60.5 233q0 96 22 192.5t66.5 183t106.5 152.5t143.5 105t177.5 39q62 0 118 -14.5t116 -51.5zM746 609
q9 41 12 71t3 65q0 78 -33 113.5t-110 35.5q-42 0 -80 -13.5t-77 -45t-74.5 -82.5t-64.5 -124t-45 -156.5t-16 -162.5q0 -104 28.5 -155.5t95.5 -51.5q31 0 64.5 14t74.5 51.5t93 110.5q47 67 74.5 132.5t45.5 154.5zM970 1365l69 -48q-50 -75 -88.5 -116t-70.5 -57t-71 -16
q-23 0 -42 6t-35.5 16t-49.5 38q-30 24 -43 33t-25 13.5t-25 4.5q-25 0 -45 -9.5t-44 -34.5t-54 -67l-70 47q61 87 93 122t64.5 51.5t77.5 16.5q16 0 29.5 -3.5t26.5 -9.5t23 -13t39 -30q41 -34 60.5 -44.5t39.5 -10.5q23 0 43 10t44 34t54 67z" />
    <glyph glyph-name="adieresis" unicode="&#xe4;" horiz-adv-x="1077" 
d="M834 907l92 66l64 -16l-153 -679q-14 -60 -19 -92.5t-5 -53.5q0 -41 23 -59.5t88 -23.5l-9 -49h-286l63 251l-13 4q-96 -140 -182 -205t-182 -65q-110 0 -170.5 83t-60.5 233q0 96 22 192.5t66.5 183t106.5 152.5t143.5 105t177.5 39q62 0 118 -14.5t116 -51.5zM746 609
q9 41 12 71t3 65q0 78 -33 113.5t-110 35.5q-42 0 -80 -13.5t-77 -45t-74.5 -82.5t-64.5 -124t-45 -156.5t-16 -162.5q0 -104 28.5 -155.5t95.5 -51.5q31 0 64.5 14t74.5 51.5t93 110.5q47 67 74.5 132.5t45.5 154.5zM971 1339l-38 -176h-165l38 176h165zM649 1339l-38 -176
h-165l38 176h165z" />
    <glyph glyph-name="amacron" unicode="&#x101;" horiz-adv-x="1077" 
d="M834 907l92 66l64 -16l-153 -679q-14 -60 -19 -92.5t-5 -53.5q0 -41 23 -59.5t88 -23.5l-9 -49h-286l63 251l-13 4q-96 -140 -182 -205t-182 -65q-110 0 -170.5 83t-60.5 233q0 96 22 192.5t66.5 183t106.5 152.5t143.5 105t177.5 39q62 0 118 -14.5t116 -51.5zM746 609
q9 41 12 71t3 65q0 78 -33 113.5t-110 35.5q-42 0 -80 -13.5t-77 -45t-74.5 -82.5t-64.5 -124t-45 -156.5t-16 -162.5q0 -104 28.5 -155.5t95.5 -51.5q31 0 64.5 14t74.5 51.5t93 110.5q47 67 74.5 132.5t45.5 154.5zM946 1188h-501l26 125h501z" />
    <glyph glyph-name="abreve" unicode="&#x103;" horiz-adv-x="1077" 
d="M834 907l92 66l64 -16l-153 -679q-14 -60 -19 -92.5t-5 -53.5q0 -41 23 -59.5t88 -23.5l-9 -49h-286l63 251l-13 4q-96 -140 -182 -205t-182 -65q-110 0 -170.5 83t-60.5 233q0 96 22 192.5t66.5 183t106.5 152.5t143.5 105t177.5 39q62 0 118 -14.5t116 -51.5zM746 609
q9 41 12 71t3 65q0 78 -33 113.5t-110 35.5q-42 0 -80 -13.5t-77 -45t-74.5 -82.5t-64.5 -124t-45 -156.5t-16 -162.5q0 -104 28.5 -155.5t95.5 -51.5q31 0 64.5 14t74.5 51.5t93 110.5q47 67 74.5 132.5t45.5 154.5zM1030 1369q-58 -98 -116.5 -153.5t-119 -79
t-136.5 -23.5q-101 0 -156 76.5t-55 215.5l81 15q12 -180 153 -180q58 0 100.5 15t85.5 51.5t92 104.5z" />
    <glyph glyph-name="aring" unicode="&#xe5;" horiz-adv-x="1077" 
d="M834 907l92 66l64 -16l-153 -679q-14 -60 -19 -92.5t-5 -53.5q0 -41 23 -59.5t88 -23.5l-9 -49h-286l63 251l-13 4q-96 -140 -182 -205t-182 -65q-110 0 -170.5 83t-60.5 233q0 96 22 192.5t66.5 183t106.5 152.5t143.5 105t177.5 39q62 0 118 -14.5t116 -51.5zM746 609
q9 41 12 71t3 65q0 78 -33 113.5t-110 35.5q-42 0 -80 -13.5t-77 -45t-74.5 -82.5t-64.5 -124t-45 -156.5t-16 -162.5q0 -104 28.5 -155.5t95.5 -51.5q31 0 64.5 14t74.5 51.5t93 110.5q47 67 74.5 132.5t45.5 154.5zM669 1071q-86 0 -132.5 38.5t-46.5 109.5q0 46 16.5 94
t53.5 84.5t87.5 55.5t107.5 19q90 0 135.5 -38.5t45.5 -110.5q0 -66 -31 -126t-92 -93t-144 -33zM591 1225q0 -42 21.5 -67t67.5 -25q48 0 84 28.5t53.5 72.5t17.5 85q0 44 -23 67.5t-65 23.5q-43 0 -79 -25t-56.5 -68t-20.5 -92z" />
    <glyph glyph-name="aringacute" unicode="&#x1fb;" horiz-adv-x="1077" 
d="M834 907l92 66l64 -16l-153 -679q-14 -60 -19 -92.5t-5 -53.5q0 -41 23 -59.5t88 -23.5l-9 -49h-286l63 251l-13 4q-96 -140 -182 -205t-182 -65q-110 0 -170.5 83t-60.5 233q0 96 22 192.5t66.5 183t106.5 152.5t143.5 105t177.5 39q62 0 118 -14.5t116 -51.5zM746 609
q9 41 12 71t3 65q0 78 -33 113.5t-110 35.5q-42 0 -80 -13.5t-77 -45t-74.5 -82.5t-64.5 -124t-45 -156.5t-16 -162.5q0 -104 28.5 -155.5t95.5 -51.5q31 0 64.5 14t74.5 51.5t93 110.5q47 67 74.5 132.5t45.5 154.5zM1085 1882l-11 -50l-374 -322l-62 60l263 312h184z
M669 1071q-86 0 -132.5 38.5t-46.5 109.5q0 46 16.5 94t53.5 84.5t87.5 55.5t107.5 19q90 0 135.5 -38.5t45.5 -110.5q0 -66 -31 -126t-92 -93t-144 -33zM591 1225q0 -42 21.5 -67t67.5 -25q48 0 84 28.5t53.5 72.5t17.5 85q0 44 -23 67.5t-65 23.5q-43 0 -79 -25t-56.5 -68
t-20.5 -92z" />
    <glyph glyph-name="aogonek" unicode="&#x105;" horiz-adv-x="1077" 
d="M834 907l92 66l64 -16l-153 -679q-14 -60 -19 -92.5t-5 -53.5q0 -41 23 -59.5t88 -23.5l-9 -49h-86q-111 -85 -155.5 -144t-44.5 -111q0 -48 20 -66.5t62 -18.5q33 0 61.5 10.5t50.5 23.5l16 -68q-36 -25 -83 -40.5t-86 -15.5q-87 0 -130 38.5t-43 118.5q0 66 60.5 136
t175.5 137h-104l63 251l-13 4q-96 -140 -182 -205t-182 -65q-110 0 -170.5 83t-60.5 233q0 96 22 192.5t66.5 183t106.5 152.5t143.5 105t177.5 39q62 0 118 -14.5t116 -51.5zM746 609q9 41 12 71t3 65q0 78 -33 113.5t-110 35.5q-42 0 -80 -13.5t-77 -45t-74.5 -82.5
t-64.5 -124t-45 -156.5t-16 -162.5q0 -104 28.5 -155.5t95.5 -51.5q31 0 64.5 14t74.5 51.5t93 110.5q47 67 74.5 132.5t45.5 154.5z" />
    <glyph glyph-name="ae" unicode="&#xe6;" horiz-adv-x="1452" 
d="M1330 199q-74 -81 -142 -128t-136 -67t-150 -20q-108 0 -178 52t-98 152h-10q-87 -104 -179 -154t-192 -50q-104 0 -161 53.5t-57 144.5q0 104 63 180t199 119t348 44l16 78q9 46 12 75t3 51q0 80 -37 117t-113 37q-78 0 -128 -40t-82 -124h-130l28 130q84 44 133 65
t94 34.5t84.5 19t81.5 5.5q84 0 133.5 -37t71.5 -120h10q155 157 358 157q121 0 181.5 -49t60.5 -153q0 -170 -159.5 -255t-473.5 -85q-12 -60 -12 -130q0 -105 41 -152.5t134 -47.5q92 0 167 40t157 123zM798 516q92 1 161.5 10.5t119.5 26t83 39.5t52.5 50.5t27 58
t7.5 63.5q0 61 -28.5 95.5t-84.5 34.5q-70 0 -137.5 -50.5t-119 -136t-81.5 -191.5zM619 443h-8q-89 0 -166 -11.5t-133.5 -38t-88.5 -69t-32 -103.5q0 -124 134 -124q68 0 125.5 35t95.5 94.5t54 131.5z" />
    <glyph glyph-name="aeacute" unicode="&#x1fd;" horiz-adv-x="1452" 
d="M1330 199q-74 -81 -142 -128t-136 -67t-150 -20q-108 0 -178 52t-98 152h-10q-87 -104 -179 -154t-192 -50q-104 0 -161 53.5t-57 144.5q0 104 63 180t199 119t348 44l16 78q9 46 12 75t3 51q0 80 -37 117t-113 37q-78 0 -128 -40t-82 -124h-130l28 130q84 44 133 65
t94 34.5t84.5 19t81.5 5.5q84 0 133.5 -37t71.5 -120h10q155 157 358 157q121 0 181.5 -49t60.5 -153q0 -170 -159.5 -255t-473.5 -85q-12 -60 -12 -130q0 -105 41 -152.5t134 -47.5q92 0 167 40t157 123zM798 516q92 1 161.5 10.5t119.5 26t83 39.5t52.5 50.5t27 58
t7.5 63.5q0 61 -28.5 95.5t-84.5 34.5q-70 0 -137.5 -50.5t-119 -136t-81.5 -191.5zM619 443h-8q-89 0 -166 -11.5t-133.5 -38t-88.5 -69t-32 -103.5q0 -124 134 -124q68 0 125.5 35t95.5 94.5t54 131.5zM1189 1442l-11 -50l-374 -322l-62 60l263 312h184z" />
    <glyph glyph-name="cacute" unicode="&#x107;" horiz-adv-x="887" 
d="M735 716q-2 76 -12.5 110t-34 51t-66.5 17q-101 0 -181.5 -80.5t-131.5 -228t-51 -283.5q0 -42 7.5 -79t26 -64t49 -42.5t77.5 -15.5q91 0 157.5 34.5t140.5 108.5l61 -61q-94 -104 -189.5 -152t-205.5 -48q-145 0 -220 86t-75 250q0 107 40 235t117 225t180 145t220 48
q80 0 139.5 -9t105.5 -21l-49 -226h-105zM939 1442l-11 -50l-374 -322l-62 60l263 312h184z" />
    <glyph glyph-name="ccircumflex" unicode="&#x109;" horiz-adv-x="887" 
d="M735 716q-2 76 -12.5 110t-34 51t-66.5 17q-101 0 -181.5 -80.5t-131.5 -228t-51 -283.5q0 -42 7.5 -79t26 -64t49 -42.5t77.5 -15.5q91 0 157.5 34.5t140.5 108.5l61 -61q-94 -104 -189.5 -152t-205.5 -48q-145 0 -220 86t-75 250q0 107 40 235t117 225t180 145t220 48
q80 0 139.5 -9t105.5 -21l-49 -226h-105zM746 1432l132 -337l-79 -35l-138 243h-10l-256 -243l-62 57l277 315h136z" />
    <glyph glyph-name="ccaron" unicode="&#x10d;" horiz-adv-x="887" 
d="M735 716q-2 76 -12.5 110t-34 51t-66.5 17q-101 0 -181.5 -80.5t-131.5 -228t-51 -283.5q0 -42 7.5 -79t26 -64t49 -42.5t77.5 -15.5q91 0 157.5 34.5t140.5 108.5l61 -61q-94 -104 -189.5 -152t-205.5 -48q-145 0 -220 86t-75 250q0 107 40 235t117 225t180 145t220 48
q80 0 139.5 -9t105.5 -21l-49 -226h-105zM539 1080l-132 335l78 37l138 -243h10l256 243l63 -57l-278 -315h-135z" />
    <glyph glyph-name="cdotaccent" unicode="&#x10b;" horiz-adv-x="887" 
d="M735 716q-2 76 -12.5 110t-34 51t-66.5 17q-101 0 -181.5 -80.5t-131.5 -228t-51 -283.5q0 -42 7.5 -79t26 -64t49 -42.5t77.5 -15.5q91 0 157.5 34.5t140.5 108.5l61 -61q-94 -104 -189.5 -152t-205.5 -48q-145 0 -220 86t-75 250q0 107 40 235t117 225t180 145t220 48
q80 0 139.5 -9t105.5 -21l-49 -226h-105zM747 1348l-46 -194h-177l46 194h177z" />
    <glyph glyph-name="ccedilla" unicode="&#xe7;" horiz-adv-x="887" 
d="M735 716q-2 76 -12.5 110t-34 51t-66.5 17q-101 0 -181.5 -80.5t-131.5 -228t-51 -283.5q0 -42 7.5 -79t26 -64t49 -42.5t77.5 -15.5q91 0 157.5 34.5t140.5 108.5l61 -61q-103 -115 -210 -162l-161 -108q4 -14 4 -49q0 -125 -94.5 -202.5t-267.5 -91.5v76q96 8 148.5 58
t54.5 145l7 34l163 102q-11 -2 -39 -2q-145 0 -220 86t-75 250q0 107 40 235t117 225t180 145t220 48q80 0 139.5 -9t105.5 -21l-49 -226h-105z" />
    <glyph glyph-name="dcaron" unicode="&#x10f;" horiz-adv-x="1305" 
d="M870 1148q8 33 14 73t6 70t-11 45.5t-31.5 22.5t-73.5 10l12 52l251 9h59l-259 -1152q-14 -63 -19 -94t-5 -52q0 -41 23 -59.5t88 -23.5l-9 -49h-286l63 251l-13 4q-96 -140 -182 -205t-182 -65q-110 0 -170.5 83t-60.5 233q0 96 22 192.5t66.5 183t106.5 152.5
t143.5 105t177.5 39q61 0 112.5 -12.5t105.5 -43.5zM746 609q15 72 15 136q0 78 -33 113.5t-110 35.5q-42 0 -80 -13.5t-77 -45t-74.5 -82.5t-64.5 -124t-45 -156.5t-16 -162.5q0 -104 28.5 -155.5t95.5 -51.5q31 0 64.5 14t74.5 51.5t93 110.5q47 67 74.5 132.5t45.5 154.5
zM1452 1431q2 -10 2 -49q0 -70 -14.5 -121t-43 -92t-73 -81t-132.5 -105l-47 62q77 63 115.5 155t38.5 231h154z" />
    <glyph glyph-name="dcroat" unicode="&#x111;" horiz-adv-x="1073" 
d="M565 1218h318q7 36 7 74q0 30 -11 45.5t-31.5 22.5t-73.5 10l12 52l251 9h59l-48 -213h139l-19 -88h-140l-191 -852q-13 -59 -18.5 -91t-5.5 -55q0 -41 23 -59.5t88 -23.5l-9 -49h-286l63 251l-13 4q-96 -140 -182 -205t-182 -65q-110 0 -170.5 83t-60.5 233
q0 96 22 192.5t66.5 183t106.5 152.5t143.5 105t177.5 39q61 0 112.5 -12.5t105.5 -43.5l47 213h-319zM746 609q15 72 15 136q0 78 -33 113.5t-110 35.5q-42 0 -80 -13.5t-77 -45t-74.5 -82.5t-64.5 -124t-45 -156.5t-16 -162.5q0 -104 28.5 -155.5t95.5 -51.5q31 0 64.5 14
t74.5 51.5t93 110.5q47 67 74.5 132.5t45.5 154.5z" />
    <glyph glyph-name="egrave" unicode="&#xe8;" horiz-adv-x="936" 
d="M814 199q-74 -81 -142 -128t-136 -67t-150 -20q-79 0 -136 25.5t-94.5 70t-55.5 106t-18 133.5q0 107 38.5 229.5t116.5 220t187 151t232 53.5q121 0 181.5 -49t60.5 -153q0 -170 -159.5 -255t-473.5 -85q-12 -60 -12 -130q0 -105 41 -152.5t134 -47.5q92 0 167 40
t157 123zM282 516q92 1 161.5 10.5t119.5 26t83 39.5t52.5 50.5t27 58t7.5 63.5q0 61 -28.5 95.5t-84.5 34.5q-70 0 -137.5 -50.5t-119 -136t-81.5 -191.5zM632 1442l133 -328l-71 -44l-235 322l11 50h162z" />
    <glyph glyph-name="eacute" unicode="&#xe9;" horiz-adv-x="936" 
d="M814 199q-74 -81 -142 -128t-136 -67t-150 -20q-79 0 -136 25.5t-94.5 70t-55.5 106t-18 133.5q0 107 38.5 229.5t116.5 220t187 151t232 53.5q121 0 181.5 -49t60.5 -153q0 -170 -159.5 -255t-473.5 -85q-12 -60 -12 -130q0 -105 41 -152.5t134 -47.5q92 0 167 40
t157 123zM282 516q92 1 161.5 10.5t119.5 26t83 39.5t52.5 50.5t27 58t7.5 63.5q0 61 -28.5 95.5t-84.5 34.5q-70 0 -137.5 -50.5t-119 -136t-81.5 -191.5zM966 1442l-11 -50l-374 -322l-62 60l263 312h184z" />
    <glyph glyph-name="ecircumflex" unicode="&#xea;" horiz-adv-x="936" 
d="M814 199q-74 -81 -142 -128t-136 -67t-150 -20q-79 0 -136 25.5t-94.5 70t-55.5 106t-18 133.5q0 107 38.5 229.5t116.5 220t187 151t232 53.5q121 0 181.5 -49t60.5 -153q0 -170 -159.5 -255t-473.5 -85q-12 -60 -12 -130q0 -105 41 -152.5t134 -47.5q92 0 167 40
t157 123zM282 516q92 1 161.5 10.5t119.5 26t83 39.5t52.5 50.5t27 58t7.5 63.5q0 61 -28.5 95.5t-84.5 34.5q-70 0 -137.5 -50.5t-119 -136t-81.5 -191.5zM783 1432l132 -337l-79 -35l-138 243h-10l-256 -243l-62 57l277 315h136z" />
    <glyph glyph-name="ecaron" unicode="&#x11b;" horiz-adv-x="936" 
d="M814 199q-74 -81 -142 -128t-136 -67t-150 -20q-79 0 -136 25.5t-94.5 70t-55.5 106t-18 133.5q0 107 38.5 229.5t116.5 220t187 151t232 53.5q121 0 181.5 -49t60.5 -153q0 -170 -159.5 -255t-473.5 -85q-12 -60 -12 -130q0 -105 41 -152.5t134 -47.5q92 0 167 40
t157 123zM282 516q92 1 161.5 10.5t119.5 26t83 39.5t52.5 50.5t27 58t7.5 63.5q0 61 -28.5 95.5t-84.5 34.5q-70 0 -137.5 -50.5t-119 -136t-81.5 -191.5zM566 1080l-132 335l78 37l138 -243h10l256 243l63 -57l-278 -315h-135z" />
    <glyph glyph-name="edieresis" unicode="&#xeb;" horiz-adv-x="936" 
d="M814 199q-74 -81 -142 -128t-136 -67t-150 -20q-79 0 -136 25.5t-94.5 70t-55.5 106t-18 133.5q0 107 38.5 229.5t116.5 220t187 151t232 53.5q121 0 181.5 -49t60.5 -153q0 -170 -159.5 -255t-473.5 -85q-12 -60 -12 -130q0 -105 41 -152.5t134 -47.5q92 0 167 40
t157 123zM282 516q92 1 161.5 10.5t119.5 26t83 39.5t52.5 50.5t27 58t7.5 63.5q0 61 -28.5 95.5t-84.5 34.5q-70 0 -137.5 -50.5t-119 -136t-81.5 -191.5zM936 1339l-38 -176h-165l38 176h165zM614 1339l-38 -176h-165l38 176h165z" />
    <glyph glyph-name="emacron" unicode="&#x113;" horiz-adv-x="936" 
d="M814 199q-74 -81 -142 -128t-136 -67t-150 -20q-79 0 -136 25.5t-94.5 70t-55.5 106t-18 133.5q0 107 38.5 229.5t116.5 220t187 151t232 53.5q121 0 181.5 -49t60.5 -153q0 -170 -159.5 -255t-473.5 -85q-12 -60 -12 -130q0 -105 41 -152.5t134 -47.5q92 0 167 40
t157 123zM282 516q92 1 161.5 10.5t119.5 26t83 39.5t52.5 50.5t27 58t7.5 63.5q0 61 -28.5 95.5t-84.5 34.5q-70 0 -137.5 -50.5t-119 -136t-81.5 -191.5zM910 1188h-501l26 125h501z" />
    <glyph glyph-name="ebreve" unicode="&#x115;" horiz-adv-x="936" 
d="M814 199q-74 -81 -142 -128t-136 -67t-150 -20q-79 0 -136 25.5t-94.5 70t-55.5 106t-18 133.5q0 107 38.5 229.5t116.5 220t187 151t232 53.5q121 0 181.5 -49t60.5 -153q0 -170 -159.5 -255t-473.5 -85q-12 -60 -12 -130q0 -105 41 -152.5t134 -47.5q92 0 167 40
t157 123zM282 516q92 1 161.5 10.5t119.5 26t83 39.5t52.5 50.5t27 58t7.5 63.5q0 61 -28.5 95.5t-84.5 34.5q-70 0 -137.5 -50.5t-119 -136t-81.5 -191.5zM994 1369q-58 -98 -116.5 -153.5t-119 -79t-136.5 -23.5q-101 0 -156 76.5t-55 215.5l81 15q12 -180 153 -180
q58 0 100.5 15t85.5 51.5t92 104.5z" />
    <glyph glyph-name="edotaccent" unicode="&#x117;" horiz-adv-x="936" 
d="M814 199q-74 -81 -142 -128t-136 -67t-150 -20q-79 0 -136 25.5t-94.5 70t-55.5 106t-18 133.5q0 107 38.5 229.5t116.5 220t187 151t232 53.5q121 0 181.5 -49t60.5 -153q0 -170 -159.5 -255t-473.5 -85q-12 -60 -12 -130q0 -105 41 -152.5t134 -47.5q92 0 167 40
t157 123zM282 516q92 1 161.5 10.5t119.5 26t83 39.5t52.5 50.5t27 58t7.5 63.5q0 61 -28.5 95.5t-84.5 34.5q-70 0 -137.5 -50.5t-119 -136t-81.5 -191.5zM783 1348l-46 -194h-177l46 194h177z" />
    <glyph glyph-name="eogonek" unicode="&#x119;" horiz-adv-x="936" 
d="M814 199q-63 -68 -126 -118q-53 -42 -96.5 -83.5t-74.5 -80.5t-48 -70.5t-23.5 -53.5t-6.5 -43q0 -29 6.5 -48t24.5 -30.5t51 -11.5t61.5 10.5t50.5 23.5l16 -68q-36 -25 -83 -40.5t-86 -15.5q-87 0 -130 38.5t-43 118.5q0 64 50.5 133.5t144.5 136.5q-61 -13 -116 -13
q-79 0 -136 25.5t-94.5 70t-55.5 106t-18 133.5q0 107 38.5 229.5t116.5 220t187 151t232 53.5q121 0 181.5 -49t60.5 -153q0 -170 -159.5 -255t-473.5 -85q-12 -60 -12 -130q0 -105 41 -152.5t134 -47.5q92 0 167 40t157 123zM282 516q92 1 161.5 10.5t119.5 26t83 39.5
t52.5 50.5t27 58t7.5 63.5q0 61 -28.5 95.5t-84.5 34.5q-70 0 -137.5 -50.5t-119 -136t-81.5 -191.5z" />
    <glyph glyph-name="gcircumflex" unicode="&#x11d;" horiz-adv-x="1070" 
d="M102 -86q-19 -23 -32 -45.5t-18.5 -43.5t-5.5 -50q0 -75 54 -109.5t163 -34.5q99 0 165 35t112 107.5t80.5 179t70.5 284.5l-14 3q-97 -133 -180 -194t-179 -61q-109 0 -169.5 82t-60.5 234q0 111 29 219t81 195t117.5 144.5t138.5 85.5t152 28q63 0 119 -15t113 -51
l92 66l64 -16l-104 -469q-11 -50 -23 -113l-26 -131q-47 -236 -75 -325q-34 -103 -80 -172q-43 -63 -102 -105.5t-136.5 -65.5t-182.5 -23q-378 0 -378 220q0 56 34 102t109 97zM389 103q51 0 101.5 35t108 111t89.5 145t54.5 172t22.5 179q0 78 -33 113.5t-110 35.5
q-42 0 -80 -13.5t-77 -45t-74.5 -82.5t-64.5 -124t-45 -156.5t-16 -162.5q0 -104 30 -155.5t94 -51.5zM815 1432l132 -337l-79 -35l-138 243h-10l-256 -243l-62 57l277 315h136z" />
    <glyph glyph-name="gbreve" unicode="&#x11f;" horiz-adv-x="1070" 
d="M102 -86q-19 -23 -32 -45.5t-18.5 -43.5t-5.5 -50q0 -75 54 -109.5t163 -34.5q99 0 165 35t112 107.5t80.5 179t70.5 284.5l-14 3q-97 -133 -180 -194t-179 -61q-109 0 -169.5 82t-60.5 234q0 111 29 219t81 195t117.5 144.5t138.5 85.5t152 28q63 0 119 -15t113 -51
l92 66l64 -16l-104 -469q-11 -50 -23 -113l-26 -131q-47 -236 -75 -325q-34 -103 -80 -172q-43 -63 -102 -105.5t-136.5 -65.5t-182.5 -23q-378 0 -378 220q0 56 34 102t109 97zM389 103q51 0 101.5 35t108 111t89.5 145t54.5 172t22.5 179q0 78 -33 113.5t-110 35.5
q-42 0 -80 -13.5t-77 -45t-74.5 -82.5t-64.5 -124t-45 -156.5t-16 -162.5q0 -104 30 -155.5t94 -51.5zM1026 1369q-58 -98 -116.5 -153.5t-119 -79t-136.5 -23.5q-101 0 -156 76.5t-55 215.5l81 15q12 -180 153 -180q58 0 100.5 15t85.5 51.5t92 104.5z" />
    <glyph glyph-name="gdotaccent" unicode="&#x121;" horiz-adv-x="1070" 
d="M102 -86q-19 -23 -32 -45.5t-18.5 -43.5t-5.5 -50q0 -75 54 -109.5t163 -34.5q99 0 165 35t112 107.5t80.5 179t70.5 284.5l-14 3q-97 -133 -180 -194t-179 -61q-109 0 -169.5 82t-60.5 234q0 111 29 219t81 195t117.5 144.5t138.5 85.5t152 28q63 0 119 -15t113 -51
l92 66l64 -16l-104 -469q-11 -50 -23 -113l-26 -131q-47 -236 -75 -325q-34 -103 -80 -172q-43 -63 -102 -105.5t-136.5 -65.5t-182.5 -23q-378 0 -378 220q0 56 34 102t109 97zM389 103q51 0 101.5 35t108 111t89.5 145t54.5 172t22.5 179q0 78 -33 113.5t-110 35.5
q-42 0 -80 -13.5t-77 -45t-74.5 -82.5t-64.5 -124t-45 -156.5t-16 -162.5q0 -104 30 -155.5t94 -51.5zM817 1348l-46 -194h-177l46 194h177z" />
    <glyph glyph-name="gcommaaccent" unicode="&#x123;" horiz-adv-x="1070" 
d="M102 -86q-19 -23 -32 -45.5t-18.5 -43.5t-5.5 -50q0 -75 54 -109.5t163 -34.5q99 0 165 35t112 107.5t80.5 179t70.5 284.5l-14 3q-97 -133 -180 -194t-179 -61q-109 0 -169.5 82t-60.5 234q0 111 29 219t81 195t117.5 144.5t138.5 85.5t152 28q63 0 119 -15t113 -51
l92 66l64 -16l-104 -469q-11 -50 -23 -113l-26 -131q-47 -236 -75 -325q-34 -103 -80 -172q-43 -63 -102 -105.5t-136.5 -65.5t-182.5 -23q-378 0 -378 220q0 56 34 102t109 97zM389 103q51 0 101.5 35t108 111t89.5 145t54.5 172t22.5 179q0 78 -33 113.5t-110 35.5
q-42 0 -80 -13.5t-77 -45t-74.5 -82.5t-64.5 -124t-45 -156.5t-16 -162.5q0 -104 30 -155.5t94 -51.5zM574 1089q-3 27 -3 52q0 70 24.5 123t77 104.5t177.5 136.5l44 -64q-65 -45 -100.5 -92.5t-49.5 -101t-14 -134.5z" />
    <glyph glyph-name="hcircumflex" unicode="&#x125;" horiz-adv-x="1086" 
d="M933 0h-314l126 508q14 55 24.5 111.5t10.5 102.5q0 72 -24 102.5t-81 30.5q-41 0 -90.5 -34t-104.5 -103.5t-87.5 -133t-51.5 -151.5l-91 -433h-173l257 1143q11 50 15.5 72.5t6.5 41.5t2 34q0 42 -25.5 59t-91.5 19l12 52l253 9h58l-172 -693l12 -4q94 125 179 182
t173 57q97 0 147 -53.5t50 -158.5q0 -64 -20 -154l-84 -356q-10 -43 -14 -69t-4 -45q0 -31 10.5 -48t32 -25.5t68.5 -13.5zM896 1795l161 -261l-66 -50l-180 182h-10l-263 -183l-52 62l274 250h136z" />
    <glyph glyph-name="hbar" unicode="&#x127;" horiz-adv-x="1086" 
d="M213 1218h137q8 39 8 73q0 42 -25.5 59t-91.5 19l12 52l253 9h58l-53 -212h324l-19 -88h-327l-97 -393l12 -4q94 125 179 182t173 57q97 0 147 -53.5t50 -158.5q0 -64 -20 -154l-84 -356q-10 -43 -14 -69t-4 -45q0 -31 10.5 -48t32 -25.5t68.5 -13.5l-9 -49h-314l126 508
q14 55 24.5 111.5t10.5 102.5q0 72 -24 102.5t-81 30.5q-41 0 -90.5 -34t-104.5 -103.5t-87.5 -133t-51.5 -151.5l-91 -433h-173l254 1130h-137z" />
    <glyph glyph-name="igrave" unicode="&#xec;" horiz-adv-x="555" 
d="M313 250q-11 -51 -14 -74.5t-3 -39.5q0 -30 10 -47t31 -26t69 -14l-9 -49h-310l151 674q13 58 18 92.5t5 57.5q0 29 -8.5 45t-28.5 24t-69 10l11 53l244 9h59zM399 1442l133 -328l-71 -44l-235 322l11 50h162z" />
    <glyph glyph-name="iacute" unicode="&#xed;" horiz-adv-x="555" 
d="M313 250q-11 -51 -14 -74.5t-3 -39.5q0 -30 10 -47t31 -26t69 -14l-9 -49h-310l151 674q13 58 18 92.5t5 57.5q0 29 -8.5 45t-28.5 24t-69 10l11 53l244 9h59zM731 1442l-11 -50l-374 -322l-62 60l263 312h184z" />
    <glyph glyph-name="icircumflex" unicode="&#xee;" horiz-adv-x="555" 
d="M313 250q-11 -51 -14 -74.5t-3 -39.5q0 -30 10 -47t31 -26t69 -14l-9 -49h-310l151 674q13 58 18 92.5t5 57.5q0 29 -8.5 45t-28.5 24t-69 10l11 53l244 9h59zM551 1432l132 -337l-79 -35l-138 243h-10l-256 -243l-62 57l277 315h136z" />
    <glyph glyph-name="itilde" unicode="&#x129;" horiz-adv-x="555" 
d="M313 250q-11 -51 -14 -74.5t-3 -39.5q0 -30 10 -47t31 -26t69 -14l-9 -49h-310l151 674q13 58 18 92.5t5 57.5q0 29 -8.5 45t-28.5 24t-69 10l11 53l244 9h59zM702 1365l69 -48q-50 -75 -88.5 -116t-70.5 -57t-71 -16q-23 0 -42 6t-35.5 16t-49.5 38q-30 24 -43 33
t-25 13.5t-25 4.5q-25 0 -45 -9.5t-44 -34.5t-54 -67l-70 47q61 87 93 122t64.5 51.5t77.5 16.5q16 0 29.5 -3.5t26.5 -9.5t23 -13t39 -30q41 -34 60.5 -44.5t39.5 -10.5q23 0 43 10t44 34t54 67z" />
    <glyph glyph-name="idieresis" unicode="&#xef;" horiz-adv-x="555" 
d="M313 250q-11 -51 -14 -74.5t-3 -39.5q0 -30 10 -47t31 -26t69 -14l-9 -49h-310l151 674q13 58 18 92.5t5 57.5q0 29 -8.5 45t-28.5 24t-69 10l11 53l244 9h59zM703 1339l-38 -176h-165l38 176h165zM381 1339l-38 -176h-165l38 176h165z" />
    <glyph glyph-name="imacron" unicode="&#x12b;" horiz-adv-x="555" 
d="M313 250q-11 -51 -14 -74.5t-3 -39.5q0 -30 10 -47t31 -26t69 -14l-9 -49h-310l151 674q13 58 18 92.5t5 57.5q0 29 -8.5 45t-28.5 24t-69 10l11 53l244 9h59zM678 1188h-501l26 125h501z" />
    <glyph glyph-name="ibreve" unicode="&#x12d;" horiz-adv-x="555" 
d="M313 250q-11 -51 -14 -74.5t-3 -39.5q0 -30 10 -47t31 -26t69 -14l-9 -49h-310l151 674q13 58 18 92.5t5 57.5q0 29 -8.5 45t-28.5 24t-69 10l11 53l244 9h59zM762 1369q-58 -98 -116.5 -153.5t-119 -79t-136.5 -23.5q-101 0 -156 76.5t-55 215.5l81 15q12 -180 153 -180
q58 0 100.5 15t85.5 51.5t92 104.5z" />
    <glyph glyph-name="iogonek" unicode="&#x12f;" horiz-adv-x="555" 
d="M560 1348l-46 -194h-177l46 194h177zM313 250q-11 -51 -14 -74.5t-3 -39.5q0 -30 10 -47t31 -26t69 -14l-9 -49h-54q-111 -85 -155.5 -144t-44.5 -111q0 -48 20 -66.5t62 -18.5q33 0 61.5 10.5t50.5 23.5l16 -68q-36 -25 -83 -40.5t-86 -15.5q-87 0 -130 38.5t-43 118.5
q0 66 60.5 136t175.5 137h-160l151 674q13 58 18 92.5t5 57.5q0 29 -8.5 45t-28.5 24t-69 10l11 53l244 9h59z" />
    <glyph glyph-name="dotlessi" unicode="&#x131;" horiz-adv-x="555" 
d="M313 250q-11 -51 -14 -74.5t-3 -39.5q0 -30 10 -47t31 -26t69 -14l-9 -49h-310l151 674q13 58 18 92.5t5 57.5q0 29 -8.5 45t-28.5 24t-69 10l11 53l244 9h59z" />
    <glyph glyph-name="ij" unicode="&#x133;" horiz-adv-x="1100" 
d="M560 1348l-46 -194h-177l46 194h177zM313 250q-11 -51 -14 -74.5t-3 -39.5q0 -30 10 -47t31 -26t69 -14l-9 -49h-310l151 674q13 58 18 92.5t5 57.5q0 29 -8.5 45t-28.5 24t-69 10l11 53l244 9h59zM1118 1348l-46 -194h-177l46 194h177zM817 -17q-32 -152 -87 -244.5
t-143 -139t-210 -46.5q-50 0 -85 10l23 88q16 -5 35.5 -6.5t40.5 -1.5q48 0 81.5 14.5t62.5 48t53.5 93.5t45.5 155l162 720q13 56 18 91t5 59q0 29 -8.5 45t-28.5 24t-69 10l11 53l244 9h57z" />
    <glyph glyph-name="jcircumflex" unicode="&#x135;" horiz-adv-x="545" 
d="M550 1432l132 -337l-79 -35l-139 237h-10l-255 -237l-62 57l277 315h136zM262 -17q-32 -152 -87 -244.5t-143 -139t-210 -46.5q-50 0 -85 10l23 88q16 -5 35.5 -6.5t40.5 -1.5q48 0 81.5 14.5t62.5 48t53.5 93.5t45.5 155l162 720q13 56 18 91t5 59q0 29 -8.5 45
t-28.5 24t-69 10l11 53l244 9h57z" />
    <glyph glyph-name="kcommaaccent" unicode="&#x137;" horiz-adv-x="1018" 
d="M368 557h32q31 0 67 12t77 37.5t110 80.5q52 42 77 71.5t34 51.5t9 42q0 49 -68 55l11 49h324l19 -49q-83 -75 -176 -147l-253 -197l150 -379q20 -51 41 -78.5t48.5 -40.5t70.5 -16l-11 -49h-267l-146 411q-14 39 -24 53t-23 20t-42 6h-74l-104 -490h-173l257 1143
q11 50 15.5 72.5t6.5 41.5t2 34q0 42 -25.5 59t-91.5 19l12 52l253 9h58zM497 -99q1 -8 1 -16v-15q0 -131 -93 -209t-266 -91v76q77 6 124 38.5t67.5 83.5t22.5 133h144z" />
    <glyph glyph-name="kgreenlandic" unicode="&#x138;" horiz-adv-x="1028" 
d="M378 557h32q31 0 67 12t77 37.5t110 80.5q52 42 77 71.5t34 51.5t9 42q0 49 -68 55l11 49h324l19 -49q-83 -75 -176 -147l-253 -197l150 -379q20 -51 41 -78.5t48.5 -40.5t70.5 -16l-11 -49h-267l-146 411q-14 40 -23 53.5t-22 19.5t-47 6h-71l-104 -490h-173l151 678
q14 62 18 94t4 50q0 30 -7.5 46t-27 24t-71.5 11l11 53l245 9h58z" />
    <glyph glyph-name="lacute" unicode="&#x13a;" horiz-adv-x="546" 
d="M505 1430h59l-260 -1180q-11 -48 -14 -72.5t-3 -41.5q0 -30 10 -47t31 -26t69 -14l-8 -49h-312l258 1148q10 44 14 66t6 42t2 35q0 30 -11 45.5t-31.5 22.5t-73.5 10l12 52zM840 1797l-11 -50l-425 -268l-50 71l268 247h218z" />
    <glyph glyph-name="lcaron" unicode="&#x13e;" horiz-adv-x="773" 
d="M505 1430h59l-260 -1180q-11 -48 -14 -72.5t-3 -41.5q0 -30 10 -47t31 -26t69 -14l-8 -49h-312l258 1148q10 44 14 66t6 42t2 35q0 30 -11 45.5t-31.5 22.5t-73.5 10l12 52zM920 1431q2 -10 2 -49q0 -70 -14.5 -121t-43 -92t-73 -81t-132.5 -105l-47 62q77 63 115.5 155
t38.5 231h154z" />
    <glyph glyph-name="lcommaaccent" unicode="&#x13c;" horiz-adv-x="546" 
d="M505 1430h59l-260 -1180q-11 -48 -14 -72.5t-3 -41.5q0 -30 10 -47t31 -26t69 -14l-8 -49h-312l258 1148q10 44 14 66t6 42t2 35q0 30 -11 45.5t-31.5 22.5t-73.5 10l12 52zM241 -99q1 -8 1 -16v-15q0 -131 -93 -209t-266 -91v76q77 6 124 38.5t67.5 83.5t22.5 133h144z
" />
    <glyph glyph-name="lslash" unicode="&#x142;" horiz-adv-x="604" 
d="M442 739l-108 -489q-10 -47 -13.5 -72t-3.5 -42q0 -30 10 -47t31 -26t69 -14l-8 -49h-312l146 645l-176 -107l-44 84l246 141l86 385q10 45 14 66.5t6 41.5t2 35q0 30 -11 45.5t-31.5 22.5t-73.5 10l12 52l252 9h59l-127 -574l178 109l44 -83z" />
    <glyph glyph-name="ldot" unicode="&#x140;" horiz-adv-x="741" 
d="M505 1430h59l-260 -1180q-11 -48 -14 -72.5t-3 -41.5q0 -30 10 -47t31 -26t69 -14l-8 -49h-312l258 1148q10 44 14 66t6 42t2 35q0 30 -11 45.5t-31.5 22.5t-73.5 10l12 52zM786 795l-46 -194h-177l46 194h177z" />
    <glyph glyph-name="nacute" unicode="&#x144;" horiz-adv-x="1096" 
d="M943 0h-315l127 508q12 49 23.5 108t11.5 106q0 71 -24.5 102t-76.5 31q-42 0 -90.5 -32.5t-101.5 -97t-89.5 -131t-56.5 -161.5l-91 -433h-173l152 683q5 23 13.5 68t8.5 75q0 28 -8.5 43.5t-29 23t-69.5 10.5l12 53l227 9h57l-67 -260l12 -4q98 138 189 204.5t182 66.5
q97 0 147 -53.5t50 -158.5q0 -36 -6.5 -78.5t-14.5 -75.5l-84 -356q-17 -72 -17 -114q0 -30 10 -47t31 -26t69 -14zM1011 1442l-11 -50l-374 -322l-62 60l263 312h184z" />
    <glyph glyph-name="ncaron" unicode="&#x148;" horiz-adv-x="1096" 
d="M943 0h-315l127 508q12 49 23.5 108t11.5 106q0 71 -24.5 102t-76.5 31q-42 0 -90.5 -32.5t-101.5 -97t-89.5 -131t-56.5 -161.5l-91 -433h-173l152 683q5 23 13.5 68t8.5 75q0 28 -8.5 43.5t-29 23t-69.5 10.5l12 53l227 9h57l-67 -260l12 -4q98 138 189 204.5t182 66.5
q97 0 147 -53.5t50 -158.5q0 -36 -6.5 -78.5t-14.5 -75.5l-84 -356q-17 -72 -17 -114q0 -30 10 -47t31 -26t69 -14zM612 1080l-132 335l78 37l138 -243h10l256 243l63 -57l-278 -315h-135z" />
    <glyph glyph-name="ntilde" unicode="&#xf1;" horiz-adv-x="1096" 
d="M943 0h-315l127 508q12 49 23.5 108t11.5 106q0 71 -24.5 102t-76.5 31q-42 0 -90.5 -32.5t-101.5 -97t-89.5 -131t-56.5 -161.5l-91 -433h-173l152 683q5 23 13.5 68t8.5 75q0 28 -8.5 43.5t-29 23t-69.5 10.5l12 53l227 9h57l-67 -260l12 -4q98 138 189 204.5t182 66.5
q97 0 147 -53.5t50 -158.5q0 -36 -6.5 -78.5t-14.5 -75.5l-84 -356q-17 -72 -17 -114q0 -30 10 -47t31 -26t69 -14zM980 1365l69 -48q-50 -75 -88.5 -116t-70.5 -57t-71 -16q-23 0 -42 6t-35.5 16t-49.5 38q-30 24 -43 33t-25 13.5t-25 4.5q-25 0 -45 -9.5t-44 -34.5
t-54 -67l-70 47q61 87 93 122t64.5 51.5t77.5 16.5q16 0 29.5 -3.5t26.5 -9.5t23 -13t39 -30q41 -34 60.5 -44.5t39.5 -10.5q23 0 43 10t44 34t54 67z" />
    <glyph glyph-name="ncommaaccent" unicode="&#x146;" horiz-adv-x="1096" 
d="M943 0h-315l127 508q12 49 23.5 108t11.5 106q0 71 -24.5 102t-76.5 31q-42 0 -90.5 -32.5t-101.5 -97t-89.5 -131t-56.5 -161.5l-91 -433h-173l152 683q5 23 13.5 68t8.5 75q0 28 -8.5 43.5t-29 23t-69.5 10.5l12 53l227 9h57l-67 -260l12 -4q98 138 189 204.5t182 66.5
q97 0 147 -53.5t50 -158.5q0 -36 -6.5 -78.5t-14.5 -75.5l-84 -356q-17 -72 -17 -114q0 -30 10 -47t31 -26t69 -14zM525 -99q1 -8 1 -16v-15q0 -131 -93 -209t-266 -91v76q77 6 124 38.5t67.5 83.5t22.5 133h144z" />
    <glyph glyph-name="napostrophe" unicode="&#x149;" horiz-adv-x="1361" 
d="M524 1431q0 -96 -15 -153q-18 -68 -47 -117q-33 -55 -88 -109t-142 -111l-46 62q45 36 76 82t53 112t31 135t9 99h169zM1208 0h-315l127 508q12 49 23.5 108t11.5 106q0 71 -24.5 102t-76.5 31q-42 0 -90.5 -32.5t-101.5 -97t-89.5 -131t-56.5 -161.5l-91 -433h-173
l152 683q5 23 13.5 68t8.5 75q0 28 -8.5 43.5t-29 23t-69.5 10.5l12 53l227 9h57l-67 -260l12 -4q98 138 189 204.5t182 66.5q97 0 147 -53.5t50 -158.5q0 -36 -6.5 -78.5t-14.5 -75.5l-84 -356q-17 -72 -17 -114q0 -30 10 -47t31 -26t69 -14z" />
    <glyph glyph-name="ograve" unicode="&#xf2;" horiz-adv-x="1038" 
d="M409 -17q-155 0 -240.5 87t-85.5 250q0 60 15 141q19 105 54 186q45 101 115.5 174.5t162 112t196.5 38.5q115 0 188.5 -44t106.5 -119.5t33 -174.5q0 -89 -25 -190q-36 -148 -105 -251t-173 -156.5t-242 -53.5zM258 277q0 -110 45.5 -162.5t137.5 -52.5q98 0 174 88
t120 246.5t44 278.5q0 108 -42 162.5t-131 54.5q-104 0 -181.5 -87t-122 -249t-44.5 -279zM648 1442l133 -328l-71 -44l-235 322l11 50h162z" />
    <glyph glyph-name="oacute" unicode="&#xf3;" horiz-adv-x="1038" 
d="M409 -17q-155 0 -240.5 87t-85.5 250q0 60 15 141q19 105 54 186q45 101 115.5 174.5t162 112t196.5 38.5q115 0 188.5 -44t106.5 -119.5t33 -174.5q0 -89 -25 -190q-36 -148 -105 -251t-173 -156.5t-242 -53.5zM258 277q0 -110 45.5 -162.5t137.5 -52.5q98 0 174 88
t120 246.5t44 278.5q0 108 -42 162.5t-131 54.5q-104 0 -181.5 -87t-122 -249t-44.5 -279zM982 1442l-11 -50l-374 -322l-62 60l263 312h184z" />
    <glyph glyph-name="ocircumflex" unicode="&#xf4;" horiz-adv-x="1038" 
d="M409 -17q-155 0 -240.5 87t-85.5 250q0 60 15 141q19 105 54 186q45 101 115.5 174.5t162 112t196.5 38.5q115 0 188.5 -44t106.5 -119.5t33 -174.5q0 -89 -25 -190q-36 -148 -105 -251t-173 -156.5t-242 -53.5zM258 277q0 -110 45.5 -162.5t137.5 -52.5q98 0 174 88
t120 246.5t44 278.5q0 108 -42 162.5t-131 54.5q-104 0 -181.5 -87t-122 -249t-44.5 -279zM799 1432l132 -337l-79 -35l-138 243h-10l-256 -243l-62 57l277 315h136z" />
    <glyph glyph-name="otilde" unicode="&#xf5;" horiz-adv-x="1038" 
d="M409 -17q-155 0 -240.5 87t-85.5 250q0 60 15 141q19 105 54 186q45 101 115.5 174.5t162 112t196.5 38.5q115 0 188.5 -44t106.5 -119.5t33 -174.5q0 -89 -25 -190q-36 -148 -105 -251t-173 -156.5t-242 -53.5zM258 277q0 -110 45.5 -162.5t137.5 -52.5q98 0 174 88
t120 246.5t44 278.5q0 108 -42 162.5t-131 54.5q-104 0 -181.5 -87t-122 -249t-44.5 -279zM951 1365l69 -48q-50 -75 -88.5 -116t-70.5 -57t-71 -16q-23 0 -42 6t-35.5 16t-49.5 38q-30 24 -43 33t-25 13.5t-25 4.5q-25 0 -45 -9.5t-44 -34.5t-54 -67l-70 47q61 87 93 122
t64.5 51.5t77.5 16.5q16 0 29.5 -3.5t26.5 -9.5t23 -13t39 -30q41 -34 60.5 -44.5t39.5 -10.5q23 0 43 10t44 34t54 67z" />
    <glyph glyph-name="odieresis" unicode="&#xf6;" horiz-adv-x="1038" 
d="M409 -17q-155 0 -240.5 87t-85.5 250q0 60 15 141q19 105 54 186q45 101 115.5 174.5t162 112t196.5 38.5q115 0 188.5 -44t106.5 -119.5t33 -174.5q0 -89 -25 -190q-36 -148 -105 -251t-173 -156.5t-242 -53.5zM258 277q0 -110 45.5 -162.5t137.5 -52.5q98 0 174 88
t120 246.5t44 278.5q0 108 -42 162.5t-131 54.5q-104 0 -181.5 -87t-122 -249t-44.5 -279zM952 1339l-38 -176h-165l38 176h165zM630 1339l-38 -176h-165l38 176h165z" />
    <glyph glyph-name="omacron" unicode="&#x14d;" horiz-adv-x="1038" 
d="M409 -17q-155 0 -240.5 87t-85.5 250q0 60 15 141q19 105 54 186q45 101 115.5 174.5t162 112t196.5 38.5q115 0 188.5 -44t106.5 -119.5t33 -174.5q0 -89 -25 -190q-36 -148 -105 -251t-173 -156.5t-242 -53.5zM258 277q0 -110 45.5 -162.5t137.5 -52.5q98 0 174 88
t120 246.5t44 278.5q0 108 -42 162.5t-131 54.5q-104 0 -181.5 -87t-122 -249t-44.5 -279zM927 1188h-501l26 125h501z" />
    <glyph glyph-name="obreve" unicode="&#x14f;" horiz-adv-x="1038" 
d="M409 -17q-155 0 -240.5 87t-85.5 250q0 60 15 141q19 105 54 186q45 101 115.5 174.5t162 112t196.5 38.5q115 0 188.5 -44t106.5 -119.5t33 -174.5q0 -89 -25 -190q-36 -148 -105 -251t-173 -156.5t-242 -53.5zM258 277q0 -110 45.5 -162.5t137.5 -52.5q98 0 174 88
t120 246.5t44 278.5q0 108 -42 162.5t-131 54.5q-104 0 -181.5 -87t-122 -249t-44.5 -279zM1010 1369q-58 -98 -116.5 -153.5t-119 -79t-136.5 -23.5q-101 0 -156 76.5t-55 215.5l81 15q12 -180 153 -180q58 0 100.5 15t85.5 51.5t92 104.5z" />
    <glyph glyph-name="ohungarumlaut" unicode="&#x151;" horiz-adv-x="1038" 
d="M409 -17q-155 0 -240.5 87t-85.5 250q0 60 15 141q19 105 54 186q45 101 115.5 174.5t162 112t196.5 38.5q115 0 188.5 -44t106.5 -119.5t33 -174.5q0 -89 -25 -190q-36 -148 -105 -251t-173 -156.5t-242 -53.5zM258 277q0 -110 45.5 -162.5t137.5 -52.5q98 0 174 88
t120 246.5t44 278.5q0 108 -42 162.5t-131 54.5q-104 0 -181.5 -87t-122 -249t-44.5 -279zM1120 1442l-11 -50l-351 -322l-58 52l284 320h136zM815 1442l-11 -50l-351 -322l-58 52l284 320h136z" />
    <glyph glyph-name="oslash" unicode="&#xf8;" horiz-adv-x="1038" 
d="M145 97q-62 86 -62 223q0 60 15 141q19 105 54 186q45 101 115.5 174.5t162 112t196.5 38.5q112 0 190 -45l134 165h129l-188 -232q63 -86 63 -226q0 -89 -25 -190q-36 -148 -105 -251t-173 -156.5t-242 -53.5q-111 0 -190 46l-133 -164h-129zM256 230l484 603
q-41 59 -134 59q-105 0 -183.5 -87.5t-123 -249t-44.5 -278.5v-26q0 -12 1 -21zM779 727l-483 -603q44 -62 145 -62q71 0 130.5 46t105.5 133t75.5 212.5t29.5 221.5q0 29 -3 52z" />
    <glyph glyph-name="oslashacute" unicode="&#x1ff;" horiz-adv-x="1038" 
d="M145 97q-62 86 -62 223q0 60 15 141q19 105 54 186q45 101 115.5 174.5t162 112t196.5 38.5q112 0 190 -45l134 165h129l-188 -232q63 -86 63 -226q0 -89 -25 -190q-36 -148 -105 -251t-173 -156.5t-242 -53.5q-111 0 -190 46l-133 -164h-129zM256 230l484 603
q-41 59 -134 59q-105 0 -183.5 -87.5t-123 -249t-44.5 -278.5v-26q0 -12 1 -21zM779 727l-483 -603q44 -62 145 -62q71 0 130.5 46t105.5 133t75.5 212.5t29.5 221.5q0 29 -3 52zM982 1442l-11 -50l-374 -322l-62 60l263 312h184z" />
    <glyph glyph-name="oe" unicode="&#x153;" horiz-adv-x="1581" 
d="M1459 199q-74 -81 -142 -128t-136 -67t-150 -20q-66 0 -112.5 17.5t-79 49t-60.5 84.5h-10q-93 -82 -172 -117t-188 -35q-155 0 -240.5 87t-85.5 250q0 60 15 141q19 105 54 186q45 101 115.5 174.5t162 112t196.5 38.5q77 0 132 -22t90.5 -58t62.5 -93h10
q171 174 380 174q121 0 181.5 -49t60.5 -153q0 -170 -159.5 -255t-473.5 -85q-12 -60 -12 -130q0 -105 41 -152.5t134 -47.5q92 0 167 40t157 123zM927 516q92 1 161.5 10.5t119.5 26t83 39.5t52.5 50.5t27 58t7.5 63.5q0 61 -28.5 95.5t-84.5 34.5q-70 0 -137.5 -50.5
t-119 -136t-81.5 -191.5zM258 277q0 -110 45.5 -162.5t137.5 -52.5q98 0 174 88t120 246.5t44 278.5q0 108 -42 162.5t-131 54.5q-104 0 -181.5 -87t-122 -249t-44.5 -279z" />
    <glyph glyph-name="racute" unicode="&#x155;" horiz-adv-x="834" 
d="M398 965h60l-70 -246l12 -4q95 131 185.5 194t186.5 63q73 0 122 -11l-48 -224h-103q-8 52 -25 79t-53 27q-39 0 -90 -40t-104 -110t-79.5 -129t-40.5 -131l-91 -433h-173l152 683q21 94 21 143q0 28 -9 43.5t-29 23t-68 10.5l11 53zM880 1442l-11 -50l-374 -322l-62 60
l263 312h184z" />
    <glyph glyph-name="rcaron" unicode="&#x159;" horiz-adv-x="834" 
d="M398 965h60l-70 -246l12 -4q95 131 185.5 194t186.5 63q73 0 122 -11l-48 -224h-103q-8 52 -25 79t-53 27q-39 0 -90 -40t-104 -110t-79.5 -129t-40.5 -131l-91 -433h-173l152 683q21 94 21 143q0 28 -9 43.5t-29 23t-68 10.5l11 53zM481 1080l-132 335l78 37l138 -243
h10l256 243l63 -57l-278 -315h-135z" />
    <glyph glyph-name="rcommaaccent" unicode="&#x157;" horiz-adv-x="834" 
d="M398 965h60l-70 -246l12 -4q95 131 185.5 194t186.5 63q73 0 122 -11l-48 -224h-103q-8 52 -25 79t-53 27q-39 0 -90 -40t-104 -110t-79.5 -129t-40.5 -131l-91 -433h-173l152 683q21 94 21 143q0 28 -9 43.5t-29 23t-68 10.5l11 53zM287 -99q1 -8 1 -16v-15
q0 -131 -93 -209t-266 -91v76q77 6 124 38.5t67.5 83.5t22.5 133h144z" />
    <glyph glyph-name="sacute" unicode="&#x15b;" horiz-adv-x="782" 
d="M660 723q-11 90 -51.5 130.5t-125.5 40.5q-47 0 -85 -17.5t-60 -51t-22 -78.5q0 -37 15 -67.5t50.5 -63.5t99.5 -76q97 -65 136 -126t39 -141q0 -94 -45 -159.5t-123 -97.5t-176 -32q-88 0 -164.5 13t-148.5 33l47 216h78q7 -92 52.5 -137.5t132.5 -45.5q89 0 139 44.5
t50 117.5q0 43 -15 77t-47 65t-91 71q-63 43 -102 81t-60.5 83.5t-21.5 100.5q0 83 41 144t116.5 93t176.5 32q165 0 291 -43l-46 -206h-80zM854 1442l-11 -50l-374 -322l-62 60l263 312h184z" />
    <glyph glyph-name="scircumflex" unicode="&#x15d;" horiz-adv-x="782" 
d="M660 723q-11 90 -51.5 130.5t-125.5 40.5q-47 0 -85 -17.5t-60 -51t-22 -78.5q0 -37 15 -67.5t50.5 -63.5t99.5 -76q97 -65 136 -126t39 -141q0 -94 -45 -159.5t-123 -97.5t-176 -32q-88 0 -164.5 13t-148.5 33l47 216h78q7 -92 52.5 -137.5t132.5 -45.5q89 0 139 44.5
t50 117.5q0 43 -15 77t-47 65t-91 71q-63 43 -102 81t-60.5 83.5t-21.5 100.5q0 83 41 144t116.5 93t176.5 32q165 0 291 -43l-46 -206h-80zM670 1432l132 -337l-79 -35l-138 243h-10l-256 -243l-62 57l277 315h136z" />
    <glyph glyph-name="scaron" unicode="&#x161;" horiz-adv-x="782" 
d="M660 723q-11 90 -51.5 130.5t-125.5 40.5q-47 0 -85 -17.5t-60 -51t-22 -78.5q0 -37 15 -67.5t50.5 -63.5t99.5 -76q97 -65 136 -126t39 -141q0 -94 -45 -159.5t-123 -97.5t-176 -32q-88 0 -164.5 13t-148.5 33l47 216h78q7 -92 52.5 -137.5t132.5 -45.5q89 0 139 44.5
t50 117.5q0 43 -15 77t-47 65t-91 71q-63 43 -102 81t-60.5 83.5t-21.5 100.5q0 83 41 144t116.5 93t176.5 32q165 0 291 -43l-46 -206h-80zM454 1080l-132 335l78 37l138 -243h10l256 243l63 -57l-278 -315h-135z" />
    <glyph glyph-name="scedilla" unicode="&#x15f;" horiz-adv-x="782" 
d="M660 723q-11 90 -51.5 130.5t-125.5 40.5q-47 0 -85 -17.5t-60 -51t-22 -78.5q0 -37 15 -67.5t50.5 -63.5t99.5 -76q97 -65 136 -126t39 -141q0 -103 -54 -173t-157 -100l-131 -87q4 -14 4 -49q0 -125 -94.5 -202.5t-267.5 -91.5v76q96 8 148.5 58t54.5 145l7 34l160 101
h-14q-88 0 -164.5 13t-148.5 33l47 216h78q7 -92 52.5 -137.5t132.5 -45.5q89 0 139 44.5t50 117.5q0 43 -15 77t-47 65t-91 71q-63 43 -102 81t-60.5 83.5t-21.5 100.5q0 83 41 144t116.5 93t176.5 32q165 0 291 -43l-46 -206h-80z" />
    <glyph glyph-name="scommaaccent" unicode="&#x219;" horiz-adv-x="782" 
d="M660 723q-11 90 -51.5 130.5t-125.5 40.5q-47 0 -85 -17.5t-60 -51t-22 -78.5q0 -37 15 -67.5t50.5 -63.5t99.5 -76q97 -65 136 -126t39 -141q0 -94 -45 -159.5t-123 -97.5t-176 -32q-88 0 -164.5 13t-148.5 33l47 216h78q7 -92 52.5 -137.5t132.5 -45.5q89 0 139 44.5
t50 117.5q0 43 -15 77t-47 65t-91 71q-63 43 -102 81t-60.5 83.5t-21.5 100.5q0 83 41 144t116.5 93t176.5 32q165 0 291 -43l-46 -206h-80zM369 -99q1 -8 1 -16v-15q0 -131 -93 -209t-266 -91v76q77 6 124 38.5t67.5 83.5t22.5 133h144z" />
    <glyph glyph-name="germandbls" unicode="&#xdf;" horiz-adv-x="1160" 
d="M254 -17q-34 -157 -92 -251t-143.5 -136.5t-208.5 -42.5q-44 0 -79 10l23 88q24 -8 70 -8q53 0 86.5 14t62 45.5t54 92t48.5 159.5l203 901h-121l12 51q64 7 96 33.5t53 91.5q17 55 40.5 106.5t56 97t74.5 82.5t97.5 63.5t125 41t156.5 14.5q60 0 111.5 -12.5t89 -38.5
t59 -67.5t21.5 -100.5q0 -69 -27 -124t-76.5 -102t-132.5 -100t-118 -81.5t-49.5 -52.5t-14.5 -55q0 -30 11 -51.5t40.5 -45t96.5 -63.5q63 -38 101 -69.5t60 -62.5t32 -65.5t10 -83.5q0 -89 -47.5 -152.5t-129 -94.5t-185.5 -31q-140 0 -306 47l37 171h83
q11 -72 57.5 -105.5t134.5 -33.5q90 0 142 43.5t52 119.5q0 45 -15 77.5t-49 62.5t-108 75q-60 37 -88 59.5t-45 47t-24.5 50.5t-7.5 58q0 45 18.5 82t59 76t142.5 109q67 45 104.5 83t57.5 83.5t20 108.5q0 77 -40.5 118.5t-115.5 41.5q-77 0 -130.5 -24.5t-101.5 -79.5
t-83 -140.5t-67 -235.5zM63 956z" />
    <glyph glyph-name="longs" unicode="&#x17f;" horiz-adv-x="562" 
d="M253 -17q-34 -157 -91.5 -251t-143 -136.5t-208.5 -42.5q-44 0 -79 10l23 88q24 -8 70 -8q53 0 86.5 14t62 45.5t54 92t48.5 159.5l202 901h-121l12 51q43 5 62.5 11.5t30 15.5t19 24.5t15.5 35.5t26 82q53 180 163.5 270.5t281.5 90.5q98 0 169 -16l-39 -170h-88
q-14 57 -36.5 82t-66.5 25q-58 0 -99 -33.5t-70.5 -100.5t-52.5 -176zM692 956z" />
    <glyph glyph-name="tcaron" unicode="&#x165;" horiz-adv-x="883" 
d="M675 184q-82 -99 -162 -149.5t-170 -50.5q-106 0 -158 54t-52 157q0 63 18 141l124 519h-149l11 51q59 7 93.5 25.5t58 49t43.5 79.5t50 143h138l-55 -247h317l-22 -101h-318l-96 -388q-40 -162 -40 -242q0 -61 26.5 -92.5t77.5 -31.5q46 0 96.5 35.5t110.5 107.5z
M1030 1431q2 -10 2 -49q0 -69 -13.5 -119t-40 -89t-67.5 -77t-120 -100l-47 62q53 45 83 97.5t42 116.5t12 158h149z" />
    <glyph glyph-name="uni021B" unicode="&#x21b;" horiz-adv-x="707" 
d="M675 184q-82 -99 -162 -149.5t-170 -50.5q-106 0 -158 54t-52 157q0 63 18 141l124 519h-149l11 51q59 7 93.5 25.5t58 49t43.5 79.5t50 143h138l-55 -247h317l-22 -101h-318l-96 -388q-40 -162 -40 -242q0 -61 26.5 -92.5t77.5 -31.5q46 0 96.5 35.5t110.5 107.5z
M339 -99q1 -8 1 -16v-15q0 -131 -93 -209t-266 -91v76q77 6 124 38.5t67.5 83.5t22.5 133h144z" />
    <glyph glyph-name="tbar" unicode="&#x167;" horiz-adv-x="735" 
d="M693 184q-82 -99 -162 -149.5t-170 -50.5q-106 0 -158 54t-52 157q0 63 18 141l32 134h-140l19 88h142l71 297h-149l11 51q59 7 93.5 25.5t58 49t43.5 79.5t50 143h138l-55 -247h317l-22 -101h-318l-74 -297h253l-19 -88h-256v-3q-40 -162 -40 -242q0 -61 26.5 -92.5
t77.5 -31.5q46 0 96.5 35.5t110.5 107.5z" />
    <glyph glyph-name="ugrave" unicode="&#xf9;" horiz-adv-x="1096" 
d="M153 956h315l-127 -509q-14 -56 -24.5 -111.5t-10.5 -101.5q0 -71 24.5 -102t76.5 -31q43 0 93 33.5t106 104t88.5 133.5t50.5 150l91 434h173l-152 -683q-6 -27 -14 -71t-8 -72q0 -42 23.5 -59.5t87.5 -21.5l-11 -49h-286l64 251l-13 4q-97 -138 -187.5 -204.5
t-182.5 -66.5q-97 0 -147 53.5t-50 158.5q0 30 5.5 70.5t15.5 84.5l84 355q10 44 13.5 70t3.5 44q0 45 -24 63t-86 23zM627 1442l133 -328l-71 -44l-235 322l11 50h162z" />
    <glyph glyph-name="uacute" unicode="&#xfa;" horiz-adv-x="1096" 
d="M153 956h315l-127 -509q-14 -56 -24.5 -111.5t-10.5 -101.5q0 -71 24.5 -102t76.5 -31q43 0 93 33.5t106 104t88.5 133.5t50.5 150l91 434h173l-152 -683q-6 -27 -14 -71t-8 -72q0 -42 23.5 -59.5t87.5 -21.5l-11 -49h-286l64 251l-13 4q-97 -138 -187.5 -204.5
t-182.5 -66.5q-97 0 -147 53.5t-50 158.5q0 30 5.5 70.5t15.5 84.5l84 355q10 44 13.5 70t3.5 44q0 45 -24 63t-86 23zM1011 1442l-11 -50l-374 -322l-62 60l263 312h184z" />
    <glyph glyph-name="ucircumflex" unicode="&#xfb;" horiz-adv-x="1096" 
d="M153 956h315l-127 -509q-14 -56 -24.5 -111.5t-10.5 -101.5q0 -71 24.5 -102t76.5 -31q43 0 93 33.5t106 104t88.5 133.5t50.5 150l91 434h173l-152 -683q-6 -27 -14 -71t-8 -72q0 -42 23.5 -59.5t87.5 -21.5l-11 -49h-286l64 251l-13 4q-97 -138 -187.5 -204.5
t-182.5 -66.5q-97 0 -147 53.5t-50 158.5q0 30 5.5 70.5t15.5 84.5l84 355q10 44 13.5 70t3.5 44q0 45 -24 63t-86 23zM828 1432l132 -337l-79 -35l-138 243h-10l-256 -243l-62 57l277 315h136z" />
    <glyph glyph-name="utilde" unicode="&#x169;" horiz-adv-x="1096" 
d="M153 956h315l-127 -509q-14 -56 -24.5 -111.5t-10.5 -101.5q0 -71 24.5 -102t76.5 -31q43 0 93 33.5t106 104t88.5 133.5t50.5 150l91 434h173l-152 -683q-6 -27 -14 -71t-8 -72q0 -42 23.5 -59.5t87.5 -21.5l-11 -49h-286l64 251l-13 4q-97 -138 -187.5 -204.5
t-182.5 -66.5q-97 0 -147 53.5t-50 158.5q0 30 5.5 70.5t15.5 84.5l84 355q10 44 13.5 70t3.5 44q0 45 -24 63t-86 23zM980 1365l69 -48q-50 -75 -88.5 -116t-70.5 -57t-71 -16q-23 0 -42 6t-35.5 16t-49.5 38q-30 24 -43 33t-25 13.5t-25 4.5q-25 0 -45 -9.5t-44 -34.5
t-54 -67l-70 47q61 87 93 122t64.5 51.5t77.5 16.5q16 0 29.5 -3.5t26.5 -9.5t23 -13t39 -30q41 -34 60.5 -44.5t39.5 -10.5q23 0 43 10t44 34t54 67z" />
    <glyph glyph-name="udieresis" unicode="&#xfc;" horiz-adv-x="1096" 
d="M153 956h315l-127 -509q-14 -56 -24.5 -111.5t-10.5 -101.5q0 -71 24.5 -102t76.5 -31q43 0 93 33.5t106 104t88.5 133.5t50.5 150l91 434h173l-152 -683q-6 -27 -14 -71t-8 -72q0 -42 23.5 -59.5t87.5 -21.5l-11 -49h-286l64 251l-13 4q-97 -138 -187.5 -204.5
t-182.5 -66.5q-97 0 -147 53.5t-50 158.5q0 30 5.5 70.5t15.5 84.5l84 355q10 44 13.5 70t3.5 44q0 45 -24 63t-86 23zM981 1339l-38 -176h-165l38 176h165zM659 1339l-38 -176h-165l38 176h165z" />
    <glyph glyph-name="umacron" unicode="&#x16b;" horiz-adv-x="1096" 
d="M153 956h315l-127 -509q-14 -56 -24.5 -111.5t-10.5 -101.5q0 -71 24.5 -102t76.5 -31q43 0 93 33.5t106 104t88.5 133.5t50.5 150l91 434h173l-152 -683q-6 -27 -14 -71t-8 -72q0 -42 23.5 -59.5t87.5 -21.5l-11 -49h-286l64 251l-13 4q-97 -138 -187.5 -204.5
t-182.5 -66.5q-97 0 -147 53.5t-50 158.5q0 30 5.5 70.5t15.5 84.5l84 355q10 44 13.5 70t3.5 44q0 45 -24 63t-86 23zM956 1188h-501l26 125h501z" />
    <glyph glyph-name="ubreve" unicode="&#x16d;" horiz-adv-x="1096" 
d="M153 956h315l-127 -509q-14 -56 -24.5 -111.5t-10.5 -101.5q0 -71 24.5 -102t76.5 -31q43 0 93 33.5t106 104t88.5 133.5t50.5 150l91 434h173l-152 -683q-6 -27 -14 -71t-8 -72q0 -42 23.5 -59.5t87.5 -21.5l-11 -49h-286l64 251l-13 4q-97 -138 -187.5 -204.5
t-182.5 -66.5q-97 0 -147 53.5t-50 158.5q0 30 5.5 70.5t15.5 84.5l84 355q10 44 13.5 70t3.5 44q0 45 -24 63t-86 23zM1039 1369q-58 -98 -116.5 -153.5t-119 -79t-136.5 -23.5q-101 0 -156 76.5t-55 215.5l81 15q12 -180 153 -180q58 0 100.5 15t85.5 51.5t92 104.5z" />
    <glyph glyph-name="uring" unicode="&#x16f;" horiz-adv-x="1096" 
d="M153 956h315l-127 -509q-14 -56 -24.5 -111.5t-10.5 -101.5q0 -71 24.5 -102t76.5 -31q43 0 93 33.5t106 104t88.5 133.5t50.5 150l91 434h173l-152 -683q-6 -27 -14 -71t-8 -72q0 -42 23.5 -59.5t87.5 -21.5l-11 -49h-286l64 251l-13 4q-97 -138 -187.5 -204.5
t-182.5 -66.5q-97 0 -147 53.5t-50 158.5q0 30 5.5 70.5t15.5 84.5l84 355q10 44 13.5 70t3.5 44q0 45 -24 63t-86 23zM679 1071q-86 0 -132.5 38.5t-46.5 109.5q0 46 16.5 94t53.5 84.5t87.5 55.5t107.5 19q90 0 135.5 -38.5t45.5 -110.5q0 -66 -31 -126t-92 -93t-144 -33z
M601 1225q0 -42 21.5 -67t67.5 -25q48 0 84 28.5t53.5 72.5t17.5 85q0 44 -23 67.5t-65 23.5q-43 0 -79 -25t-56.5 -68t-20.5 -92z" />
    <glyph glyph-name="uhungarumlaut" unicode="&#x171;" horiz-adv-x="1096" 
d="M153 956h315l-127 -509q-14 -56 -24.5 -111.5t-10.5 -101.5q0 -71 24.5 -102t76.5 -31q43 0 93 33.5t106 104t88.5 133.5t50.5 150l91 434h173l-152 -683q-6 -27 -14 -71t-8 -72q0 -42 23.5 -59.5t87.5 -21.5l-11 -49h-286l64 251l-13 4q-97 -138 -187.5 -204.5
t-182.5 -66.5q-97 0 -147 53.5t-50 158.5q0 30 5.5 70.5t15.5 84.5l84 355q10 44 13.5 70t3.5 44q0 45 -24 63t-86 23zM1149 1442l-11 -50l-351 -322l-58 52l284 320h136zM844 1442l-11 -50l-351 -322l-58 52l284 320h136z" />
    <glyph glyph-name="uogonek" unicode="&#x173;" horiz-adv-x="1096" 
d="M153 956h315l-127 -509q-14 -56 -24.5 -111.5t-10.5 -101.5q0 -71 24.5 -102t76.5 -31q43 0 93 33.5t106 104t88.5 133.5t50.5 150l91 434h173l-152 -683q-6 -27 -14 -71t-8 -72q0 -42 23.5 -59.5t87.5 -21.5l-11 -49h-86q-111 -85 -155.5 -144t-44.5 -111
q0 -48 20 -66.5t62 -18.5q33 0 61.5 10.5t50.5 23.5l16 -68q-36 -25 -83 -40.5t-86 -15.5q-87 0 -130 38.5t-43 118.5q0 66 60.5 136t175.5 137h-104l64 251l-13 4q-97 -138 -187.5 -204.5t-182.5 -66.5q-97 0 -147 53.5t-50 158.5q0 30 5.5 70.5t15.5 84.5l84 355
q10 44 13.5 70t3.5 44q0 45 -24 63t-86 23z" />
    <glyph glyph-name="wgrave" unicode="&#x1e81;" horiz-adv-x="1490" 
d="M979 166q156 222 237.5 387.5t81.5 269.5q0 47 -20 64t-68 20l10 49h258l27 -50q-35 -89 -56 -137t-55 -115.5t-72 -134.5t-89.5 -147.5l-115.5 -175l-151 -212.5h-119l-41 418q-5 49 -10.5 128t-7.5 122l-11 1q-54 -133 -147 -296t-230 -373h-134l-76 753q-6 58 -15 94
t-30 54t-69 22l11 49h262l60 -789q141 230 203.5 350t92.5 207.5t46 182.5l11 49h144zM874 1442l133 -328l-71 -44l-235 322l11 50h162z" />
    <glyph glyph-name="wacute" unicode="&#x1e83;" horiz-adv-x="1490" 
d="M979 166q156 222 237.5 387.5t81.5 269.5q0 47 -20 64t-68 20l10 49h258l27 -50q-35 -89 -56 -137t-55 -115.5t-72 -134.5t-89.5 -147.5l-115.5 -175l-151 -212.5h-119l-41 418q-5 49 -10.5 128t-7.5 122l-11 1q-54 -133 -147 -296t-230 -373h-134l-76 753q-6 58 -15 94
t-30 54t-69 22l11 49h262l60 -789q141 230 203.5 350t92.5 207.5t46 182.5l11 49h144zM1208 1442l-11 -50l-374 -322l-62 60l263 312h184z" />
    <glyph glyph-name="wcircumflex" unicode="&#x175;" horiz-adv-x="1490" 
d="M979 166q156 222 237.5 387.5t81.5 269.5q0 47 -20 64t-68 20l10 49h258l27 -50q-35 -89 -56 -137t-55 -115.5t-72 -134.5t-89.5 -147.5l-115.5 -175l-151 -212.5h-119l-41 418q-5 49 -10.5 128t-7.5 122l-11 1q-54 -133 -147 -296t-230 -373h-134l-76 753q-6 58 -15 94
t-30 54t-69 22l11 49h262l60 -789q141 230 203.5 350t92.5 207.5t46 182.5l11 49h144zM1025 1432l132 -337l-79 -35l-138 243h-10l-256 -243l-62 57l277 315h136z" />
    <glyph glyph-name="wdieresis" unicode="&#x1e85;" horiz-adv-x="1490" 
d="M979 166q156 222 237.5 387.5t81.5 269.5q0 47 -20 64t-68 20l10 49h258l27 -50q-35 -89 -56 -137t-55 -115.5t-72 -134.5t-89.5 -147.5l-115.5 -175l-151 -212.5h-119l-41 418q-5 49 -10.5 128t-7.5 122l-11 1q-54 -133 -147 -296t-230 -373h-134l-76 753q-6 58 -15 94
t-30 54t-69 22l11 49h262l60 -789q141 230 203.5 350t92.5 207.5t46 182.5l11 49h144zM1178 1339l-38 -176h-165l38 176h165zM856 1339l-38 -176h-165l38 176h165z" />
    <glyph glyph-name="ygrave" unicode="&#x1ef3;" horiz-adv-x="942" 
d="M185 738q-10 76 -19 105.5t-29 45t-65 18.5l11 49h257l76 -795q338 462 338 662q0 47 -20 64t-68 20l10 49h258l27 -50q-53 -139 -135.5 -288t-202 -326t-265.5 -368q-112 -147 -188 -222q-59 -57 -108.5 -86.5t-96 -42t-98.5 -12.5q-27 0 -61 5.5t-58 14.5l43 187h78
q1 -34 16 -54t44 -20q32 0 55 6.5t48.5 21.5t62 48t82.5 87.5t103 131.5zM511 1442l133 -328l-71 -44l-235 322l11 50h162z" />
    <glyph glyph-name="yacute" unicode="&#xfd;" horiz-adv-x="942" 
d="M185 738q-10 76 -19 105.5t-29 45t-65 18.5l11 49h257l76 -795q338 462 338 662q0 47 -20 64t-68 20l10 49h258l27 -50q-53 -139 -135.5 -288t-202 -326t-265.5 -368q-112 -147 -188 -222q-59 -57 -108.5 -86.5t-96 -42t-98.5 -12.5q-27 0 -61 5.5t-58 14.5l43 187h78
q1 -34 16 -54t44 -20q32 0 55 6.5t48.5 21.5t62 48t82.5 87.5t103 131.5zM919 1442l-11 -50l-374 -322l-62 60l263 312h184z" />
    <glyph glyph-name="ycircumflex" unicode="&#x177;" horiz-adv-x="942" 
d="M185 738q-10 76 -19 105.5t-29 45t-65 18.5l11 49h257l76 -795q338 462 338 662q0 47 -20 64t-68 20l10 49h258l27 -50q-53 -139 -135.5 -288t-202 -326t-265.5 -368q-112 -147 -188 -222q-59 -57 -108.5 -86.5t-96 -42t-98.5 -12.5q-27 0 -61 5.5t-58 14.5l43 187h78
q1 -34 16 -54t44 -20q32 0 55 6.5t48.5 21.5t62 48t82.5 87.5t103 131.5zM736 1432l132 -337l-79 -35l-138 243h-10l-256 -243l-62 57l277 315h136z" />
    <glyph glyph-name="ydieresis" unicode="&#xff;" horiz-adv-x="942" 
d="M185 738q-10 76 -19 105.5t-29 45t-65 18.5l11 49h257l76 -795q338 462 338 662q0 47 -20 64t-68 20l10 49h258l27 -50q-53 -139 -135.5 -288t-202 -326t-265.5 -368q-112 -147 -188 -222q-59 -57 -108.5 -86.5t-96 -42t-98.5 -12.5q-27 0 -61 5.5t-58 14.5l43 187h78
q1 -34 16 -54t44 -20q32 0 55 6.5t48.5 21.5t62 48t82.5 87.5t103 131.5zM889 1339l-38 -176h-165l38 176h165zM567 1339l-38 -176h-165l38 176h165z" />
    <glyph glyph-name="zacute" unicode="&#x17a;" horiz-adv-x="921" 
d="M797 281l-61 -281h-724l-19 49l547 630q116 133 170 189l-6 7h-234q-52 0 -76 -7t-48 -24.5t-51.5 -52t-61.5 -98.5h-89l59 263h711l19 -50l-718 -818l6 -7h226q60 0 92 6.5t56 24.5t49.5 54.5t63.5 114.5h89zM923 1442l-11 -50l-374 -322l-62 60l263 312h184z" />
    <glyph glyph-name="zcaron" unicode="&#x17e;" horiz-adv-x="921" 
d="M797 281l-61 -281h-724l-19 49l547 630q116 133 170 189l-6 7h-234q-52 0 -76 -7t-48 -24.5t-51.5 -52t-61.5 -98.5h-89l59 263h711l19 -50l-718 -818l6 -7h226q60 0 92 6.5t56 24.5t49.5 54.5t63.5 114.5h89zM524 1080l-132 335l78 37l138 -243h10l256 243l63 -57
l-278 -315h-135z" />
    <glyph glyph-name="zdotaccent" unicode="&#x17c;" horiz-adv-x="921" 
d="M797 281l-61 -281h-724l-19 49l547 630q116 133 170 189l-6 7h-234q-52 0 -76 -7t-48 -24.5t-51.5 -52t-61.5 -98.5h-89l59 263h711l19 -50l-718 -818l6 -7h226q60 0 92 6.5t56 24.5t49.5 54.5t63.5 114.5h89zM742 1348l-46 -194h-177l46 194h177z" />
    <glyph glyph-name="eng" unicode="&#x14b;" horiz-adv-x="1089" 
d="M755 508q14 60 24.5 114.5t10.5 99.5q0 71 -24.5 102t-76.5 31q-42 0 -90.5 -32.5t-101.5 -97t-89.5 -131t-56.5 -161.5l-91 -433h-173l152 683q5 23 13.5 68t8.5 75q0 28 -8.5 43.5t-29 23t-69.5 10.5l12 53l227 9h57l-67 -260l12 -4q98 138 189 204.5t182 66.5
q97 0 147 -53.5t50 -158.5q0 -24 -4.5 -59t-16.5 -95l-142 -642q-47 -209 -143.5 -306.5t-250.5 -97.5q-38 0 -78 5t-76 13l39 178h74q4 -36 12.5 -59t20 -35.5t26.5 -17.5t33 -5q31 0 54 16t42 50.5t35.5 90t34.5 135.5z" />
    <glyph glyph-name="eth" unicode="&#xf0;" horiz-adv-x="1042" 
d="M386 1132l259 125q-41 33 -75 54t-80 43l31 81q130 -47 232 -125l231 112l40 -80l-205 -97q31 -33 55.5 -70t46 -87.5t34 -104.5t16.5 -107t4 -94q0 -128 -34 -288.5t-102.5 -273t-177 -174.5t-254.5 -62q-106 0 -179.5 41.5t-110 117t-36.5 177.5q0 74 20.5 165.5
t56 163t83 125t104.5 88.5t121.5 52.5t136.5 17.5t124 -19.5t90 -61.5l14 7q-11 196 -125 330l-281 -136zM256 273q0 -108 44 -159t137 -51q75 0 136 46t104.5 132t69 200.5t25.5 194.5q0 108 -43.5 162.5t-130.5 54.5q-74 0 -134.5 -45.5t-106.5 -131.5t-73.5 -202.5
t-27.5 -200.5zM626 972z" />
    <glyph glyph-name="thorn" unicode="&#xfe;" horiz-adv-x="1067" 
d="M202 -177q-10 -48 -12.5 -74t-2.5 -43q0 -30 10 -47t31 -26t69 -14l-8 -49h-309l356 1573q6 25 14.5 72t8.5 76q0 42 -25.5 59t-91.5 19l12 52l253 9h58l-176 -700l13 -4q96 129 180.5 187.5t171.5 58.5q109 0 169.5 -83t60.5 -234q0 -108 -29.5 -217t-82 -197
t-117 -144.5t-136 -84.5t-150.5 -28q-133 0 -221 58zM322 348q-10 -53 -12.5 -81t-2.5 -55q0 -78 33.5 -113.5t115.5 -35.5q51 0 94 20t81.5 58t69.5 92t55.5 125.5t37 147t12.5 141.5q0 105 -29.5 156.5t-93.5 51.5q-51 0 -100.5 -34.5t-108.5 -110.5t-92 -150t-52 -170z
" />
    <glyph glyph-name="A.c2sc" horiz-adv-x="1060" 
d="M570 0l10 49q56 4 79.5 26t23.5 64q0 61 -5 125l-6 71h-386l-12 -20q-42 -70 -58 -110t-16 -73q0 -39 20 -59t68 -24l-10 -49h-365l10 49q34 5 74 46t108 150l509 818h156l81 -845q5 -51 14.5 -88.5t30.5 -58t70 -22.5l-10 -49h-386zM333 417h332l-29 416l-2 60l-10 -1z
" />
    <glyph glyph-name="B.c2sc" horiz-adv-x="1077" 
d="M28 49q30 6 44.5 12.5t28.5 22.5t28 54t31 110l117 526q7 30 12 69.5t5 58.5q0 49 -20 70.5t-72 25.5l10 49h489q170 0 250.5 -53t80.5 -159q0 -98 -64.5 -169.5t-199.5 -119.5l-2 -11q82 -28 125 -80.5t43 -124.5q0 -161 -128.5 -245.5t-372.5 -84.5h-415zM527 585
q71 0 131.5 12.5t105 40.5t69.5 73t25 111q0 47 -20.5 76t-53.5 43.5t-73 19t-79 4.5q-75 0 -143 -3l-84 -377h122zM296 86q64 -4 144 -4q81 0 138.5 16t97.5 49.5t60.5 82t20.5 112.5q0 37 -9.5 61.5t-26 42t-42 31t-59.5 20t-91 6.5h-142z" />
    <glyph glyph-name="C.c2sc" horiz-adv-x="962" 
d="M985 1027l-52 -247h-92q0 101 -41.5 151t-131.5 50q-60 0 -107 -20q-52 -23 -97 -70q-53 -55 -97.5 -146.5t-71.5 -208t-27 -220.5q0 -127 46 -188.5t145 -61.5q100 0 164 55.5t108 158.5h92l-53 -251q-154 -45 -329 -45q-108 0 -187 42.5t-120.5 120t-41.5 180.5
q0 114 29 232q39 160 123 274t199.5 172t250.5 58q75 0 150 -8t141 -28z" />
    <glyph glyph-name="D.c2sc" horiz-adv-x="1156" 
d="M28 49q30 6 44.5 12.5t28.5 22.5t28 54t31 110l117 526q7 30 12 69.5t5 58.5q0 49 -20 70.5t-72 25.5l10 49h350q104 0 174 -11.5t119 -33t87 -49.5t66.5 -74t44 -106.5t15.5 -127.5q0 -137 -49.5 -263.5t-137.5 -213.5t-195 -127.5t-265 -40.5h-403zM296 85q32 -3 72 -3
h22q94 0 165.5 19t128.5 61t105.5 119.5t73.5 168t25 188.5q0 166 -77.5 246.5t-238.5 80.5q-44 0 -83 -3z" />
    <glyph glyph-name="E.c2sc" horiz-adv-x="1022" 
d="M28 49q30 6 44.5 12.5t28.5 22.5t28 54t31 110l117 526q7 30 12 69.5t5 58.5q0 49 -20 70.5t-72 25.5l10 49h818l-56 -249h-92q-4 69 -14.5 105t-30 49t-62.5 13h-285l-83 -380h159q38 0 61.5 10t42 33t37.5 67h86l-69 -312h-82q0 49 -4 72t-13.5 32.5t-23 12.5t-42.5 3
h-170l-94 -421h254q39 0 62 5.5t43 17t39.5 31.5t41 54t43.5 82h92l-68 -272h-784z" />
    <glyph glyph-name="F.c2sc" horiz-adv-x="952" 
d="M337 273q-6 -25 -11.5 -63t-5.5 -70q0 -46 23 -67.5t84 -23.5l-10 -49h-399l10 49q30 6 44.5 12.5t28.5 22.5t28 54t31 110l117 526q7 30 12 69.5t5 58.5q0 49 -20 70.5t-72 25.5l10 49h804l-56 -249h-92q-4 69 -14.5 105t-30 49t-62.5 13h-271l-92 -413h161
q38 0 62.5 11.5t44 37t38.5 75.5h86l-76 -342h-82v24q0 56 -6 76.5t-21 28t-53 7.5h-172z" />
    <glyph glyph-name="G.c2sc" horiz-adv-x="1056" 
d="M1002 1025l-49 -245h-92q0 105 -43 153t-136 48q-79 0 -138 -31.5t-110.5 -98t-88 -156t-57 -190.5t-20.5 -189q0 -127 46 -188.5t145 -61.5q31 0 64.5 5.5t62.5 21t51.5 43t32.5 71.5l13 59q2 10 4 22.5t3.5 24.5t2.5 24.5t1 23.5q0 32 -17.5 50t-62.5 21l11 49h351
l-10 -49q-40 -8 -58 -23.5t-32.5 -50.5t-31.5 -115l-54 -243l-71 -17l-42 62q-66 -32 -122 -46.5t-114 -14.5q-108 0 -187 43.5t-120.5 121.5t-41.5 180q0 141 42 280.5t125 243t198 157t250 53.5q154 0 295 -38z" />
    <glyph glyph-name="H.c2sc" horiz-adv-x="1213" 
d="M957 273q-5 -23 -11 -62t-6 -71q0 -31 9 -49.5t26.5 -28t56.5 -13.5l-10 -49h-384l10 49q30 6 44.5 12.5t28.5 22.5t28 54t31 110l56 253h-448l-51 -228q-5 -22 -11 -61t-6 -72q0 -31 9 -49.5t26.5 -28t56.5 -13.5l-10 -49h-384l10 49q30 6 44.5 12.5t28.5 22.5t28 54
t31 110l117 526q7 30 12 69.5t5 58.5q0 49 -20 70.5t-72 25.5l10 49h384l-10 -49q-30 -6 -45 -13t-29.5 -23.5t-29 -57t-30.5 -112.5l-45 -205h448l42 187q7 29 12 69t5 59q0 49 -20 70.5t-72 25.5l10 49h384l-10 -49q-30 -6 -45 -13t-29.5 -23.5t-29 -57t-30.5 -112.5z" />
    <glyph glyph-name="I.c2sc" horiz-adv-x="593" 
d="M337 273q-5 -23 -11 -62t-6 -71q0 -31 9 -49.5t26.5 -28t56.5 -13.5l-10 -49h-384l10 49q30 6 44.5 12.5t28.5 22.5t28 54t31 110l117 526q7 30 12 69.5t5 58.5q0 49 -20 70.5t-72 25.5l10 49h384l-10 -49q-30 -6 -45 -13t-29.5 -23.5t-29 -57t-30.5 -112.5z" />
    <glyph glyph-name="J.c2sc" horiz-adv-x="577" 
d="M300 111q-34 -159 -87 -249.5t-138.5 -134.5t-208.5 -44q-54 0 -90 10l24 90q16 -5 35.5 -6.5t40.5 -1.5q70 0 114.5 34t74 101t53.5 174l152 690q7 32 12 70.5t5 57.5q0 49 -20 70.5t-72 25.5l10 49h384l-10 -49q-32 -6 -47 -13.5t-29.5 -25.5t-29 -59.5t-28.5 -107.5z
" />
    <glyph glyph-name="K.c2sc" horiz-adv-x="1096" 
d="M405 580h43q45 0 86 20q45 22 112 84l93 87q76 74 104 118q20 31 20 55q0 25 -16 37.5t-46 16.5l10 49h380l-10 -49q-35 -5 -74 -31.5t-131 -109.5l-297 -268l158 -375q22 -53 41.5 -82.5t39 -46.5t41.5 -25t41 -11l-11 -49h-365l11 49q26 2 40 15t14 32q0 17 -2.5 31.5
t-7 27t-17.5 44.5l-94 222q-20 47 -42 66t-63 19h-75l-51 -233q-5 -25 -11 -63t-6 -70q0 -31 9 -49.5t26.5 -28t56.5 -13.5l-10 -49h-384l10 49q30 6 44.5 12.5t28.5 22.5t28 54t31 110l117 526q7 30 12 69.5t5 58.5q0 49 -20 70.5t-72 25.5l10 49h384l-10 -49
q-30 -6 -45 -13t-29.5 -23.5t-29 -57t-30.5 -112.5z" />
    <glyph glyph-name="L.c2sc" horiz-adv-x="915" 
d="M586 998q-30 -6 -45 -13t-29.5 -23.5t-29 -57t-30.5 -112.5l-157 -706h191q53 0 84.5 12.5t57.5 38.5t50.5 72t45.5 107h92l-80 -316h-718l10 49q30 6 44.5 12.5t28.5 22.5t28 54t31 110l117 526q7 30 12 69.5t5 58.5q0 49 -20 70.5t-72 25.5l10 49h384z" />
    <glyph glyph-name="M.c2sc" horiz-adv-x="1409" 
d="M1153 273q-5 -23 -11 -62t-6 -71q0 -31 9 -49.5t26.5 -28t56.5 -13.5l-10 -49h-384l10 49q30 6 44.5 12.5t28.5 22.5t28 54t31 110l141 622h-14q-58 -102 -126 -203l-323 -487h-101l-121 607l-15 90h-10q-27 -142 -56 -272l-73 -332q-6 -28 -9 -45.5t-5.5 -41.5t-2.5 -46
q0 -31 9 -49.5t26.5 -28t56.5 -13.5l-10 -49h-327l10 49q30 6 44.5 12.5t28.5 22.5t28 54t31 110l117 526q7 30 12 69.5t5 58.5q0 49 -20 70.5t-72 25.5l10 49h329l126 -673l445 673h302l-10 -49q-30 -6 -45 -13t-29.5 -23.5t-29 -57t-30.5 -112.5z" />
    <glyph glyph-name="N.c2sc" horiz-adv-x="1183" 
d="M828 271q27 139 71 341l36 162q7 30 12 69.5t5 58.5q0 49 -20 70.5t-72 25.5l10 49h327l-10 -49q-30 -6 -45 -13t-29.5 -23.5t-29 -57t-30.5 -112.5l-175 -799h-110l-276 650l-43.5 106.5t-38.5 103.5h-8q-15 -95 -48 -239l-76 -341q-10 -47 -13.5 -79t-3.5 -54
q0 -31 9 -49.5t26.5 -28t56.5 -13.5l-10 -49h-327l10 49q30 6 44.5 12.5t28.5 22.5t28 54t31 110l117 526q7 30 12 69.5t5 58.5q0 49 -20 70.5t-72 25.5l10 49h291l233 -554q10 -24 32 -81l52 -141h10z" />
    <glyph glyph-name="O.c2sc" horiz-adv-x="1105" 
d="M445 -16q-105 0 -184 39t-123.5 120.5t-44.5 201.5q0 121 40 260t118.5 243.5t187.5 159.5t236 55q119 0 199.5 -45.5t118.5 -123.5t38 -180q0 -93 -19 -185t-51 -171.5t-82.5 -150t-117 -121t-147 -76.5t-169.5 -26zM271 305q0 -123 48 -181t144 -58q56 0 104 21
q54 24 97 70q49 53 89.5 141t72.5 227q27 114 27 221q0 118 -47.5 176.5t-149.5 58.5q-60 0 -111.5 -26t-94 -75.5t-76 -121.5t-58.5 -163t-35 -164t-10 -126z" />
    <glyph glyph-name="P.c2sc" horiz-adv-x="1010" 
d="M337 273q-6 -30 -9 -46.5t-5.5 -40.5t-2.5 -46q0 -48 24.5 -68.5t89.5 -22.5l-11 -49h-405l10 49q30 6 44.5 12.5t28.5 22.5t28 54t31 110l117 526q7 30 12 69.5t5 58.5q0 49 -20 70.5t-72 25.5l10 49h428q130 0 202.5 -27.5t110.5 -80t38 -137.5q0 -177 -124.5 -270.5
t-348.5 -93.5q-84 0 -144 5zM494 520q158 0 240 71.5t82 208.5q0 82 -48 123.5t-148 41.5q-99 0 -131 -2l-98 -443h103z" />
    <glyph glyph-name="Q.c2sc" horiz-adv-x="1105" 
d="M580 0q22 -66 43.5 -108t41 -62t39.5 -28.5t51 -8.5q40 0 71 18t83 69l50 -53q-75 -82 -139 -115t-138 -33q-69 0 -117 29t-86.5 94.5t-74.5 183.5q-149 11 -230 104.5t-81 254.5q0 121 40 260t118.5 243.5t187.5 159.5t236 55q119 0 199.5 -45.5t118.5 -123.5t38 -180
q0 -126 -36.5 -256.5t-98.5 -224.5t-142 -151.5t-174 -81.5zM271 305q0 -123 48 -181t144 -58q56 0 104 21q54 24 97 70q49 53 89.5 141t72.5 227q27 114 27 221q0 118 -47.5 176.5t-149.5 58.5q-60 0 -111.5 -26t-94 -75.5t-76 -121.5t-58.5 -163t-35 -164t-10 -126z" />
    <glyph glyph-name="R.c2sc" horiz-adv-x="1066" 
d="M374 445l-37 -172q-7 -31 -9.5 -47t-5 -40t-2.5 -46q0 -48 24.5 -68.5t89.5 -22.5l-11 -49h-405l10 49q30 6 44.5 12.5t28.5 22.5t28 54t31 110l117 526q7 30 12 69.5t5 58.5q0 49 -20 70.5t-72 25.5l10 49h437q130 0 202.5 -27.5t110.5 -80t38 -137.5t-36.5 -148
t-102.5 -105.5t-163 -74.5v-8q46 -31 71.5 -75t40.5 -102l20 -76q11 -43 22.5 -72t26.5 -48t35.5 -28.5t57.5 -15.5l-8 -49h-244q-27 58 -53 163l-35 142q-14 55 -27.5 83t-37 42.5t-64.5 14.5h-129zM504 527q107 0 179.5 34.5t107 95.5t34.5 143t-48.5 123.5t-151.5 41.5
q-104 0 -136 -2l-97 -436h112z" />
    <glyph glyph-name="S.c2sc" horiz-adv-x="860" 
d="M132 262q3 -95 55 -145.5t156 -50.5q108 0 164.5 50.5t56.5 144.5q0 47 -17 81.5t-52 65t-121 82.5q-103 60 -152.5 125t-49.5 142q0 91 46.5 160t136 107.5t209.5 38.5q77 0 148.5 -9.5t163.5 -35.5l-46 -217h-92q-12 180 -189 180q-67 0 -113.5 -24t-68.5 -62.5
t-22 -84.5q0 -45 17 -78.5t51.5 -63t102.5 -69.5q88 -52 133 -93t65.5 -89t20.5 -114q0 -94 -49 -166.5t-139 -112.5t-210 -40q-101 0 -187.5 13.5t-159.5 34.5l49 230h93z" />
    <glyph glyph-name="T.c2sc" horiz-adv-x="1041" 
d="M1109 1047l-64 -281h-92q-1 67 -5 104t-15 56.5t-30 29t-59 9.5h-130l-152 -692q-6 -28 -9 -45.5t-5.5 -41.5t-2.5 -46q0 -33 11 -52t32 -28t64 -11l-10 -49h-414l10 49q35 3 52 9t32.5 21.5t30 53t32.5 115.5l156 717h-130q-30 0 -49.5 -5.5t-37 -18t-37 -36.5
t-37.5 -59t-37 -86h-92l61 287h927z" />
    <glyph glyph-name="U.c2sc" horiz-adv-x="1147" 
d="M884 774q7 34 12 72t5 56q0 49 -20 70.5t-72 25.5l10 49h359l-10 -49q-31 -6 -46.5 -13.5t-30 -25.5t-29 -59.5t-28.5 -107.5l-88 -404q-32 -148 -91 -236.5t-147.5 -128t-221.5 -39.5q-102 0 -177.5 34t-115.5 97t-40 147q0 54 6 102t23 121l64 289q7 31 12 70t5 58
q0 49 -20 70.5t-72 25.5l10 49h384l-10 -49q-30 -6 -45 -13t-29.5 -23.5t-29 -57t-30.5 -112.5l-77 -349q-15 -67 -20 -109.5t-5 -75.5q0 -96 47.5 -144t145.5 -48q83 0 137.5 33.5t89.5 101.5t61 185z" />
    <glyph glyph-name="V.c2sc" horiz-adv-x="1039" 
d="M515 1047l-10 -49q-55 -4 -79 -25t-24 -65q0 -61 5 -125l23 -312q11 -151 15 -286h9l328 547q44 73 59 112.5t15 70.5q0 39 -21 59t-67 24l10 49h369l-10 -49q-29 -6 -53 -24.5t-51.5 -55t-77.5 -116.5l-509 -818h-136l-81 845q-5 49 -14 87t-30.5 58.5t-70.5 23.5l10 49
h391z" />
    <glyph glyph-name="W.c2sc" horiz-adv-x="1644" 
d="M937 -5l-29 610l-2 44l-1 52l-2 60l-1 63h-10l-433 -829h-150l-74 833q-6 68 -19 103t-34 50t-62 17l10 49h392l-10 -49q-41 -3 -63 -15t-31.5 -35.5t-9.5 -71.5q0 -18 1 -43l34 -559l3 -85h10l446 858h151l22 -705l1 -66v-88h10l283 511q52 94 70.5 140.5t18.5 76.5
q0 39 -20 58.5t-67 23.5l10 49h365l-10 -49q-47 -11 -89.5 -57.5t-99.5 -145.5l-457 -800h-153z" />
    <glyph glyph-name="X.c2sc" horiz-adv-x="1003" 
d="M543 1047l-10 -49q-38 -4 -60 -23.5t-22 -47.5q0 -24 5.5 -46.5t24.5 -67.5l80 -181l154 165q44 47 69.5 81.5t25.5 59.5q0 26 -13.5 39.5t-46.5 20.5l10 49h341l-10 -49q-40 -7 -90 -49t-149 -147l-249 -263l132 -295l33.5 -71.5t29 -52.5t28 -37t28.5 -22t35 -12
l-10 -49h-375l10 49q38 4 60 23.5t22 47.5q0 17 -4.5 42t-21.5 63l-90 202l-194 -210q-65 -70 -65 -108q0 -26 13.5 -39.5t46.5 -20.5l-10 -49h-343l10 49q24 4 53.5 21.5t67.5 53t114 115.5l266 279l-132 296q-29 65 -51.5 103.5t-44 56t-51.5 24.5l10 49h373z" />
    <glyph glyph-name="Y.c2sc" horiz-adv-x="989" 
d="M201 49q35 3 52 9t32.5 21.5t30 53t32.5 115.5l40 185l-134 370q-30 82 -50.5 118t-43 53.5t-50.5 23.5l11 49h371l-11 -49q-39 -3 -59.5 -22.5t-20.5 -54.5q0 -44 21 -102l99 -286l204 251q48 60 69.5 95t21.5 65q0 26 -16 38.5t-55 15.5l11 49h338l-10 -49
q-30 -8 -54.5 -25t-54 -48.5t-103.5 -118.5l-312 -372l-35 -161q-6 -30 -9 -46.5t-5.5 -40.5t-2.5 -46q0 -33 11 -52t32 -28t64 -11l-10 -49h-414z" />
    <glyph glyph-name="Z.c2sc" horiz-adv-x="958" 
d="M219 85h289q52 0 88 18t71.5 65t67.5 131h92l-66 -299h-779l10 49l752 912h-300q-47 0 -78.5 -16.5t-57.5 -53.5t-64 -126h-92l60 282h769l-10 -49z" />
    <glyph glyph-name="Agrave.c2sc" horiz-adv-x="1060" 
d="M570 0l10 49q56 4 79.5 26t23.5 64q0 61 -5 125l-6 71h-386l-12 -20q-42 -70 -58 -110t-16 -73q0 -39 20 -59t68 -24l-10 -49h-365l10 49q34 5 74 46t108 150l509 818h156l81 -845q5 -51 14.5 -88.5t30.5 -58t70 -22.5l-10 -49h-386zM333 417h332l-29 416l-2 60l-10 -1z
M706 1532l133 -328l-71 -44l-235 322l11 50h162z" />
    <glyph glyph-name="Aacute.c2sc" horiz-adv-x="1060" 
d="M570 0l10 49q56 4 79.5 26t23.5 64q0 61 -5 125l-6 71h-386l-12 -20q-42 -70 -58 -110t-16 -73q0 -39 20 -59t68 -24l-10 -49h-365l10 49q34 5 74 46t108 150l509 818h156l81 -845q5 -51 14.5 -88.5t30.5 -58t70 -22.5l-10 -49h-386zM333 417h332l-29 416l-2 60l-10 -1z
M1040 1532l-11 -50l-374 -322l-62 60l263 312h184z" />
    <glyph glyph-name="Acircumflex.c2sc" horiz-adv-x="1060" 
d="M570 0l10 49q56 4 79.5 26t23.5 64q0 61 -5 125l-6 71h-386l-12 -20q-42 -70 -58 -110t-16 -73q0 -39 20 -59t68 -24l-10 -49h-365l10 49q34 5 74 46t108 150l509 818h156l81 -845q5 -51 14.5 -88.5t30.5 -58t70 -22.5l-10 -49h-386zM333 417h332l-29 416l-2 60l-10 -1z
M851 1522l132 -337l-79 -35l-138 243h-10l-256 -243l-62 57l277 315h136z" />
    <glyph glyph-name="Atilde.c2sc" horiz-adv-x="1060" 
d="M570 0l10 49q56 4 79.5 26t23.5 64q0 61 -5 125l-6 71h-386l-12 -20q-42 -70 -58 -110t-16 -73q0 -39 20 -59t68 -24l-10 -49h-365l10 49q34 5 74 46t108 150l509 818h156l81 -845q5 -51 14.5 -88.5t30.5 -58t70 -22.5l-10 -49h-386zM333 417h332l-29 416l-2 60l-10 -1z
M1008 1455l69 -48q-50 -75 -88.5 -116t-70.5 -57t-71 -16q-23 0 -42 6t-35.5 16t-49.5 38q-30 24 -43 33t-25 13.5t-25 4.5q-25 0 -45 -9.5t-44 -34.5t-54 -67l-70 47q61 87 93 122t64.5 51.5t77.5 16.5q16 0 29.5 -3.5t26.5 -9.5t23 -13t39 -30q41 -34 60.5 -44.5
t39.5 -10.5q23 0 43 10t44 34t54 67z" />
    <glyph glyph-name="Adieresis.c2sc" horiz-adv-x="1060" 
d="M570 0l10 49q56 4 79.5 26t23.5 64q0 61 -5 125l-6 71h-386l-12 -20q-42 -70 -58 -110t-16 -73q0 -39 20 -59t68 -24l-10 -49h-365l10 49q34 5 74 46t108 150l509 818h156l81 -845q5 -51 14.5 -88.5t30.5 -58t70 -22.5l-10 -49h-386zM333 417h332l-29 416l-2 60l-10 -1z
M1009 1429l-38 -176h-165l38 176h165zM687 1429l-38 -176h-165l38 176h165z" />
    <glyph glyph-name="Amacron.c2sc" horiz-adv-x="1060" 
d="M570 0l10 49q56 4 79.5 26t23.5 64q0 61 -5 125l-6 71h-386l-12 -20q-42 -70 -58 -110t-16 -73q0 -39 20 -59t68 -24l-10 -49h-365l10 49q34 5 74 46t108 150l509 818h156l81 -845q5 -51 14.5 -88.5t30.5 -58t70 -22.5l-10 -49h-386zM333 417h332l-29 416l-2 60l-10 -1z
M984 1278h-501l26 125h501z" />
    <glyph glyph-name="Abreve.c2sc" horiz-adv-x="1060" 
d="M570 0l10 49q56 4 79.5 26t23.5 64q0 61 -5 125l-6 71h-386l-12 -20q-42 -70 -58 -110t-16 -73q0 -39 20 -59t68 -24l-10 -49h-365l10 49q34 5 74 46t108 150l509 818h156l81 -845q5 -51 14.5 -88.5t30.5 -58t70 -22.5l-10 -49h-386zM333 417h332l-29 416l-2 60l-10 -1z
M1068 1459q-58 -98 -116.5 -153.5t-119 -79t-136.5 -23.5q-101 0 -156 76.5t-55 215.5l81 15q12 -180 153 -180q58 0 100.5 15t85.5 51.5t92 104.5z" />
    <glyph glyph-name="Aring.c2sc" horiz-adv-x="1060" 
d="M570 0l10 49q56 4 79.5 26t23.5 64q0 61 -5 125l-6 71h-386l-12 -20q-42 -70 -58 -110t-16 -73q0 -39 20 -59t68 -24l-10 -49h-365l10 49q34 5 74 46t108 150l509 818h156l81 -845q5 -51 14.5 -88.5t30.5 -58t70 -22.5l-10 -49h-386zM333 417h332l-29 416l-2 60l-10 -1z
M707 1161q-86 0 -132.5 38.5t-46.5 109.5q0 46 16.5 94t53.5 84.5t87.5 55.5t107.5 19q90 0 135.5 -38.5t45.5 -110.5q0 -66 -31 -126t-92 -93t-144 -33zM629 1315q0 -42 21.5 -67t67.5 -25q48 0 84 28.5t53.5 72.5t17.5 85q0 44 -23 67.5t-65 23.5q-43 0 -79 -25t-56.5 -68
t-20.5 -92z" />
    <glyph glyph-name="Aringacute.c2sc" horiz-adv-x="1060" 
d="M570 0l10 49q56 4 79.5 26t23.5 64q0 61 -5 125l-6 71h-386l-12 -20q-42 -70 -58 -110t-16 -73q0 -39 20 -59t68 -24l-10 -49h-365l10 49q34 5 74 46t108 150l509 818h156l81 -845q5 -51 14.5 -88.5t30.5 -58t70 -22.5l-10 -49h-386zM333 417h332l-29 416l-2 60l-10 -1z
M707 1161q-86 0 -132.5 38.5t-46.5 109.5q0 46 16.5 94t53.5 84.5t87.5 55.5t107.5 19q90 0 135.5 -38.5t45.5 -110.5q0 -66 -31 -126t-92 -93t-144 -33zM629 1315q0 -42 21.5 -67t67.5 -25q48 0 84 28.5t53.5 72.5t17.5 85q0 44 -23 67.5t-65 23.5q-43 0 -79 -25t-56.5 -68
t-20.5 -92zM1109 1946l-11 -50l-374 -322l-62 60l263 312h184z" />
    <glyph glyph-name="Aogonek.c2sc" horiz-adv-x="1060" 
d="M863 0q-111 -85 -155.5 -144t-44.5 -111q0 -48 20 -66.5t62 -18.5q33 0 61.5 10.5t50.5 23.5l16 -68q-36 -25 -83 -40.5t-86 -15.5q-87 0 -130 38.5t-43 118.5q0 66 60.5 136t175.5 137h-197l10 49q56 4 79.5 26t23.5 64q0 61 -5 125l-6 71h-386l-12 -20
q-42 -70 -58 -110t-16 -73q0 -39 20 -59t68 -24l-10 -49h-365l10 49q34 5 74 46t108 150l509 818h156l81 -845q5 -51 14.5 -88.5t30.5 -58t70 -22.5l-10 -49h-93zM333 417h332l-29 416l-2 60l-10 -1z" />
    <glyph glyph-name="AE.c2sc" horiz-adv-x="1502" 
d="M337 335l-67 -90q-25 -34 -38.5 -57t-18.5 -41t-5 -36q0 -24 18.5 -41.5t53.5 -20.5l-10 -49h-365l10 49q29 5 60 26t72 66.5t125 153.5l581 752h757l-56 -249h-92q-4 69 -14.5 105t-30 49t-62.5 13h-305l-55 -380h151q38 0 61.5 10t42 33t37.5 67h86l-69 -312h-82
q0 49 -4 72t-13.5 32.5t-23 12.5t-42.5 3h-157l-60 -421h207q39 0 62 5.5t43 17t39.5 31.5t41 54t43.5 82h92l-68 -272h-738l10 49q37 5 53.5 14t29 27t23.5 55t21 103l13 87h-357zM742 664q22 154 45 256h-9l-379 -503h307z" />
    <glyph glyph-name="AEacute.c2sc" horiz-adv-x="1502" 
d="M337 335l-67 -90q-25 -34 -38.5 -57t-18.5 -41t-5 -36q0 -24 18.5 -41.5t53.5 -20.5l-10 -49h-365l10 49q29 5 60 26t72 66.5t125 153.5l581 752h757l-56 -249h-92q-4 69 -14.5 105t-30 49t-62.5 13h-305l-55 -380h151q38 0 61.5 10t42 33t37.5 67h86l-69 -312h-82
q0 49 -4 72t-13.5 32.5t-23 12.5t-42.5 3h-157l-60 -421h207q39 0 62 5.5t43 17t39.5 31.5t41 54t43.5 82h92l-68 -272h-738l10 49q37 5 53.5 14t29 27t23.5 55t21 103l13 87h-357zM742 664q22 154 45 256h-9l-379 -503h307zM1383 1532l-11 -50l-374 -322l-62 60l263 312
h184z" />
    <glyph glyph-name="Cacute.c2sc" horiz-adv-x="962" 
d="M985 1027l-52 -247h-92q0 101 -41.5 151t-131.5 50q-60 0 -107 -20q-52 -23 -97 -70q-53 -55 -97.5 -146.5t-71.5 -208t-27 -220.5q0 -127 46 -188.5t145 -61.5q100 0 164 55.5t108 158.5h92l-53 -251q-154 -45 -329 -45q-108 0 -187 42.5t-120.5 120t-41.5 180.5
q0 114 29 232q39 160 123 274t199.5 172t250.5 58q75 0 150 -8t141 -28zM1023 1532l-11 -50l-374 -322l-62 60l263 312h184z" />
    <glyph glyph-name="Ccircumflex.c2sc" horiz-adv-x="962" 
d="M985 1027l-52 -247h-92q0 101 -41.5 151t-131.5 50q-60 0 -107 -20q-52 -23 -97 -70q-53 -55 -97.5 -146.5t-71.5 -208t-27 -220.5q0 -127 46 -188.5t145 -61.5q100 0 164 55.5t108 158.5h92l-53 -251q-154 -45 -329 -45q-108 0 -187 42.5t-120.5 120t-41.5 180.5
q0 114 29 232q39 160 123 274t199.5 172t250.5 58q75 0 150 -8t141 -28zM838 1522l132 -337l-79 -35l-138 243h-10l-256 -243l-62 57l277 315h136z" />
    <glyph glyph-name="Ccaron.c2sc" horiz-adv-x="962" 
d="M985 1027l-52 -247h-92q0 101 -41.5 151t-131.5 50q-60 0 -107 -20q-52 -23 -97 -70q-53 -55 -97.5 -146.5t-71.5 -208t-27 -220.5q0 -127 46 -188.5t145 -61.5q100 0 164 55.5t108 158.5h92l-53 -251q-154 -45 -329 -45q-108 0 -187 42.5t-120.5 120t-41.5 180.5
q0 114 29 232q39 160 123 274t199.5 172t250.5 58q75 0 150 -8t141 -28zM623 1170l-132 335l78 37l138 -243h10l256 243l63 -57l-278 -315h-135z" />
    <glyph glyph-name="Cdotaccent.c2sc" horiz-adv-x="962" 
d="M985 1027l-52 -247h-92q0 101 -41.5 151t-131.5 50q-60 0 -107 -20q-52 -23 -97 -70q-53 -55 -97.5 -146.5t-71.5 -208t-27 -220.5q0 -127 46 -188.5t145 -61.5q100 0 164 55.5t108 158.5h92l-53 -251q-154 -45 -329 -45q-108 0 -187 42.5t-120.5 120t-41.5 180.5
q0 114 29 232q39 160 123 274t199.5 172t250.5 58q75 0 150 -8t141 -28zM841 1438l-46 -194h-177l46 194h177z" />
    <glyph glyph-name="Ccedilla.c2sc" horiz-adv-x="962" 
d="M985 1027l-52 -247h-92q0 101 -41.5 151t-131.5 50q-60 0 -107 -20q-52 -23 -97 -70q-53 -55 -97.5 -146.5t-71.5 -208t-27 -220.5q0 -127 46 -188.5t145 -61.5q100 0 164 55.5t108 158.5h92l-53 -251q-99 -29 -217 -40l-113 -76q4 -14 4 -49q0 -125 -94.5 -202.5
t-267.5 -91.5v76q96 8 148.5 58t54.5 145l7 34l160 101h-11q-108 0 -187 42.5t-120.5 120t-41.5 180.5q0 114 29 232q39 160 123 274t199.5 172t250.5 58q75 0 150 -8t141 -28z" />
    <glyph glyph-name="Dcaron.c2sc" horiz-adv-x="1156" 
d="M28 49q30 6 44.5 12.5t28.5 22.5t28 54t31 110l117 526q7 30 12 69.5t5 58.5q0 49 -20 70.5t-72 25.5l10 49h350q104 0 174 -11.5t119 -33t87 -49.5t66.5 -74t44 -106.5t15.5 -127.5q0 -137 -49.5 -263.5t-137.5 -213.5t-195 -127.5t-265 -40.5h-403zM296 85q32 -3 72 -3
h22q94 0 165.5 19t128.5 61t105.5 119.5t73.5 168t25 188.5q0 166 -77.5 246.5t-238.5 80.5q-44 0 -83 -3zM647 1170l-132 335l78 37l138 -243h10l256 243l63 -57l-278 -315h-135z" />
    <glyph glyph-name="Dcroat.c2sc" horiz-adv-x="1164" 
d="M36 49q30 6 44.5 12.5t28.5 22.5t28 54t31 110l56 252h-147l19 88h147l42 186q6 28 11.5 68.5t5.5 59.5q0 49 -20 70.5t-72 25.5l10 49h350q104 0 174 -11.5t119 -33t87 -49.5t66.5 -74t44 -106.5t15.5 -127.5q0 -137 -49.5 -263.5t-137.5 -213.5t-195 -127.5t-265 -40.5
h-403zM395 500l-91 -415q32 -3 72 -3h22q94 0 165.5 19t128.5 61t105.5 119.5t73.5 168t25 188.5q0 166 -77.5 246.5t-238.5 80.5q-44 0 -83 -3l-82 -374h249l-19 -88h-250z" />
    <glyph glyph-name="Egrave.c2sc" horiz-adv-x="1022" 
d="M28 49q30 6 44.5 12.5t28.5 22.5t28 54t31 110l117 526q7 30 12 69.5t5 58.5q0 49 -20 70.5t-72 25.5l10 49h818l-56 -249h-92q-4 69 -14.5 105t-30 49t-62.5 13h-285l-83 -380h159q38 0 61.5 10t42 33t37.5 67h86l-69 -312h-82q0 49 -4 72t-13.5 32.5t-23 12.5t-42.5 3
h-170l-94 -421h254q39 0 62 5.5t43 17t39.5 31.5t41 54t43.5 82h92l-68 -272h-784zM645 1532l133 -328l-71 -44l-235 322l11 50h162z" />
    <glyph glyph-name="Eacute.c2sc" horiz-adv-x="1022" 
d="M28 49q30 6 44.5 12.5t28.5 22.5t28 54t31 110l117 526q7 30 12 69.5t5 58.5q0 49 -20 70.5t-72 25.5l10 49h818l-56 -249h-92q-4 69 -14.5 105t-30 49t-62.5 13h-285l-83 -380h159q38 0 61.5 10t42 33t37.5 67h86l-69 -312h-82q0 49 -4 72t-13.5 32.5t-23 12.5t-42.5 3
h-170l-94 -421h254q39 0 62 5.5t43 17t39.5 31.5t41 54t43.5 82h92l-68 -272h-784zM994 1532l-11 -50l-374 -322l-62 60l263 312h184z" />
    <glyph glyph-name="Ecircumflex.c2sc" horiz-adv-x="1022" 
d="M28 49q30 6 44.5 12.5t28.5 22.5t28 54t31 110l117 526q7 30 12 69.5t5 58.5q0 49 -20 70.5t-72 25.5l10 49h818l-56 -249h-92q-4 69 -14.5 105t-30 49t-62.5 13h-285l-83 -380h159q38 0 61.5 10t42 33t37.5 67h86l-69 -312h-82q0 49 -4 72t-13.5 32.5t-23 12.5t-42.5 3
h-170l-94 -421h254q39 0 62 5.5t43 17t39.5 31.5t41 54t43.5 82h92l-68 -272h-784zM810 1522l132 -337l-79 -35l-138 243h-10l-256 -243l-62 57l277 315h136z" />
    <glyph glyph-name="Ecaron.c2sc" horiz-adv-x="1022" 
d="M28 49q30 6 44.5 12.5t28.5 22.5t28 54t31 110l117 526q7 30 12 69.5t5 58.5q0 49 -20 70.5t-72 25.5l10 49h818l-56 -249h-92q-4 69 -14.5 105t-30 49t-62.5 13h-285l-83 -380h159q38 0 61.5 10t42 33t37.5 67h86l-69 -312h-82q0 49 -4 72t-13.5 32.5t-23 12.5t-42.5 3
h-170l-94 -421h254q39 0 62 5.5t43 17t39.5 31.5t41 54t43.5 82h92l-68 -272h-784zM594 1170l-132 335l78 37l138 -243h10l256 243l63 -57l-278 -315h-135z" />
    <glyph glyph-name="Edieresis.c2sc" horiz-adv-x="1022" 
d="M28 49q30 6 44.5 12.5t28.5 22.5t28 54t31 110l117 526q7 30 12 69.5t5 58.5q0 49 -20 70.5t-72 25.5l10 49h818l-56 -249h-92q-4 69 -14.5 105t-30 49t-62.5 13h-285l-83 -380h159q38 0 61.5 10t42 33t37.5 67h86l-69 -312h-82q0 49 -4 72t-13.5 32.5t-23 12.5t-42.5 3
h-170l-94 -421h254q39 0 62 5.5t43 17t39.5 31.5t41 54t43.5 82h92l-68 -272h-784zM963 1429l-38 -176h-165l38 176h165zM641 1429l-38 -176h-165l38 176h165z" />
    <glyph glyph-name="Emacron.c2sc" horiz-adv-x="1022" 
d="M28 49q30 6 44.5 12.5t28.5 22.5t28 54t31 110l117 526q7 30 12 69.5t5 58.5q0 49 -20 70.5t-72 25.5l10 49h818l-56 -249h-92q-4 69 -14.5 105t-30 49t-62.5 13h-285l-83 -380h159q38 0 61.5 10t42 33t37.5 67h86l-69 -312h-82q0 49 -4 72t-13.5 32.5t-23 12.5t-42.5 3
h-170l-94 -421h254q39 0 62 5.5t43 17t39.5 31.5t41 54t43.5 82h92l-68 -272h-784zM938 1278h-501l26 125h501z" />
    <glyph glyph-name="Ebreve.c2sc" horiz-adv-x="1022" 
d="M28 49q30 6 44.5 12.5t28.5 22.5t28 54t31 110l117 526q7 30 12 69.5t5 58.5q0 49 -20 70.5t-72 25.5l10 49h818l-56 -249h-92q-4 69 -14.5 105t-30 49t-62.5 13h-285l-83 -380h159q38 0 61.5 10t42 33t37.5 67h86l-69 -312h-82q0 49 -4 72t-13.5 32.5t-23 12.5t-42.5 3
h-170l-94 -421h254q39 0 62 5.5t43 17t39.5 31.5t41 54t43.5 82h92l-68 -272h-784zM1023 1459q-58 -98 -116.5 -153.5t-119 -79t-136.5 -23.5q-101 0 -156 76.5t-55 215.5l81 15q12 -180 153 -180q58 0 100.5 15t85.5 51.5t92 104.5z" />
    <glyph glyph-name="Edotaccent.c2sc" horiz-adv-x="1022" 
d="M28 49q30 6 44.5 12.5t28.5 22.5t28 54t31 110l117 526q7 30 12 69.5t5 58.5q0 49 -20 70.5t-72 25.5l10 49h818l-56 -249h-92q-4 69 -14.5 105t-30 49t-62.5 13h-285l-83 -380h159q38 0 61.5 10t42 33t37.5 67h86l-69 -312h-82q0 49 -4 72t-13.5 32.5t-23 12.5t-42.5 3
h-170l-94 -421h254q39 0 62 5.5t43 17t39.5 31.5t41 54t43.5 82h92l-68 -272h-784zM813 1438l-46 -194h-177l46 194h177z" />
    <glyph glyph-name="Eogonek.c2sc" horiz-adv-x="1022" 
d="M28 49q30 6 44.5 12.5t28.5 22.5t28 54t31 110l117 526q7 30 12 69.5t5 58.5q0 49 -20 70.5t-72 25.5l10 49h818l-56 -249h-92q-4 69 -14.5 105t-30 49t-62.5 13h-285l-83 -380h159q38 0 61.5 10t42 33t37.5 67h86l-69 -312h-82q0 49 -4 72t-13.5 32.5t-23 12.5t-42.5 3
h-170l-94 -421h254q39 0 62 5.5t43 17t39.5 31.5t41 54t43.5 82h92l-68 -272h-85q-111 -85 -155.5 -144t-44.5 -111q0 -48 20 -66.5t62 -18.5q33 0 61.5 10.5t50.5 23.5l16 -68q-36 -25 -83 -40.5t-86 -15.5q-87 0 -130 38.5t-43 118.5q0 66 60.5 136t175.5 137h-603z" />
    <glyph glyph-name="Gcircumflex.c2sc" horiz-adv-x="1056" 
d="M1002 1025l-49 -245h-92q0 105 -43 153t-136 48q-79 0 -138 -31.5t-110.5 -98t-88 -156t-57 -190.5t-20.5 -189q0 -127 46 -188.5t145 -61.5q31 0 64.5 5.5t62.5 21t51.5 43t32.5 71.5l13 59q2 10 4 22.5t3.5 24.5t2.5 24.5t1 23.5q0 32 -17.5 50t-62.5 21l11 49h351
l-10 -49q-40 -8 -58 -23.5t-32.5 -50.5t-31.5 -115l-54 -243l-71 -17l-42 62q-66 -32 -122 -46.5t-114 -14.5q-108 0 -187 43.5t-120.5 121.5t-41.5 180q0 141 42 280.5t125 243t198 157t250 53.5q154 0 295 -38zM837 1522l132 -337l-79 -35l-138 243h-10l-256 -243l-62 57
l277 315h136z" />
    <glyph glyph-name="Gbreve.c2sc" horiz-adv-x="1056" 
d="M1002 1025l-49 -245h-92q0 105 -43 153t-136 48q-79 0 -138 -31.5t-110.5 -98t-88 -156t-57 -190.5t-20.5 -189q0 -127 46 -188.5t145 -61.5q31 0 64.5 5.5t62.5 21t51.5 43t32.5 71.5l13 59q2 10 4 22.5t3.5 24.5t2.5 24.5t1 23.5q0 32 -17.5 50t-62.5 21l11 49h351
l-10 -49q-40 -8 -58 -23.5t-32.5 -50.5t-31.5 -115l-54 -243l-71 -17l-42 62q-66 -32 -122 -46.5t-114 -14.5q-108 0 -187 43.5t-120.5 121.5t-41.5 180q0 141 42 280.5t125 243t198 157t250 53.5q154 0 295 -38zM1050 1459q-58 -98 -116.5 -153.5t-119 -79t-136.5 -23.5
q-101 0 -156 76.5t-55 215.5l81 15q12 -180 153 -180q58 0 100.5 15t85.5 51.5t92 104.5z" />
    <glyph glyph-name="Gdotaccent.c2sc" horiz-adv-x="1056" 
d="M1002 1025l-49 -245h-92q0 105 -43 153t-136 48q-79 0 -138 -31.5t-110.5 -98t-88 -156t-57 -190.5t-20.5 -189q0 -127 46 -188.5t145 -61.5q31 0 64.5 5.5t62.5 21t51.5 43t32.5 71.5l13 59q2 10 4 22.5t3.5 24.5t2.5 24.5t1 23.5q0 32 -17.5 50t-62.5 21l11 49h351
l-10 -49q-40 -8 -58 -23.5t-32.5 -50.5t-31.5 -115l-54 -243l-71 -17l-42 62q-66 -32 -122 -46.5t-114 -14.5q-108 0 -187 43.5t-120.5 121.5t-41.5 180q0 141 42 280.5t125 243t198 157t250 53.5q154 0 295 -38zM840 1438l-46 -194h-177l46 194h177z" />
    <glyph glyph-name="Gcommaaccent.c2sc" horiz-adv-x="1056" 
d="M1002 1025l-49 -245h-92q0 105 -43 153t-136 48q-79 0 -138 -31.5t-110.5 -98t-88 -156t-57 -190.5t-20.5 -189q0 -127 46 -188.5t145 -61.5q31 0 64.5 5.5t62.5 21t51.5 43t32.5 71.5l13 59q2 10 4 22.5t3.5 24.5t2.5 24.5t1 23.5q0 32 -17.5 50t-62.5 21l11 49h351
l-10 -49q-40 -8 -58 -23.5t-32.5 -50.5t-31.5 -115l-54 -243l-71 -17l-42 62q-66 -32 -122 -46.5t-114 -14.5q-108 0 -187 43.5t-120.5 121.5t-41.5 180q0 141 42 280.5t125 243t198 157t250 53.5q154 0 295 -38zM513 -99q1 -8 1 -16v-15q0 -131 -93 -209t-266 -91v76
q77 6 124 38.5t67.5 83.5t22.5 133h144z" />
    <glyph glyph-name="Hcircumflex.c2sc" horiz-adv-x="1213" 
d="M957 273q-5 -23 -11 -62t-6 -71q0 -31 9 -49.5t26.5 -28t56.5 -13.5l-10 -49h-384l10 49q30 6 44.5 12.5t28.5 22.5t28 54t31 110l56 253h-448l-51 -228q-5 -22 -11 -61t-6 -72q0 -31 9 -49.5t26.5 -28t56.5 -13.5l-10 -49h-384l10 49q30 6 44.5 12.5t28.5 22.5t28 54
t31 110l117 526q7 30 12 69.5t5 58.5q0 49 -20 70.5t-72 25.5l10 49h384l-10 -49q-30 -6 -45 -13t-29.5 -23.5t-29 -57t-30.5 -112.5l-45 -205h448l42 187q7 29 12 69t5 59q0 49 -20 70.5t-72 25.5l10 49h384l-10 -49q-30 -6 -45 -13t-29.5 -23.5t-29 -57t-30.5 -112.5z
M905 1522l132 -337l-79 -35l-138 243h-10l-256 -243l-62 57l277 315h136z" />
    <glyph glyph-name="Hbar.c2sc" horiz-adv-x="1222" 
d="M966 273q-5 -23 -11 -62t-6 -71q0 -31 9 -49.5t26.5 -28t56.5 -13.5l-10 -49h-384l10 49q30 6 44.5 12.5t28.5 22.5t28 54t31 110l25 113h-458l-19 -88q-6 -28 -11.5 -65t-5.5 -68t9 -49.5t26.5 -28t56.5 -13.5l-10 -49h-384l10 49q30 6 44.5 12.5t28.5 22.5t28 54
t31 110l117 526q7 30 12 69.5t5 58.5q0 49 -20 70.5t-72 25.5l10 49h384l-10 -49q-30 -6 -45 -13t-29.5 -23.5t-29 -57t-30.5 -112.5l-13 -57h458l9 39q6 26 11.5 67t5.5 61q0 49 -20 70.5t-72 25.5l10 49h384l-10 -49q-30 -6 -45 -13t-29.5 -23.5t-29 -57t-30.5 -112.5z
M375 443h457l47 210h-457z" />
    <glyph glyph-name="Igrave.c2sc" horiz-adv-x="593" 
d="M337 273q-5 -23 -11 -62t-6 -71q0 -31 9 -49.5t26.5 -28t56.5 -13.5l-10 -49h-384l10 49q30 6 44.5 12.5t28.5 22.5t28 54t31 110l117 526q7 30 12 69.5t5 58.5q0 49 -20 70.5t-72 25.5l10 49h384l-10 -49q-30 -6 -45 -13t-29.5 -23.5t-29 -57t-30.5 -112.5zM432 1532
l133 -328l-71 -44l-235 322l11 50h162z" />
    <glyph glyph-name="Iacute.c2sc" horiz-adv-x="593" 
d="M337 273q-5 -23 -11 -62t-6 -71q0 -31 9 -49.5t26.5 -28t56.5 -13.5l-10 -49h-384l10 49q30 6 44.5 12.5t28.5 22.5t28 54t31 110l117 526q7 30 12 69.5t5 58.5q0 49 -20 70.5t-72 25.5l10 49h384l-10 -49q-30 -6 -45 -13t-29.5 -23.5t-29 -57t-30.5 -112.5zM779 1532
l-11 -50l-374 -322l-62 60l263 312h184z" />
    <glyph glyph-name="Icircumflex.c2sc" horiz-adv-x="593" 
d="M337 273q-5 -23 -11 -62t-6 -71q0 -31 9 -49.5t26.5 -28t56.5 -13.5l-10 -49h-384l10 49q30 6 44.5 12.5t28.5 22.5t28 54t31 110l117 526q7 30 12 69.5t5 58.5q0 49 -20 70.5t-72 25.5l10 49h384l-10 -49q-30 -6 -45 -13t-29.5 -23.5t-29 -57t-30.5 -112.5zM595 1522
l132 -337l-79 -35l-138 243h-10l-256 -243l-62 57l277 315h136z" />
    <glyph glyph-name="Itilde.c2sc" horiz-adv-x="593" 
d="M337 273q-5 -23 -11 -62t-6 -71q0 -31 9 -49.5t26.5 -28t56.5 -13.5l-10 -49h-384l10 49q30 6 44.5 12.5t28.5 22.5t28 54t31 110l117 526q7 30 12 69.5t5 58.5q0 49 -20 70.5t-72 25.5l10 49h384l-10 -49q-30 -6 -45 -13t-29.5 -23.5t-29 -57t-30.5 -112.5zM748 1455
l69 -48q-50 -75 -88.5 -116t-70.5 -57t-71 -16q-23 0 -42 6t-35.5 16t-49.5 38q-30 24 -43 33t-25 13.5t-25 4.5q-25 0 -45 -9.5t-44 -34.5t-54 -67l-70 47q61 87 93 122t64.5 51.5t77.5 16.5q16 0 29.5 -3.5t26.5 -9.5t23 -13t39 -30q41 -34 60.5 -44.5t39.5 -10.5
q23 0 43 10t44 34t54 67z" />
    <glyph glyph-name="Idieresis.c2sc" horiz-adv-x="593" 
d="M337 273q-5 -23 -11 -62t-6 -71q0 -31 9 -49.5t26.5 -28t56.5 -13.5l-10 -49h-384l10 49q30 6 44.5 12.5t28.5 22.5t28 54t31 110l117 526q7 30 12 69.5t5 58.5q0 49 -20 70.5t-72 25.5l10 49h384l-10 -49q-30 -6 -45 -13t-29.5 -23.5t-29 -57t-30.5 -112.5zM749 1429
l-38 -176h-165l38 176h165zM427 1429l-38 -176h-165l38 176h165z" />
    <glyph glyph-name="Imacron.c2sc" horiz-adv-x="593" 
d="M337 273q-5 -23 -11 -62t-6 -71q0 -31 9 -49.5t26.5 -28t56.5 -13.5l-10 -49h-384l10 49q30 6 44.5 12.5t28.5 22.5t28 54t31 110l117 526q7 30 12 69.5t5 58.5q0 49 -20 70.5t-72 25.5l10 49h384l-10 -49q-30 -6 -45 -13t-29.5 -23.5t-29 -57t-30.5 -112.5zM724 1278
h-501l26 125h501z" />
    <glyph glyph-name="Ibreve.c2sc" horiz-adv-x="593" 
d="M337 273q-5 -23 -11 -62t-6 -71q0 -31 9 -49.5t26.5 -28t56.5 -13.5l-10 -49h-384l10 49q30 6 44.5 12.5t28.5 22.5t28 54t31 110l117 526q7 30 12 69.5t5 58.5q0 49 -20 70.5t-72 25.5l10 49h384l-10 -49q-30 -6 -45 -13t-29.5 -23.5t-29 -57t-30.5 -112.5zM808 1459
q-58 -98 -116.5 -153.5t-119 -79t-136.5 -23.5q-101 0 -156 76.5t-55 215.5l81 15q12 -180 153 -180q58 0 100.5 15t85.5 51.5t92 104.5z" />
    <glyph glyph-name="Idotaccent.c2sc" horiz-adv-x="593" 
d="M337 273q-5 -23 -11 -62t-6 -71q0 -31 9 -49.5t26.5 -28t56.5 -13.5l-10 -49h-384l10 49q30 6 44.5 12.5t28.5 22.5t28 54t31 110l117 526q7 30 12 69.5t5 58.5q0 49 -20 70.5t-72 25.5l10 49h384l-10 -49q-30 -6 -45 -13t-29.5 -23.5t-29 -57t-30.5 -112.5zM598 1438
l-46 -194h-177l46 194h177z" />
    <glyph glyph-name="Iogonek.c2sc" horiz-adv-x="593" 
d="M337 273q-5 -23 -11 -62t-6 -71q0 -31 9 -49.5t26.5 -28t56.5 -13.5l-10 -49h-73q-111 -85 -155.5 -144t-44.5 -111q0 -48 20 -66.5t62 -18.5q33 0 61.5 10.5t50.5 23.5l16 -68q-36 -25 -83 -40.5t-86 -15.5q-87 0 -130 38.5t-43 118.5q0 66 60.5 136t175.5 137h-215
l10 49q30 6 44.5 12.5t28.5 22.5t28 54t31 110l117 526q7 30 12 69.5t5 58.5q0 49 -20 70.5t-72 25.5l10 49h384l-10 -49q-30 -6 -45 -13t-29.5 -23.5t-29 -57t-30.5 -112.5z" />
    <glyph glyph-name="IJ.c2sc" horiz-adv-x="1170" 
d="M337 273q-5 -23 -11 -62t-6 -71q0 -31 9 -49.5t26.5 -28t56.5 -13.5l-10 -49h-384l10 49q30 6 44.5 12.5t28.5 22.5t28 54t31 110l117 526q7 30 12 69.5t5 58.5q0 49 -20 70.5t-72 25.5l10 49h384l-10 -49q-30 -6 -45 -13t-29.5 -23.5t-29 -57t-30.5 -112.5zM893 111
q-34 -159 -87 -249.5t-138.5 -134.5t-208.5 -44q-54 0 -90 10l24 90q16 -5 35.5 -6.5t40.5 -1.5q70 0 114.5 34t74 101t53.5 174l152 690q7 32 12 70.5t5 57.5q0 49 -20 70.5t-72 25.5l10 49h384l-10 -49q-32 -6 -47 -13.5t-29.5 -25.5t-29 -59.5t-28.5 -107.5z" />
    <glyph glyph-name="Jcircumflex.c2sc" horiz-adv-x="577" 
d="M300 111q-34 -159 -87 -249.5t-138.5 -134.5t-208.5 -44q-54 0 -90 10l24 90q16 -5 35.5 -6.5t40.5 -1.5q70 0 114.5 34t74 101t53.5 174l152 690q7 32 12 70.5t5 57.5q0 49 -20 70.5t-72 25.5l10 49h384l-10 -49q-32 -6 -47 -13.5t-29.5 -25.5t-29 -59.5t-28.5 -107.5z
M587 1522l132 -337l-79 -35l-138 243h-10l-256 -243l-62 57l277 315h136z" />
    <glyph glyph-name="Kcommaaccent.c2sc" horiz-adv-x="1096" 
d="M405 580h43q45 0 86 20q45 22 112 84l93 87q76 74 104 118q20 31 20 55q0 25 -16 37.5t-46 16.5l10 49h380l-10 -49q-35 -5 -74 -31.5t-131 -109.5l-297 -268l158 -375q22 -53 41.5 -82.5t39 -46.5t41.5 -25t41 -11l-11 -49h-365l11 49q26 2 40 15t14 32q0 17 -2.5 31.5
t-7 27t-17.5 44.5l-94 222q-20 47 -42 66t-63 19h-75l-51 -233q-5 -25 -11 -63t-6 -70q0 -31 9 -49.5t26.5 -28t56.5 -13.5l-10 -49h-384l10 49q30 6 44.5 12.5t28.5 22.5t28 54t31 110l117 526q7 30 12 69.5t5 58.5q0 49 -20 70.5t-72 25.5l10 49h384l-10 -49
q-30 -6 -45 -13t-29.5 -23.5t-29 -57t-30.5 -112.5zM548 -99q1 -8 1 -16v-15q0 -131 -93 -209t-266 -91v76q77 6 124 38.5t67.5 83.5t22.5 133h144z" />
    <glyph glyph-name="Lacute.c2sc" horiz-adv-x="915" 
d="M586 998q-30 -6 -45 -13t-29.5 -23.5t-29 -57t-30.5 -112.5l-157 -706h191q53 0 84.5 12.5t57.5 38.5t50.5 72t45.5 107h92l-80 -316h-718l10 49q30 6 44.5 12.5t28.5 22.5t28 54t31 110l117 526q7 30 12 69.5t5 58.5q0 49 -20 70.5t-72 25.5l10 49h384zM911 1532
l-11 -50l-374 -322l-62 60l263 312h184z" />
    <glyph glyph-name="Lcaron.c2sc" horiz-adv-x="915" 
d="M586 998q-30 -6 -45 -13t-29.5 -23.5t-29 -57t-30.5 -112.5l-157 -706h191q53 0 84.5 12.5t57.5 38.5t50.5 72t45.5 107h92l-80 -316h-718l10 49q30 6 44.5 12.5t28.5 22.5t28 54t31 110l117 526q7 30 12 69.5t5 58.5q0 49 -20 70.5t-72 25.5l10 49h384zM900 1092
q2 -10 2 -49q0 -72 -20.5 -127.5t-67.5 -108.5t-142 -125l-47 62q70 60 102 140t32 208h141z" />
    <glyph glyph-name="Lcommaaccent.c2sc" horiz-adv-x="915" 
d="M586 998q-30 -6 -45 -13t-29.5 -23.5t-29 -57t-30.5 -112.5l-157 -706h191q53 0 84.5 12.5t57.5 38.5t50.5 72t45.5 107h92l-80 -316h-718l10 49q30 6 44.5 12.5t28.5 22.5t28 54t31 110l117 526q7 30 12 69.5t5 58.5q0 49 -20 70.5t-72 25.5l10 49h384zM444 -99
q1 -8 1 -16v-15q0 -131 -93 -209t-266 -91v76q77 6 124 38.5t67.5 83.5t22.5 133h144z" />
    <glyph glyph-name="Lslash.c2sc" horiz-adv-x="925" 
d="M402 525l-97 -439h191q53 0 84.5 12.5t57.5 38.5t50.5 72t45.5 107h92l-80 -316h-718l10 49q30 6 44.5 12.5t28.5 22.5t28 54t31 110l41 185l-122 -75l-43 82l190 107l51 227q7 29 12 69t5 59q0 49 -20 70.5t-72 25.5l10 49h384l-10 -49q-31 -6 -46 -13.5t-29.5 -25
t-29 -59.5t-29.5 -108l-34 -149l272 162l45 -82z" />
    <glyph glyph-name="Ldot.c2sc" horiz-adv-x="1082" 
d="M586 998q-30 -6 -45 -13t-29.5 -23.5t-29 -57t-30.5 -112.5l-157 -706h191q53 0 84.5 12.5t57.5 38.5t50.5 72t45.5 107h92l-80 -316h-718l10 49q30 6 44.5 12.5t28.5 22.5t28 54t31 110l117 526q7 30 12 69.5t5 58.5q0 49 -20 70.5t-72 25.5l10 49h384zM1101 676
l-42 -194h-175l42 194h175z" />
    <glyph glyph-name="Nacute.c2sc" horiz-adv-x="1183" 
d="M828 271q27 139 71 341l36 162q7 30 12 69.5t5 58.5q0 49 -20 70.5t-72 25.5l10 49h327l-10 -49q-30 -6 -45 -13t-29.5 -23.5t-29 -57t-30.5 -112.5l-175 -799h-110l-276 650l-43.5 106.5t-38.5 103.5h-8q-15 -95 -48 -239l-76 -341q-10 -47 -13.5 -79t-3.5 -54
q0 -31 9 -49.5t26.5 -28t56.5 -13.5l-10 -49h-327l10 49q30 6 44.5 12.5t28.5 22.5t28 54t31 110l117 526q7 30 12 69.5t5 58.5q0 49 -20 70.5t-72 25.5l10 49h291l233 -554q10 -24 32 -81l52 -141h10zM1084 1532l-11 -50l-374 -322l-62 60l263 312h184z" />
    <glyph glyph-name="Ncaron.c2sc" horiz-adv-x="1183" 
d="M828 271q27 139 71 341l36 162q7 30 12 69.5t5 58.5q0 49 -20 70.5t-72 25.5l10 49h327l-10 -49q-30 -6 -45 -13t-29.5 -23.5t-29 -57t-30.5 -112.5l-175 -799h-110l-276 650l-43.5 106.5t-38.5 103.5h-8q-15 -95 -48 -239l-76 -341q-10 -47 -13.5 -79t-3.5 -54
q0 -31 9 -49.5t26.5 -28t56.5 -13.5l-10 -49h-327l10 49q30 6 44.5 12.5t28.5 22.5t28 54t31 110l117 526q7 30 12 69.5t5 58.5q0 49 -20 70.5t-72 25.5l10 49h291l233 -554q10 -24 32 -81l52 -141h10zM675 1170l-132 335l78 37l138 -243h10l256 243l63 -57l-278 -315h-135z
" />
    <glyph glyph-name="Ntilde.c2sc" horiz-adv-x="1183" 
d="M828 271q27 139 71 341l36 162q7 30 12 69.5t5 58.5q0 49 -20 70.5t-72 25.5l10 49h327l-10 -49q-30 -6 -45 -13t-29.5 -23.5t-29 -57t-30.5 -112.5l-175 -799h-110l-276 650l-43.5 106.5t-38.5 103.5h-8q-15 -95 -48 -239l-76 -341q-10 -47 -13.5 -79t-3.5 -54
q0 -31 9 -49.5t26.5 -28t56.5 -13.5l-10 -49h-327l10 49q30 6 44.5 12.5t28.5 22.5t28 54t31 110l117 526q7 30 12 69.5t5 58.5q0 49 -20 70.5t-72 25.5l10 49h291l233 -554q10 -24 32 -81l52 -141h10zM1048 1455l69 -48q-50 -75 -88.5 -116t-70.5 -57t-71 -16q-23 0 -42 6
t-35.5 16t-49.5 38q-30 24 -43 33t-25 13.5t-25 4.5q-25 0 -45 -9.5t-44 -34.5t-54 -67l-70 47q61 87 93 122t64.5 51.5t77.5 16.5q16 0 29.5 -3.5t26.5 -9.5t23 -13t39 -30q41 -34 60.5 -44.5t39.5 -10.5q23 0 43 10t44 34t54 67z" />
    <glyph glyph-name="Ncommaaccent.c2sc" horiz-adv-x="1183" 
d="M828 271q27 139 71 341l36 162q7 30 12 69.5t5 58.5q0 49 -20 70.5t-72 25.5l10 49h327l-10 -49q-30 -6 -45 -13t-29.5 -23.5t-29 -57t-30.5 -112.5l-175 -799h-110l-276 650l-43.5 106.5t-38.5 103.5h-8q-15 -95 -48 -239l-76 -341q-10 -47 -13.5 -79t-3.5 -54
q0 -31 9 -49.5t26.5 -28t56.5 -13.5l-10 -49h-327l10 49q30 6 44.5 12.5t28.5 22.5t28 54t31 110l117 526q7 30 12 69.5t5 58.5q0 49 -20 70.5t-72 25.5l10 49h291l233 -554q10 -24 32 -81l52 -141h10zM577 -99q1 -8 1 -16v-15q0 -131 -93 -209t-266 -91v76q77 6 124 38.5
t67.5 83.5t22.5 133h144z" />
    <glyph glyph-name="Ograve.c2sc" horiz-adv-x="1105" 
d="M445 -16q-105 0 -184 39t-123.5 120.5t-44.5 201.5q0 121 40 260t118.5 243.5t187.5 159.5t236 55q119 0 199.5 -45.5t118.5 -123.5t38 -180q0 -93 -19 -185t-51 -171.5t-82.5 -150t-117 -121t-147 -76.5t-169.5 -26zM271 305q0 -123 48 -181t144 -58q56 0 104 21
q54 24 97 70q49 53 89.5 141t72.5 227q27 114 27 221q0 118 -47.5 176.5t-149.5 58.5q-60 0 -111.5 -26t-94 -75.5t-76 -121.5t-58.5 -163t-35 -164t-10 -126zM701 1532l133 -328l-71 -44l-235 322l11 50h162z" />
    <glyph glyph-name="Oacute.c2sc" horiz-adv-x="1105" 
d="M445 -16q-105 0 -184 39t-123.5 120.5t-44.5 201.5q0 121 40 260t118.5 243.5t187.5 159.5t236 55q119 0 199.5 -45.5t118.5 -123.5t38 -180q0 -93 -19 -185t-51 -171.5t-82.5 -150t-117 -121t-147 -76.5t-169.5 -26zM271 305q0 -123 48 -181t144 -58q56 0 104 21
q54 24 97 70q49 53 89.5 141t72.5 227q27 114 27 221q0 118 -47.5 176.5t-149.5 58.5q-60 0 -111.5 -26t-94 -75.5t-76 -121.5t-58.5 -163t-35 -164t-10 -126zM1035 1532l-11 -50l-374 -322l-62 60l263 312h184z" />
    <glyph glyph-name="Ocircumflex.c2sc" horiz-adv-x="1105" 
d="M445 -16q-105 0 -184 39t-123.5 120.5t-44.5 201.5q0 121 40 260t118.5 243.5t187.5 159.5t236 55q119 0 199.5 -45.5t118.5 -123.5t38 -180q0 -93 -19 -185t-51 -171.5t-82.5 -150t-117 -121t-147 -76.5t-169.5 -26zM271 305q0 -123 48 -181t144 -58q56 0 104 21
q54 24 97 70q49 53 89.5 141t72.5 227q27 114 27 221q0 118 -47.5 176.5t-149.5 58.5q-60 0 -111.5 -26t-94 -75.5t-76 -121.5t-58.5 -163t-35 -164t-10 -126zM851 1522l132 -337l-79 -35l-138 243h-10l-256 -243l-62 57l277 315h136z" />
    <glyph glyph-name="Otilde.c2sc" horiz-adv-x="1105" 
d="M445 -16q-105 0 -184 39t-123.5 120.5t-44.5 201.5q0 121 40 260t118.5 243.5t187.5 159.5t236 55q119 0 199.5 -45.5t118.5 -123.5t38 -180q0 -93 -19 -185t-51 -171.5t-82.5 -150t-117 -121t-147 -76.5t-169.5 -26zM271 305q0 -123 48 -181t144 -58q56 0 104 21
q54 24 97 70q49 53 89.5 141t72.5 227q27 114 27 221q0 118 -47.5 176.5t-149.5 58.5q-60 0 -111.5 -26t-94 -75.5t-76 -121.5t-58.5 -163t-35 -164t-10 -126zM1004 1455l69 -48q-50 -75 -88.5 -116t-70.5 -57t-71 -16q-23 0 -42 6t-35.5 16t-49.5 38q-30 24 -43 33
t-25 13.5t-25 4.5q-25 0 -45 -9.5t-44 -34.5t-54 -67l-70 47q61 87 93 122t64.5 51.5t77.5 16.5q16 0 29.5 -3.5t26.5 -9.5t23 -13t39 -30q41 -34 60.5 -44.5t39.5 -10.5q23 0 43 10t44 34t54 67z" />
    <glyph glyph-name="Odieresis.c2sc" horiz-adv-x="1105" 
d="M445 -16q-105 0 -184 39t-123.5 120.5t-44.5 201.5q0 121 40 260t118.5 243.5t187.5 159.5t236 55q119 0 199.5 -45.5t118.5 -123.5t38 -180q0 -93 -19 -185t-51 -171.5t-82.5 -150t-117 -121t-147 -76.5t-169.5 -26zM271 305q0 -123 48 -181t144 -58q56 0 104 21
q54 24 97 70q49 53 89.5 141t72.5 227q27 114 27 221q0 118 -47.5 176.5t-149.5 58.5q-60 0 -111.5 -26t-94 -75.5t-76 -121.5t-58.5 -163t-35 -164t-10 -126zM1005 1429l-38 -176h-165l38 176h165zM683 1429l-38 -176h-165l38 176h165z" />
    <glyph glyph-name="Omacron.c2sc" horiz-adv-x="1105" 
d="M445 -16q-105 0 -184 39t-123.5 120.5t-44.5 201.5q0 121 40 260t118.5 243.5t187.5 159.5t236 55q119 0 199.5 -45.5t118.5 -123.5t38 -180q0 -93 -19 -185t-51 -171.5t-82.5 -150t-117 -121t-147 -76.5t-169.5 -26zM271 305q0 -123 48 -181t144 -58q56 0 104 21
q54 24 97 70q49 53 89.5 141t72.5 227q27 114 27 221q0 118 -47.5 176.5t-149.5 58.5q-60 0 -111.5 -26t-94 -75.5t-76 -121.5t-58.5 -163t-35 -164t-10 -126zM980 1278h-501l26 125h501z" />
    <glyph glyph-name="Obreve.c2sc" horiz-adv-x="1105" 
d="M445 -16q-105 0 -184 39t-123.5 120.5t-44.5 201.5q0 121 40 260t118.5 243.5t187.5 159.5t236 55q119 0 199.5 -45.5t118.5 -123.5t38 -180q0 -93 -19 -185t-51 -171.5t-82.5 -150t-117 -121t-147 -76.5t-169.5 -26zM271 305q0 -123 48 -181t144 -58q56 0 104 21
q54 24 97 70q49 53 89.5 141t72.5 227q27 114 27 221q0 118 -47.5 176.5t-149.5 58.5q-60 0 -111.5 -26t-94 -75.5t-76 -121.5t-58.5 -163t-35 -164t-10 -126zM1064 1459q-58 -98 -116.5 -153.5t-119 -79t-136.5 -23.5q-101 0 -156 76.5t-55 215.5l81 15q12 -180 153 -180
q58 0 100.5 15t85.5 51.5t92 104.5z" />
    <glyph glyph-name="Ohungarumlaut.c2sc" horiz-adv-x="1105" 
d="M445 -16q-105 0 -184 39t-123.5 120.5t-44.5 201.5q0 121 40 260t118.5 243.5t187.5 159.5t236 55q119 0 199.5 -45.5t118.5 -123.5t38 -180q0 -93 -19 -185t-51 -171.5t-82.5 -150t-117 -121t-147 -76.5t-169.5 -26zM271 305q0 -123 48 -181t144 -58q56 0 104 21
q54 24 97 70q49 53 89.5 141t72.5 227q27 114 27 221q0 118 -47.5 176.5t-149.5 58.5q-60 0 -111.5 -26t-94 -75.5t-76 -121.5t-58.5 -163t-35 -164t-10 -126zM1173 1532l-11 -50l-351 -322l-58 52l284 320h136zM868 1532l-11 -50l-351 -322l-58 52l284 320h136z" />
    <glyph glyph-name="Oslash.c2sc" horiz-adv-x="1105" 
d="M234 38l-140 -173h-129l196 242q-68 91 -68 238q0 121 40 260t118.5 243.5t187.5 159.5t236 55q129 0 216 -55l140 174h129l-196 -242q34 -44 50.5 -101.5t16.5 -124.5q0 -93 -19 -185t-51 -171.5t-82.5 -150t-117 -121t-147 -76.5t-169.5 -26q-125 0 -211 54zM269 236
l546 679q-26 35 -66 50.5t-93 15.5q-62 0 -114 -26t-95.5 -75.5t-77 -121.5t-58.5 -162.5t-35 -164t-10 -126.5q0 -37 0.5 -47.5t2.5 -21.5zM855 809l-546 -678q49 -65 154 -65q58 0 107 22q54 23 98 70q50 52 90.5 139.5t72.5 226.5q27 115 27 222q0 36 -3 63z" />
    <glyph glyph-name="Oslashacute.c2sc" horiz-adv-x="1105" 
d="M234 38l-140 -173h-129l196 242q-68 91 -68 238q0 121 40 260t118.5 243.5t187.5 159.5t236 55q129 0 216 -55l140 174h129l-196 -242q34 -44 50.5 -101.5t16.5 -124.5q0 -93 -19 -185t-51 -171.5t-82.5 -150t-117 -121t-147 -76.5t-169.5 -26q-125 0 -211 54zM269 236
l546 679q-26 35 -66 50.5t-93 15.5q-62 0 -114 -26t-95.5 -75.5t-77 -121.5t-58.5 -162.5t-35 -164t-10 -126.5q0 -37 0.5 -47.5t2.5 -21.5zM855 809l-546 -678q49 -65 154 -65q58 0 107 22q54 23 98 70q50 52 90.5 139.5t72.5 226.5q27 115 27 222q0 36 -3 63zM1033 1523
l-11 -50l-374 -322l-62 60l263 312h184z" />
    <glyph glyph-name="OE.c2sc" horiz-adv-x="1593" 
d="M747 105h-6q-84 -71 -151 -96t-160 -25q-96 0 -171.5 39t-120.5 121t-45 201q0 123 41 262t118.5 242.5t185 158.5t229.5 55q84 0 147.5 -26.5t109.5 -82.5h7l20 93h650l-56 -249h-92q-4 69 -14.5 105t-30 49t-62.5 13h-275l-83 -380h149q38 0 61.5 10t42 33t37.5 67h86
l-69 -312h-82q0 49 -4 72t-13.5 32.5t-23 12.5t-42.5 3h-160l-94 -421h244q39 0 62 5.5t43 17t39.5 31.5t41 54t43.5 82h92l-68 -272h-649zM271 305q0 -123 47.5 -181t139.5 -58q55 0 101 21q53 23 96 70q48 52 88.5 141t72.5 227q27 114 27 221q0 119 -47 177t-145 58
q-59 0 -109 -26t-92.5 -76t-76 -122t-58.5 -163t-34.5 -163.5t-9.5 -125.5z" />
    <glyph glyph-name="Racute.c2sc" horiz-adv-x="1066" 
d="M374 445l-37 -172q-7 -31 -9.5 -47t-5 -40t-2.5 -46q0 -48 24.5 -68.5t89.5 -22.5l-11 -49h-405l10 49q30 6 44.5 12.5t28.5 22.5t28 54t31 110l117 526q7 30 12 69.5t5 58.5q0 49 -20 70.5t-72 25.5l10 49h437q130 0 202.5 -27.5t110.5 -80t38 -137.5t-36.5 -148
t-102.5 -105.5t-163 -74.5v-8q46 -31 71.5 -75t40.5 -102l20 -76q11 -43 22.5 -72t26.5 -48t35.5 -28.5t57.5 -15.5l-8 -49h-244q-27 58 -53 163l-35 142q-14 55 -27.5 83t-37 42.5t-64.5 14.5h-129zM504 527q107 0 179.5 34.5t107 95.5t34.5 143t-48.5 123.5t-151.5 41.5
q-104 0 -136 -2l-97 -436h112zM1016 1532l-11 -50l-374 -322l-62 60l263 312h184z" />
    <glyph glyph-name="Rcaron.c2sc" horiz-adv-x="1066" 
d="M374 445l-37 -172q-7 -31 -9.5 -47t-5 -40t-2.5 -46q0 -48 24.5 -68.5t89.5 -22.5l-11 -49h-405l10 49q30 6 44.5 12.5t28.5 22.5t28 54t31 110l117 526q7 30 12 69.5t5 58.5q0 49 -20 70.5t-72 25.5l10 49h437q130 0 202.5 -27.5t110.5 -80t38 -137.5t-36.5 -148
t-102.5 -105.5t-163 -74.5v-8q46 -31 71.5 -75t40.5 -102l20 -76q11 -43 22.5 -72t26.5 -48t35.5 -28.5t57.5 -15.5l-8 -49h-244q-27 58 -53 163l-35 142q-14 55 -27.5 83t-37 42.5t-64.5 14.5h-129zM504 527q107 0 179.5 34.5t107 95.5t34.5 143t-48.5 123.5t-151.5 41.5
q-104 0 -136 -2l-97 -436h112zM606 1170l-132 335l78 37l138 -243h10l256 243l63 -57l-278 -315h-135z" />
    <glyph glyph-name="Rcommaaccent.c2sc" horiz-adv-x="1066" 
d="M374 445l-37 -172q-7 -31 -9.5 -47t-5 -40t-2.5 -46q0 -48 24.5 -68.5t89.5 -22.5l-11 -49h-405l10 49q30 6 44.5 12.5t28.5 22.5t28 54t31 110l117 526q7 30 12 69.5t5 58.5q0 49 -20 70.5t-72 25.5l10 49h437q130 0 202.5 -27.5t110.5 -80t38 -137.5t-36.5 -148
t-102.5 -105.5t-163 -74.5v-8q46 -31 71.5 -75t40.5 -102l20 -76q11 -43 22.5 -72t26.5 -48t35.5 -28.5t57.5 -15.5l-8 -49h-244q-27 58 -53 163l-35 142q-14 55 -27.5 83t-37 42.5t-64.5 14.5h-129zM504 527q107 0 179.5 34.5t107 95.5t34.5 143t-48.5 123.5t-151.5 41.5
q-104 0 -136 -2l-97 -436h112zM550 -99q1 -8 1 -16v-15q0 -131 -93 -209t-266 -91v76q77 6 124 38.5t67.5 83.5t22.5 133h144z" />
    <glyph glyph-name="Sacute.c2sc" horiz-adv-x="860" 
d="M132 262q3 -95 55 -145.5t156 -50.5q108 0 164.5 50.5t56.5 144.5q0 47 -17 81.5t-52 65t-121 82.5q-103 60 -152.5 125t-49.5 142q0 91 46.5 160t136 107.5t209.5 38.5q77 0 148.5 -9.5t163.5 -35.5l-46 -217h-92q-12 180 -189 180q-67 0 -113.5 -24t-68.5 -62.5
t-22 -84.5q0 -45 17 -78.5t51.5 -63t102.5 -69.5q88 -52 133 -93t65.5 -89t20.5 -114q0 -94 -49 -166.5t-139 -112.5t-210 -40q-101 0 -187.5 13.5t-159.5 34.5l49 230h93zM913 1532l-11 -50l-374 -322l-62 60l263 312h184z" />
    <glyph glyph-name="Scircumflex.c2sc" horiz-adv-x="860" 
d="M132 262q3 -95 55 -145.5t156 -50.5q108 0 164.5 50.5t56.5 144.5q0 47 -17 81.5t-52 65t-121 82.5q-103 60 -152.5 125t-49.5 142q0 91 46.5 160t136 107.5t209.5 38.5q77 0 148.5 -9.5t163.5 -35.5l-46 -217h-92q-12 180 -189 180q-67 0 -113.5 -24t-68.5 -62.5
t-22 -84.5q0 -45 17 -78.5t51.5 -63t102.5 -69.5q88 -52 133 -93t65.5 -89t20.5 -114q0 -94 -49 -166.5t-139 -112.5t-210 -40q-101 0 -187.5 13.5t-159.5 34.5l49 230h93zM729 1522l132 -337l-79 -35l-138 243h-10l-256 -243l-62 57l277 315h136z" />
    <glyph glyph-name="Scaron.c2sc" horiz-adv-x="860" 
d="M132 262q3 -95 55 -145.5t156 -50.5q108 0 164.5 50.5t56.5 144.5q0 47 -17 81.5t-52 65t-121 82.5q-103 60 -152.5 125t-49.5 142q0 91 46.5 160t136 107.5t209.5 38.5q77 0 148.5 -9.5t163.5 -35.5l-46 -217h-92q-12 180 -189 180q-67 0 -113.5 -24t-68.5 -62.5
t-22 -84.5q0 -45 17 -78.5t51.5 -63t102.5 -69.5q88 -52 133 -93t65.5 -89t20.5 -114q0 -94 -49 -166.5t-139 -112.5t-210 -40q-101 0 -187.5 13.5t-159.5 34.5l49 230h93zM452 1170l-132 335l78 37l138 -243h10l256 243l63 -57l-278 -315h-135z" />
    <glyph glyph-name="Scedilla.c2sc" horiz-adv-x="860" 
d="M132 262q3 -95 55 -145.5t156 -50.5q108 0 164.5 50.5t56.5 144.5q0 47 -17 81.5t-52 65t-121 82.5q-103 60 -152.5 125t-49.5 142q0 91 46.5 160t136 107.5t209.5 38.5q77 0 148.5 -9.5t163.5 -35.5l-46 -217h-92q-12 180 -189 180q-67 0 -113.5 -24t-68.5 -62.5
t-22 -84.5q0 -45 17 -78.5t51.5 -63t102.5 -69.5q88 -52 133 -93t65.5 -89t20.5 -114q0 -109 -65 -189t-183 -112l-133 -89q4 -14 4 -49q0 -125 -94.5 -202.5t-267.5 -91.5v76q96 8 148.5 58t54.5 145l7 34l161 102q-7 -1 -15 -1h-15q-101 0 -187.5 13.5t-159.5 34.5l49 230
h93z" />
    <glyph glyph-name="Scommaaccent.c2sc" horiz-adv-x="860" 
d="M132 262q3 -95 55 -145.5t156 -50.5q108 0 164.5 50.5t56.5 144.5q0 47 -17 81.5t-52 65t-121 82.5q-103 60 -152.5 125t-49.5 142q0 91 46.5 160t136 107.5t209.5 38.5q77 0 148.5 -9.5t163.5 -35.5l-46 -217h-92q-12 180 -189 180q-67 0 -113.5 -24t-68.5 -62.5
t-22 -84.5q0 -45 17 -78.5t51.5 -63t102.5 -69.5q88 -52 133 -93t65.5 -89t20.5 -114q0 -94 -49 -166.5t-139 -112.5t-210 -40q-101 0 -187.5 13.5t-159.5 34.5l49 230h93zM415 -99q1 -8 1 -16v-15q0 -131 -93 -209t-266 -91v76q77 6 124 38.5t67.5 83.5t22.5 133h144z" />
    <glyph glyph-name="Tcaron.c2sc" horiz-adv-x="1041" 
d="M1109 1047l-64 -281h-92q-1 67 -5 104t-15 56.5t-30 29t-59 9.5h-130l-152 -692q-6 -28 -9 -45.5t-5.5 -41.5t-2.5 -46q0 -33 11 -52t32 -28t64 -11l-10 -49h-414l10 49q35 3 52 9t32.5 21.5t30 53t32.5 115.5l156 717h-130q-30 0 -49.5 -5.5t-37 -18t-37 -36.5
t-37.5 -59t-37 -86h-92l61 287h927zM604 1170l-132 335l78 37l138 -243h10l256 243l63 -57l-278 -315h-135z" />
    <glyph glyph-name="uni021A.c2sc" horiz-adv-x="1041" 
d="M1109 1047l-64 -281h-92q-1 67 -5 104t-15 56.5t-30 29t-59 9.5h-130l-152 -692q-6 -28 -9 -45.5t-5.5 -41.5t-2.5 -46q0 -33 11 -52t32 -28t64 -11l-10 -49h-414l10 49q35 3 52 9t32.5 21.5t30 53t32.5 115.5l156 717h-130q-30 0 -49.5 -5.5t-37 -18t-37 -36.5
t-37.5 -59t-37 -86h-92l61 287h927zM492 -99q1 -8 1 -16v-15q0 -131 -93 -209t-266 -91v76q77 6 124 38.5t67.5 83.5t22.5 133h144z" />
    <glyph glyph-name="Tbar.c2sc" horiz-adv-x="1041" 
d="M227 559h225l89 406h-130q-30 0 -49.5 -5.5t-37 -18t-37 -36.5t-37.5 -59t-37 -86h-92l61 287h927l-64 -281h-92q-1 67 -5 104t-15 56.5t-30 29t-59 9.5h-130l-89 -406h225l-19 -88h-226l-43 -198q-6 -30 -9 -46.5t-5.5 -40.5t-2.5 -46q0 -33 11 -52t32 -28t64 -11
l-10 -49h-414l10 49q35 3 52 9t32.5 21.5t30 53t32.5 115.5l48 223h-225z" />
    <glyph glyph-name="Ugrave.c2sc" horiz-adv-x="1147" 
d="M884 774q7 34 12 72t5 56q0 49 -20 70.5t-72 25.5l10 49h359l-10 -49q-31 -6 -46.5 -13.5t-30 -25.5t-29 -59.5t-28.5 -107.5l-88 -404q-32 -148 -91 -236.5t-147.5 -128t-221.5 -39.5q-102 0 -177.5 34t-115.5 97t-40 147q0 54 6 102t23 121l64 289q7 31 12 70t5 58
q0 49 -20 70.5t-72 25.5l10 49h384l-10 -49q-30 -6 -45 -13t-29.5 -23.5t-29 -57t-30.5 -112.5l-77 -349q-15 -67 -20 -109.5t-5 -75.5q0 -96 47.5 -144t145.5 -48q83 0 137.5 33.5t89.5 101.5t61 185zM667 1532l133 -328l-71 -44l-235 322l11 50h162z" />
    <glyph glyph-name="Uacute.c2sc" horiz-adv-x="1147" 
d="M884 774q7 34 12 72t5 56q0 49 -20 70.5t-72 25.5l10 49h359l-10 -49q-31 -6 -46.5 -13.5t-30 -25.5t-29 -59.5t-28.5 -107.5l-88 -404q-32 -148 -91 -236.5t-147.5 -128t-221.5 -39.5q-102 0 -177.5 34t-115.5 97t-40 147q0 54 6 102t23 121l64 289q7 31 12 70t5 58
q0 49 -20 70.5t-72 25.5l10 49h384l-10 -49q-30 -6 -45 -13t-29.5 -23.5t-29 -57t-30.5 -112.5l-77 -349q-15 -67 -20 -109.5t-5 -75.5q0 -96 47.5 -144t145.5 -48q83 0 137.5 33.5t89.5 101.5t61 185zM1069 1532l-11 -50l-374 -322l-62 60l263 312h184z" />
    <glyph glyph-name="Ucircumflex.c2sc" horiz-adv-x="1147" 
d="M884 774q7 34 12 72t5 56q0 49 -20 70.5t-72 25.5l10 49h359l-10 -49q-31 -6 -46.5 -13.5t-30 -25.5t-29 -59.5t-28.5 -107.5l-88 -404q-32 -148 -91 -236.5t-147.5 -128t-221.5 -39.5q-102 0 -177.5 34t-115.5 97t-40 147q0 54 6 102t23 121l64 289q7 31 12 70t5 58
q0 49 -20 70.5t-72 25.5l10 49h384l-10 -49q-30 -6 -45 -13t-29.5 -23.5t-29 -57t-30.5 -112.5l-77 -349q-15 -67 -20 -109.5t-5 -75.5q0 -96 47.5 -144t145.5 -48q83 0 137.5 33.5t89.5 101.5t61 185zM872 1522l132 -337l-79 -35l-138 243h-10l-256 -243l-62 57l277 315
h136z" />
    <glyph glyph-name="Utilde.c2sc" horiz-adv-x="1147" 
d="M884 774q7 34 12 72t5 56q0 49 -20 70.5t-72 25.5l10 49h359l-10 -49q-31 -6 -46.5 -13.5t-30 -25.5t-29 -59.5t-28.5 -107.5l-88 -404q-32 -148 -91 -236.5t-147.5 -128t-221.5 -39.5q-102 0 -177.5 34t-115.5 97t-40 147q0 54 6 102t23 121l64 289q7 31 12 70t5 58
q0 49 -20 70.5t-72 25.5l10 49h384l-10 -49q-30 -6 -45 -13t-29.5 -23.5t-29 -57t-30.5 -112.5l-77 -349q-15 -67 -20 -109.5t-5 -75.5q0 -96 47.5 -144t145.5 -48q83 0 137.5 33.5t89.5 101.5t61 185zM1025 1455l69 -48q-50 -75 -88.5 -116t-70.5 -57t-71 -16q-23 0 -42 6
t-35.5 16t-49.5 38q-30 24 -43 33t-25 13.5t-25 4.5q-25 0 -45 -9.5t-44 -34.5t-54 -67l-70 47q61 87 93 122t64.5 51.5t77.5 16.5q16 0 29.5 -3.5t26.5 -9.5t23 -13t39 -30q41 -34 60.5 -44.5t39.5 -10.5q23 0 43 10t44 34t54 67z" />
    <glyph glyph-name="Udieresis.c2sc" horiz-adv-x="1147" 
d="M884 774q7 34 12 72t5 56q0 49 -20 70.5t-72 25.5l10 49h359l-10 -49q-31 -6 -46.5 -13.5t-30 -25.5t-29 -59.5t-28.5 -107.5l-88 -404q-32 -148 -91 -236.5t-147.5 -128t-221.5 -39.5q-102 0 -177.5 34t-115.5 97t-40 147q0 54 6 102t23 121l64 289q7 31 12 70t5 58
q0 49 -20 70.5t-72 25.5l10 49h384l-10 -49q-30 -6 -45 -13t-29.5 -23.5t-29 -57t-30.5 -112.5l-77 -349q-15 -67 -20 -109.5t-5 -75.5q0 -96 47.5 -144t145.5 -48q83 0 137.5 33.5t89.5 101.5t61 185zM1026 1429l-38 -176h-165l38 176h165zM704 1429l-38 -176h-165l38 176
h165z" />
    <glyph glyph-name="Umacron.c2sc" horiz-adv-x="1147" 
d="M884 774q7 34 12 72t5 56q0 49 -20 70.5t-72 25.5l10 49h359l-10 -49q-31 -6 -46.5 -13.5t-30 -25.5t-29 -59.5t-28.5 -107.5l-88 -404q-32 -148 -91 -236.5t-147.5 -128t-221.5 -39.5q-102 0 -177.5 34t-115.5 97t-40 147q0 54 6 102t23 121l64 289q7 31 12 70t5 58
q0 49 -20 70.5t-72 25.5l10 49h384l-10 -49q-30 -6 -45 -13t-29.5 -23.5t-29 -57t-30.5 -112.5l-77 -349q-15 -67 -20 -109.5t-5 -75.5q0 -96 47.5 -144t145.5 -48q83 0 137.5 33.5t89.5 101.5t61 185zM1001 1278h-501l26 125h501z" />
    <glyph glyph-name="Ubreve.c2sc" horiz-adv-x="1147" 
d="M884 774q7 34 12 72t5 56q0 49 -20 70.5t-72 25.5l10 49h359l-10 -49q-31 -6 -46.5 -13.5t-30 -25.5t-29 -59.5t-28.5 -107.5l-88 -404q-32 -148 -91 -236.5t-147.5 -128t-221.5 -39.5q-102 0 -177.5 34t-115.5 97t-40 147q0 54 6 102t23 121l64 289q7 31 12 70t5 58
q0 49 -20 70.5t-72 25.5l10 49h384l-10 -49q-30 -6 -45 -13t-29.5 -23.5t-29 -57t-30.5 -112.5l-77 -349q-15 -67 -20 -109.5t-5 -75.5q0 -96 47.5 -144t145.5 -48q83 0 137.5 33.5t89.5 101.5t61 185zM1085 1459q-58 -98 -116.5 -153.5t-119 -79t-136.5 -23.5
q-101 0 -156 76.5t-55 215.5l81 15q12 -180 153 -180q58 0 100.5 15t85.5 51.5t92 104.5z" />
    <glyph glyph-name="Uring.c2sc" horiz-adv-x="1147" 
d="M884 774q7 34 12 72t5 56q0 49 -20 70.5t-72 25.5l10 49h359l-10 -49q-31 -6 -46.5 -13.5t-30 -25.5t-29 -59.5t-28.5 -107.5l-88 -404q-32 -148 -91 -236.5t-147.5 -128t-221.5 -39.5q-102 0 -177.5 34t-115.5 97t-40 147q0 54 6 102t23 121l64 289q7 31 12 70t5 58
q0 49 -20 70.5t-72 25.5l10 49h384l-10 -49q-30 -6 -45 -13t-29.5 -23.5t-29 -57t-30.5 -112.5l-77 -349q-15 -67 -20 -109.5t-5 -75.5q0 -96 47.5 -144t145.5 -48q83 0 137.5 33.5t89.5 101.5t61 185zM724 1161q-86 0 -132.5 38.5t-46.5 109.5q0 46 16.5 94t53.5 84.5
t87.5 55.5t107.5 19q90 0 135.5 -38.5t45.5 -110.5q0 -66 -31 -126t-92 -93t-144 -33zM646 1315q0 -42 21.5 -67t67.5 -25q48 0 84 28.5t53.5 72.5t17.5 85q0 44 -23 67.5t-65 23.5q-43 0 -79 -25t-56.5 -68t-20.5 -92z" />
    <glyph glyph-name="Uhungarumlaut.c2sc" horiz-adv-x="1147" 
d="M884 774q7 34 12 72t5 56q0 49 -20 70.5t-72 25.5l10 49h359l-10 -49q-31 -6 -46.5 -13.5t-30 -25.5t-29 -59.5t-28.5 -107.5l-88 -404q-32 -148 -91 -236.5t-147.5 -128t-221.5 -39.5q-102 0 -177.5 34t-115.5 97t-40 147q0 54 6 102t23 121l64 289q7 31 12 70t5 58
q0 49 -20 70.5t-72 25.5l10 49h384l-10 -49q-30 -6 -45 -13t-29.5 -23.5t-29 -57t-30.5 -112.5l-77 -349q-15 -67 -20 -109.5t-5 -75.5q0 -96 47.5 -144t145.5 -48q83 0 137.5 33.5t89.5 101.5t61 185zM1194 1532l-11 -50l-351 -322l-58 52l284 320h136zM889 1532l-11 -50
l-351 -322l-58 52l284 320h136z" />
    <glyph glyph-name="Uogonek.c2sc" horiz-adv-x="1147" 
d="M884 774q7 34 12 72t5 56q0 49 -20 70.5t-72 25.5l10 49h359l-10 -49q-31 -6 -46.5 -13.5t-30 -25.5t-29 -59.5t-28.5 -107.5l-88 -404q-24 -112 -64 -190.5t-98 -125.5l-104 -88t-76.5 -71.5t-48.5 -56.5t-26.5 -43.5t-12.5 -35t-4 -32.5q0 -48 20 -66.5t62 -18.5
q33 0 61.5 10.5t50.5 23.5l16 -68q-36 -25 -83 -40.5t-86 -15.5q-87 0 -130 38.5t-43 118.5q0 64 55.5 132t159.5 133q-44 -8 -109 -8q-102 0 -177.5 34t-115.5 97t-40 147q0 54 6 102t23 121l64 289q7 31 12 70t5 58q0 49 -20 70.5t-72 25.5l10 49h384l-10 -49
q-30 -6 -45 -13t-29.5 -23.5t-29 -57t-30.5 -112.5l-77 -349q-15 -67 -20 -109.5t-5 -75.5q0 -96 47.5 -144t145.5 -48q83 0 137.5 33.5t89.5 101.5t61 185z" />
    <glyph glyph-name="Wgrave.c2sc" horiz-adv-x="1644" 
d="M937 -5l-29 610l-2 44l-1 52l-2 60l-1 63h-10l-433 -829h-150l-74 833q-6 68 -19 103t-34 50t-62 17l10 49h392l-10 -49q-41 -3 -63 -15t-31.5 -35.5t-9.5 -71.5q0 -18 1 -43l34 -559l3 -85h10l446 858h151l22 -705l1 -66v-88h10l283 511q52 94 70.5 140.5t18.5 76.5
q0 39 -20 58.5t-67 23.5l10 49h365l-10 -49q-47 -11 -89.5 -57.5t-99.5 -145.5l-457 -800h-153zM981 1532l133 -328l-71 -44l-235 322l11 50h162z" />
    <glyph glyph-name="Wacute.c2sc" horiz-adv-x="1644" 
d="M937 -5l-29 610l-2 44l-1 52l-2 60l-1 63h-10l-433 -829h-150l-74 833q-6 68 -19 103t-34 50t-62 17l10 49h392l-10 -49q-41 -3 -63 -15t-31.5 -35.5t-9.5 -71.5q0 -18 1 -43l34 -559l3 -85h10l446 858h151l22 -705l1 -66v-88h10l283 511q52 94 70.5 140.5t18.5 76.5
q0 39 -20 58.5t-67 23.5l10 49h365l-10 -49q-47 -11 -89.5 -57.5t-99.5 -145.5l-457 -800h-153zM1315 1532l-11 -50l-374 -322l-62 60l263 312h184z" />
    <glyph glyph-name="Wcircumflex.c2sc" horiz-adv-x="1644" 
d="M937 -5l-29 610l-2 44l-1 52l-2 60l-1 63h-10l-433 -829h-150l-74 833q-6 68 -19 103t-34 50t-62 17l10 49h392l-10 -49q-41 -3 -63 -15t-31.5 -35.5t-9.5 -71.5q0 -18 1 -43l34 -559l3 -85h10l446 858h151l22 -705l1 -66v-88h10l283 511q52 94 70.5 140.5t18.5 76.5
q0 39 -20 58.5t-67 23.5l10 49h365l-10 -49q-47 -11 -89.5 -57.5t-99.5 -145.5l-457 -800h-153zM1131 1522l132 -337l-79 -35l-138 243h-10l-256 -243l-62 57l277 315h136z" />
    <glyph glyph-name="Wdieresis.c2sc" horiz-adv-x="1644" 
d="M937 -5l-29 610l-2 44l-1 52l-2 60l-1 63h-10l-433 -829h-150l-74 833q-6 68 -19 103t-34 50t-62 17l10 49h392l-10 -49q-41 -3 -63 -15t-31.5 -35.5t-9.5 -71.5q0 -18 1 -43l34 -559l3 -85h10l446 858h151l22 -705l1 -66v-88h10l283 511q52 94 70.5 140.5t18.5 76.5
q0 39 -20 58.5t-67 23.5l10 49h365l-10 -49q-47 -11 -89.5 -57.5t-99.5 -145.5l-457 -800h-153zM1284 1429l-38 -176h-165l38 176h165zM962 1429l-38 -176h-165l38 176h165z" />
    <glyph glyph-name="Ygrave.c2sc" horiz-adv-x="989" 
d="M201 49q35 3 52 9t32.5 21.5t30 53t32.5 115.5l40 185l-134 370q-30 82 -50.5 118t-43 53.5t-50.5 23.5l11 49h371l-11 -49q-39 -3 -59.5 -22.5t-20.5 -54.5q0 -44 21 -102l99 -286l204 251q48 60 69.5 95t21.5 65q0 26 -16 38.5t-55 15.5l11 49h338l-10 -49
q-30 -8 -54.5 -25t-54 -48.5t-103.5 -118.5l-312 -372l-35 -161q-6 -30 -9 -46.5t-5.5 -40.5t-2.5 -46q0 -33 11 -52t32 -28t64 -11l-10 -49h-414zM594 1532l133 -328l-71 -44l-235 322l11 50h162z" />
    <glyph glyph-name="Yacute.c2sc" horiz-adv-x="989" 
d="M201 49q35 3 52 9t32.5 21.5t30 53t32.5 115.5l40 185l-134 370q-30 82 -50.5 118t-43 53.5t-50.5 23.5l11 49h371l-11 -49q-39 -3 -59.5 -22.5t-20.5 -54.5q0 -44 21 -102l99 -286l204 251q48 60 69.5 95t21.5 65q0 26 -16 38.5t-55 15.5l11 49h338l-10 -49
q-30 -8 -54.5 -25t-54 -48.5t-103.5 -118.5l-312 -372l-35 -161q-6 -30 -9 -46.5t-5.5 -40.5t-2.5 -46q0 -33 11 -52t32 -28t64 -11l-10 -49h-414zM983 1532l-11 -50l-374 -322l-62 60l263 312h184z" />
    <glyph glyph-name="Ycircumflex.c2sc" horiz-adv-x="989" 
d="M201 49q35 3 52 9t32.5 21.5t30 53t32.5 115.5l40 185l-134 370q-30 82 -50.5 118t-43 53.5t-50.5 23.5l11 49h371l-11 -49q-39 -3 -59.5 -22.5t-20.5 -54.5q0 -44 21 -102l99 -286l204 251q48 60 69.5 95t21.5 65q0 26 -16 38.5t-55 15.5l11 49h338l-10 -49
q-30 -8 -54.5 -25t-54 -48.5t-103.5 -118.5l-312 -372l-35 -161q-6 -30 -9 -46.5t-5.5 -40.5t-2.5 -46q0 -33 11 -52t32 -28t64 -11l-10 -49h-414zM794 1522l132 -337l-79 -35l-138 243h-10l-256 -243l-62 57l277 315h136z" />
    <glyph glyph-name="Ydieresis.c2sc" horiz-adv-x="989" 
d="M201 49q35 3 52 9t32.5 21.5t30 53t32.5 115.5l40 185l-134 370q-30 82 -50.5 118t-43 53.5t-50.5 23.5l11 49h371l-11 -49q-39 -3 -59.5 -22.5t-20.5 -54.5q0 -44 21 -102l99 -286l204 251q48 60 69.5 95t21.5 65q0 26 -16 38.5t-55 15.5l11 49h338l-10 -49
q-30 -8 -54.5 -25t-54 -48.5t-103.5 -118.5l-312 -372l-35 -161q-6 -30 -9 -46.5t-5.5 -40.5t-2.5 -46q0 -33 11 -52t32 -28t64 -11l-10 -49h-414zM938 1429l-38 -176h-165l38 176h165zM616 1429l-38 -176h-165l38 176h165z" />
    <glyph glyph-name="Zacute.c2sc" horiz-adv-x="958" 
d="M219 85h289q52 0 88 18t71.5 65t67.5 131h92l-66 -299h-779l10 49l752 912h-300q-47 0 -78.5 -16.5t-57.5 -53.5t-64 -126h-92l60 282h769l-10 -49zM962 1532l-11 -50l-374 -322l-62 60l263 312h184z" />
    <glyph glyph-name="Zcaron.c2sc" horiz-adv-x="958" 
d="M219 85h289q52 0 88 18t71.5 65t67.5 131h92l-66 -299h-779l10 49l752 912h-300q-47 0 -78.5 -16.5t-57.5 -53.5t-64 -126h-92l60 282h769l-10 -49zM562 1170l-132 335l78 37l138 -243h10l256 243l63 -57l-278 -315h-135z" />
    <glyph glyph-name="Zdotaccent.c2sc" horiz-adv-x="958" 
d="M219 85h289q52 0 88 18t71.5 65t67.5 131h92l-66 -299h-779l10 49l752 912h-300q-47 0 -78.5 -16.5t-57.5 -53.5t-64 -126h-92l60 282h769l-10 -49zM781 1438l-46 -194h-177l46 194h177z" />
    <glyph glyph-name="Eng.c2sc" horiz-adv-x="1183" 
d="M492 643l-43.5 107t-38.5 103h-8q-15 -95 -48 -239l-76 -341q-10 -47 -13.5 -79t-3.5 -54q0 -31 9 -49.5t26.5 -28t56.5 -13.5l-10 -49h-327l10 49q30 6 44.5 12.5t28.5 22.5t28 54t31 110l117 526q7 30 12 69.5t5 58.5q0 49 -20 70.5t-72 25.5l10 49h291l233 -554
q10 -24 32 -81l52 -141h10q27 139 71 341l36 162q7 30 12 69.5t5 58.5q0 49 -20 70.5t-72 25.5l10 49h327l-10 -49q-30 -6 -45 -13t-29.5 -23.5t-29 -57t-30.5 -112.5l-168 -768q-17 -80 -44 -143t-64.5 -107.5t-86 -69.5t-111.5 -25q-29 0 -66 5t-62 13l38 175h84
q3 -33 16 -48.5t43 -15.5q41 0 76.5 49t57.5 140z" />
    </font>
</defs>
</svg>
